<svg width="18" height="18" viewBox="0 0 18 18" fill="none" xmlns="http://www.w3.org/2000/svg">
<path d="M9 0C4.0371 0 0 4.0371 0 9C0 13.9629 4.0371 18 9 18C13.9629 18 18 13.9622 18 9C18 4.0378 13.9629 0 9 0ZM9 16.6057C4.80674 16.6057 1.39426 13.194 1.39426 9C1.39426 4.80604 4.80674 1.39426 9 1.39426C13.1933 1.39426 16.6057 4.80604 16.6057 9C16.6057 13.194 13.194 16.6057 9 16.6057Z" fill="#3275EE"/>
<path d="M12.4843 8.23982H9.69576V5.4513C9.69576 5.06648 9.38414 4.75415 8.99862 4.75415C8.61309 4.75415 8.30147 5.06648 8.30147 5.4513V8.23982H5.51294C5.12742 8.23982 4.8158 8.55215 4.8158 8.93697C4.8158 9.32179 5.12742 9.63412 5.51294 9.63412H8.30147V12.4226C8.30147 12.8075 8.61309 13.1198 8.99862 13.1198C9.38414 13.1198 9.69576 12.8075 9.69576 12.4226V9.63412H12.4843C12.8698 9.63412 13.1814 9.32179 13.1814 8.93697C13.1814 8.55215 12.8698 8.23982 12.4843 8.23982Z" fill="#3275EE"/>
</svg>
