<svg width="18" height="18" viewBox="0 0 18 18" fill="none" xmlns="http://www.w3.org/2000/svg">
<path d="M15.9337 0C14.8991 0 14.0398 0.764311 13.8904 1.75794L13.2621 2.38624C12.1686 3.47979 10.5581 4.13265 8.95408 4.13265H4.82143C3.92349 4.13265 3.1579 4.70852 2.87357 5.5102H2.7551C1.23594 5.5102 0 6.74614 0 8.26531C0 9.78447 1.23594 11.0204 2.7551 11.0204H2.87357C3.08144 11.6065 3.54655 12.0716 4.13265 12.2795V15.8418C4.13265 16.9812 5.05965 17.9082 6.19903 17.9082C7.33835 17.9082 8.26531 16.9812 8.26531 15.8418V12.398H8.95408C10.5581 12.398 12.1686 13.0508 13.2621 14.1444L13.8904 14.7727C14.0398 15.7663 14.8991 16.5306 15.9337 16.5306C17.073 16.5306 18 15.6037 18 14.4643V2.06633C18 0.926954 17.073 0 15.9337 0ZM2.7551 9.64286C1.99552 9.64286 1.37755 9.02489 1.37755 8.26531C1.37755 7.50572 1.99552 6.88776 2.7551 6.88776V9.64286ZM6.88776 15.8418C6.88776 16.2216 6.57877 16.5306 6.19898 16.5306C5.81919 16.5306 5.5102 16.2216 5.5102 15.8418V12.398H6.88776V15.8418ZM8.26531 11.0204H4.82143C4.44164 11.0204 4.13265 10.7114 4.13265 10.3316V6.19898C4.13265 5.81919 4.44164 5.5102 4.82143 5.5102H8.26531V11.0204ZM13.8673 12.8271C12.7037 11.82 11.2077 11.1943 9.63826 11.0516L9.63831 5.47893C11.2077 5.33631 12.7037 4.71058 13.8673 3.70345V12.8271ZM16.6224 14.4643C16.6224 14.8441 16.3135 15.1531 15.9337 15.1531H15.9337C15.5539 15.1531 15.2449 14.8441 15.2449 14.4643V2.06633C15.2449 1.68654 15.5539 1.37755 15.9337 1.37755C16.3135 1.37755 16.6224 1.68654 16.6224 2.06633V14.4643Z" fill="#3275EE"/>
</svg>
