<svg width="72" height="72" viewBox="0 0 72 72" fill="none" xmlns="http://www.w3.org/2000/svg">
<path d="M2 51.5V69C2 69.5523 2.44772 70 3 70H20.5" stroke="#3275EE" stroke-width="3.1" stroke-linecap="round"/>
<path d="M20.5 2H3C2.44772 2 2 2.44771 2 3V20.5" stroke="#3275EE" stroke-width="3.1" stroke-linecap="round"/>
<path d="M51.5 2H69C69.5522 2 70 2.44771 70 3V20.5" stroke="#3275EE" stroke-width="3.1" stroke-linecap="round"/>
<path d="M70 51.5V69C70 69.5523 69.5522 70 69 70H51.5" stroke="#3275EE" stroke-width="3.1" stroke-linecap="round"/>
<path fill-rule="evenodd" clip-rule="evenodd" d="M58.6399 48.904V41.0877C58.6399 37.5748 55.7921 34.727 52.2792 34.727C48.7662 34.727 45.9184 37.5748 45.9184 41.0877V48.904H58.6399ZM52.2792 31.627C47.0542 31.627 42.8184 35.8627 42.8184 41.0877V50.004C42.8184 51.1085 43.7139 52.004 44.8184 52.004H59.7399C60.8445 52.004 61.7399 51.1085 61.7399 50.004V41.0877C61.7399 35.8627 57.5042 31.627 52.2792 31.627Z" fill="#3275EE"/>
<path fill-rule="evenodd" clip-rule="evenodd" d="M52.2793 29.9839C54.1845 29.9839 55.729 28.4394 55.729 26.5342C55.729 24.6289 54.1845 23.0844 52.2793 23.0844C50.374 23.0844 48.8295 24.6289 48.8295 26.5342C48.8295 28.4394 50.374 29.9839 52.2793 29.9839ZM52.2793 33.0839C55.8966 33.0839 58.829 30.1515 58.829 26.5342C58.829 22.9168 55.8966 19.9844 52.2793 19.9844C48.6619 19.9844 45.7295 22.9168 45.7295 26.5342C45.7295 30.1515 48.6619 33.0839 52.2793 33.0839Z" fill="#3275EE"/>
<path fill-rule="evenodd" clip-rule="evenodd" d="M25.8214 48.904V41.0877C25.8214 37.5748 22.9736 34.727 19.4607 34.727C15.9478 34.727 13.1 37.5748 13.1 41.0877V48.904H25.8214ZM19.4607 31.627C14.2357 31.627 10 35.8627 10 41.0877V50.004C10 51.1085 10.8954 52.004 12 52.004H26.9214C28.026 52.004 28.9214 51.1085 28.9214 50.004V41.0877C28.9214 35.8627 24.6857 31.627 19.4607 31.627Z" fill="#3275EE"/>
<path fill-rule="evenodd" clip-rule="evenodd" d="M19.4609 29.9839C21.3661 29.9839 22.9106 28.4394 22.9106 26.5342C22.9106 24.6289 21.3661 23.0844 19.4609 23.0844C17.5557 23.0844 16.0111 24.6289 16.0111 26.5342C16.0111 28.4394 17.5557 29.9839 19.4609 29.9839ZM19.4609 33.0839C23.0782 33.0839 26.0106 30.1515 26.0106 26.5342C26.0106 22.9168 23.0782 19.9844 19.4609 19.9844C15.8436 19.9844 12.9111 22.9168 12.9111 26.5342C12.9111 30.1515 15.8436 33.0839 19.4609 33.0839Z" fill="#3275EE"/>
<path d="M24.6035 42.0457C24.6035 35.8451 29.6301 30.8184 35.8308 30.8184C42.0314 30.8184 47.058 35.8451 47.058 42.0457V53.0003C47.058 54.1048 46.1626 55.0003 45.058 55.0003H26.6035C25.4989 55.0003 24.6035 54.1048 24.6035 53.0003V42.0457Z" fill="white"/>
<path fill-rule="evenodd" clip-rule="evenodd" d="M43.958 51.9003V42.0457C43.958 37.5572 40.3193 33.9184 35.8308 33.9184C31.3422 33.9184 27.7035 37.5572 27.7035 42.0457V51.9003H43.958ZM35.8308 30.8184C29.6301 30.8184 24.6035 35.8451 24.6035 42.0457V53.0003C24.6035 54.1048 25.4989 55.0003 26.6035 55.0003H45.058C46.1626 55.0003 47.058 54.1048 47.058 53.0003V42.0457C47.058 35.8451 42.0314 30.8184 35.8308 30.8184Z" fill="#3275EE"/>
<path d="M43.6031 24.7727C43.6031 29.0655 40.1231 32.5455 35.8303 32.5455C31.5376 32.5455 28.0576 29.0655 28.0576 24.7727C28.0576 20.48 31.5376 17 35.8303 17C40.1231 17 43.6031 20.48 43.6031 24.7727Z" fill="white"/>
<path fill-rule="evenodd" clip-rule="evenodd" d="M35.8303 29.4455C38.411 29.4455 40.5031 27.3534 40.5031 24.7727C40.5031 22.1921 38.411 20.1 35.8303 20.1C33.2497 20.1 31.1576 22.1921 31.1576 24.7727C31.1576 27.3534 33.2497 29.4455 35.8303 29.4455ZM35.8303 32.5455C40.1231 32.5455 43.6031 29.0655 43.6031 24.7727C43.6031 20.48 40.1231 17 35.8303 17C31.5376 17 28.0576 20.48 28.0576 24.7727C28.0576 29.0655 31.5376 32.5455 35.8303 32.5455Z" fill="#3275EE"/>
</svg>
