<svg width="294" height="360" viewBox="0 0 294 360" fill="none" xmlns="http://www.w3.org/2000/svg">
<rect width="294" height="360" rx="8" fill="#FCF29C"/>
<path d="M97.2728 173C97.0972 173 96.9479 172.939 96.825 172.816C96.7021 172.693 96.6406 172.543 96.6406 172.368V155.219C96.6406 155.026 96.6933 154.868 96.7986 154.745C96.9216 154.622 97.0796 154.561 97.2728 154.561H109.337C109.531 154.561 109.68 154.622 109.785 154.745C109.908 154.868 109.97 155.026 109.97 155.219V157.063C109.97 157.239 109.908 157.388 109.785 157.511C109.68 157.634 109.531 157.695 109.337 157.695H100.302V161.91H104.754C106.738 161.91 108.292 162.402 109.416 163.385C110.54 164.369 111.102 165.703 111.102 167.389C111.102 168.39 110.856 169.321 110.365 170.181C109.891 171.024 109.171 171.709 108.205 172.236C107.256 172.745 106.106 173 104.754 173H97.2728ZM104.385 170.208C105.281 170.208 105.992 169.936 106.519 169.391C107.063 168.829 107.335 168.144 107.335 167.337C107.335 166.529 107.081 165.879 106.571 165.387C106.062 164.896 105.333 164.65 104.385 164.65H100.302V170.208H104.385ZM117.383 173.263C116.487 173.263 115.662 173.088 114.907 172.737C114.169 172.368 113.581 171.876 113.142 171.261C112.721 170.647 112.51 169.971 112.51 169.233C112.51 168.039 112.993 167.073 113.959 166.336C114.925 165.598 116.25 165.097 117.936 164.834L121.545 164.307V163.754C121.545 162.981 121.352 162.402 120.966 162.015C120.579 161.629 119.956 161.436 119.095 161.436C118.516 161.436 118.042 161.55 117.673 161.778C117.322 161.989 117.041 162.2 116.83 162.411C116.619 162.639 116.479 162.788 116.408 162.858C116.338 163.069 116.206 163.175 116.013 163.175H113.985C113.827 163.175 113.686 163.122 113.564 163.016C113.458 162.911 113.405 162.771 113.405 162.595C113.423 162.156 113.634 161.655 114.038 161.094C114.459 160.532 115.1 160.049 115.961 159.645C116.821 159.241 117.875 159.039 119.122 159.039C121.194 159.039 122.704 159.504 123.652 160.435C124.601 161.366 125.075 162.586 125.075 164.096V172.368C125.075 172.543 125.013 172.693 124.891 172.816C124.785 172.939 124.636 173 124.443 173H122.309C122.133 173 121.984 172.939 121.861 172.816C121.738 172.693 121.677 172.543 121.677 172.368V171.34C121.29 171.902 120.737 172.368 120.017 172.737C119.315 173.088 118.437 173.263 117.383 173.263ZM118.279 170.761C119.245 170.761 120.035 170.445 120.649 169.813C121.264 169.18 121.571 168.258 121.571 167.047V166.494L118.937 166.915C117.919 167.073 117.146 167.328 116.619 167.679C116.11 168.03 115.855 168.46 115.855 168.97C115.855 169.532 116.092 169.971 116.567 170.287C117.041 170.603 117.611 170.761 118.279 170.761ZM129.086 173C128.911 173 128.762 172.939 128.639 172.816C128.516 172.693 128.454 172.543 128.454 172.368V159.934C128.454 159.759 128.516 159.61 128.639 159.487C128.762 159.364 128.911 159.302 129.086 159.302H131.273C131.466 159.302 131.615 159.364 131.721 159.487C131.844 159.592 131.905 159.741 131.905 159.934V164.65H137.858V159.934C137.858 159.741 137.92 159.592 138.043 159.487C138.166 159.364 138.315 159.302 138.49 159.302H140.677C140.87 159.302 141.019 159.364 141.125 159.487C141.248 159.592 141.309 159.741 141.309 159.934V172.368C141.309 172.543 141.248 172.693 141.125 172.816C141.019 172.939 140.87 173 140.677 173H138.49C138.315 173 138.166 172.939 138.043 172.816C137.92 172.693 137.858 172.543 137.858 172.368V167.416H131.905V172.368C131.905 172.543 131.844 172.693 131.721 172.816C131.615 172.939 131.466 173 131.273 173H129.086ZM145.499 173C145.323 173 145.174 172.939 145.051 172.816C144.928 172.693 144.866 172.543 144.866 172.368V159.934C144.866 159.759 144.928 159.61 145.051 159.487C145.174 159.364 145.323 159.302 145.499 159.302H147.685C147.878 159.302 148.027 159.364 148.133 159.487C148.256 159.592 148.317 159.741 148.317 159.934V164.65H154.27V159.934C154.27 159.741 154.332 159.592 154.455 159.487C154.578 159.364 154.727 159.302 154.903 159.302H157.089C157.282 159.302 157.431 159.364 157.537 159.487C157.66 159.592 157.721 159.741 157.721 159.934V172.368C157.721 172.543 157.66 172.693 157.537 172.816C157.431 172.939 157.282 173 157.089 173H154.903C154.727 173 154.578 172.939 154.455 172.816C154.332 172.693 154.27 172.543 154.27 172.368V167.416H148.317V172.368C148.317 172.543 148.256 172.693 148.133 172.816C148.027 172.939 147.878 173 147.685 173H145.499ZM167.179 173.263C165.23 173.263 163.676 172.701 162.517 171.578C161.375 170.436 160.769 168.838 160.699 166.783L160.673 166.125L160.699 165.466C160.787 163.464 161.402 161.893 162.543 160.751C163.702 159.61 165.247 159.039 167.179 159.039C169.251 159.039 170.849 159.671 171.973 160.935C173.115 162.2 173.686 163.886 173.686 165.993V166.546C173.686 166.722 173.624 166.871 173.501 166.994C173.378 167.117 173.22 167.178 173.027 167.178H164.282V167.389C164.317 168.355 164.58 169.172 165.072 169.839C165.581 170.489 166.275 170.814 167.153 170.814C168.189 170.814 169.023 170.41 169.655 169.602C169.813 169.409 169.936 169.286 170.024 169.233C170.129 169.18 170.279 169.154 170.472 169.154H172.737C172.895 169.154 173.027 169.207 173.132 169.312C173.255 169.4 173.317 169.514 173.317 169.655C173.317 170.076 173.062 170.577 172.553 171.156C172.061 171.718 171.35 172.21 170.419 172.631C169.488 173.053 168.408 173.263 167.179 173.263ZM170.103 164.966V164.887C170.103 163.851 169.84 163.016 169.313 162.384C168.804 161.752 168.092 161.436 167.179 161.436C166.266 161.436 165.555 161.752 165.045 162.384C164.536 163.016 164.282 163.851 164.282 164.887V164.966H170.103ZM177.14 178.005C176.965 178.005 176.815 177.943 176.692 177.821C176.569 177.715 176.508 177.566 176.508 177.373V159.934C176.508 159.741 176.569 159.592 176.692 159.487C176.815 159.364 176.965 159.302 177.14 159.302H179.221C179.414 159.302 179.564 159.364 179.669 159.487C179.792 159.592 179.853 159.741 179.853 159.934V160.988C180.837 159.689 182.242 159.039 184.068 159.039C185.842 159.039 187.203 159.601 188.151 160.725C189.099 161.831 189.609 163.333 189.679 165.229C189.696 165.44 189.705 165.747 189.705 166.151C189.705 166.573 189.696 166.889 189.679 167.099C189.609 168.943 189.099 170.436 188.151 171.578C187.203 172.701 185.842 173.263 184.068 173.263C182.294 173.263 180.942 172.64 180.011 171.393V177.373C180.011 177.566 179.95 177.715 179.827 177.821C179.722 177.943 179.572 178.005 179.379 178.005H177.14ZM183.093 170.445C184.99 170.445 186 169.277 186.123 166.941C186.14 166.766 186.149 166.502 186.149 166.151C186.149 165.8 186.14 165.536 186.123 165.361C186 163.025 184.99 161.857 183.093 161.857C182.075 161.857 181.32 162.182 180.828 162.832C180.336 163.482 180.064 164.281 180.011 165.229L179.985 166.23L180.011 167.257C180.047 168.136 180.319 168.891 180.828 169.523C181.355 170.138 182.11 170.445 183.093 170.445Z" fill="#001D3A"/>
<path d="M66.7099 208.586C66.6025 208.586 66.5113 208.548 66.4362 208.473C66.3611 208.398 66.3235 208.307 66.3235 208.2V199.33H62.8303V201.358C62.8303 203.129 62.7069 204.529 62.4601 205.56C62.224 206.579 61.8161 207.33 61.2366 207.813C60.6571 208.285 59.8522 208.538 58.822 208.57C58.7146 208.581 58.6181 208.548 58.5322 208.473C58.4571 208.398 58.4195 208.302 58.4195 208.183V206.976C58.4195 206.869 58.4517 206.783 58.5161 206.719C58.5805 206.654 58.6717 206.611 58.7898 206.59C59.4229 206.482 59.8898 205.983 60.1903 205.093C60.5015 204.191 60.6571 202.85 60.6571 201.068V197.704C60.6571 197.586 60.6947 197.495 60.7698 197.43C60.8449 197.355 60.9361 197.318 61.0435 197.318H68.1587C68.2767 197.318 68.3733 197.355 68.4484 197.43C68.5235 197.505 68.5611 197.602 68.5611 197.72V208.2C68.5611 208.318 68.5235 208.414 68.4484 208.489C68.3733 208.554 68.2767 208.586 68.1587 208.586H66.7099ZM78.3063 200.215C78.3921 200.215 78.4673 200.247 78.5316 200.312C78.6068 200.376 78.6443 200.451 78.6443 200.537C78.6443 200.612 78.6229 200.698 78.5799 200.795L75.5214 208.103C75.1887 208.897 74.8882 209.53 74.6199 210.003C74.3516 210.475 74.0189 210.866 73.6218 211.178C73.2248 211.489 72.7472 211.645 72.1891 211.645H71.4808C71.3735 211.645 71.2823 211.607 71.2072 211.532C71.132 211.467 71.0945 211.376 71.0945 211.258V210.341C71.0945 210.233 71.132 210.142 71.2072 210.067C71.2823 209.992 71.3735 209.954 71.4808 209.954H71.9799C72.3018 209.954 72.5433 209.863 72.7043 209.681C72.8652 209.498 73.0584 209.133 73.2838 208.586L73.4609 208.151L70.2896 200.795C70.2467 200.698 70.2252 200.623 70.2252 200.569C70.2359 200.473 70.2735 200.392 70.3379 200.328C70.4023 200.253 70.4828 200.215 70.5794 200.215H71.8672C72.0604 200.215 72.1999 200.317 72.2857 200.521L74.4267 205.817L76.6321 200.521C76.7072 200.317 76.8575 200.215 77.0828 200.215H78.3063ZM85.3621 208.586C85.2548 208.586 85.1636 208.548 85.0885 208.473C85.0133 208.398 84.9758 208.307 84.9758 208.2V205.463C84.4499 205.924 83.6772 206.155 82.6577 206.155C81.6489 206.155 80.8869 205.919 80.3718 205.447C79.8567 204.964 79.5991 204.213 79.5991 203.193V200.601C79.5991 200.483 79.6367 200.392 79.7118 200.328C79.7869 200.253 79.8782 200.215 79.9855 200.215H81.3699C81.4772 200.215 81.5684 200.253 81.6435 200.328C81.7187 200.403 81.7562 200.494 81.7562 200.601V203.081C81.7562 203.51 81.8689 203.821 82.0943 204.014C82.3304 204.197 82.706 204.288 83.2211 204.288C84.3909 204.288 84.9758 203.971 84.9758 203.338V200.601C84.9758 200.483 85.0133 200.392 85.0885 200.328C85.1636 200.253 85.2548 200.215 85.3621 200.215H86.8109C86.9182 200.215 87.0095 200.253 87.0846 200.328C87.1597 200.403 87.1973 200.494 87.1973 200.601V208.2C87.1973 208.307 87.1597 208.398 87.0846 208.473C87.0095 208.548 86.9182 208.586 86.8109 208.586H85.3621ZM89.7588 208.586C89.6515 208.586 89.5603 208.548 89.4852 208.473C89.41 208.398 89.3725 208.307 89.3725 208.2V200.601C89.3725 200.494 89.41 200.403 89.4852 200.328C89.5603 200.253 89.6515 200.215 89.7588 200.215H91.0305C91.1486 200.215 91.2398 200.253 91.3042 200.328C91.3793 200.392 91.4169 200.483 91.4169 200.601V206.88H93.8316V200.601C93.8316 200.483 93.8691 200.392 93.9442 200.328C94.0194 200.253 94.1106 200.215 94.2179 200.215H95.3769C95.495 200.215 95.5862 200.253 95.6506 200.328C95.7257 200.392 95.7633 200.483 95.7633 200.601V206.88H98.1779V200.601C98.1779 200.483 98.2155 200.392 98.2906 200.328C98.3658 200.253 98.457 200.215 98.5643 200.215H99.836C99.9433 200.215 100.035 200.253 100.11 200.328C100.185 200.403 100.222 200.494 100.222 200.601V208.2C100.222 208.307 100.185 208.398 100.11 208.473C100.035 208.548 99.9433 208.586 99.836 208.586H89.7588ZM105.995 208.747C104.804 208.747 103.854 208.403 103.146 207.717C102.448 207.019 102.078 206.042 102.035 204.787L102.019 204.384L102.035 203.982C102.089 202.759 102.464 201.798 103.162 201.1C103.87 200.403 104.814 200.054 105.995 200.054C107.261 200.054 108.238 200.44 108.925 201.213C109.622 201.986 109.971 203.016 109.971 204.304V204.642C109.971 204.749 109.933 204.841 109.858 204.916C109.783 204.991 109.687 205.028 109.569 205.028H104.224V205.157C104.246 205.747 104.407 206.246 104.707 206.654C105.018 207.051 105.442 207.25 105.979 207.25C106.612 207.25 107.122 207.003 107.508 206.509C107.605 206.391 107.68 206.316 107.733 206.284C107.798 206.252 107.889 206.236 108.007 206.236H109.392C109.488 206.236 109.569 206.268 109.633 206.332C109.708 206.386 109.746 206.456 109.746 206.542C109.746 206.799 109.59 207.105 109.279 207.459C108.978 207.803 108.544 208.103 107.975 208.361C107.406 208.618 106.746 208.747 105.995 208.747ZM107.782 203.676V203.628C107.782 202.995 107.621 202.485 107.299 202.099C106.988 201.712 106.553 201.519 105.995 201.519C105.437 201.519 105.002 201.712 104.691 202.099C104.38 202.485 104.224 202.995 104.224 203.628V203.676H107.782ZM115.286 208.747C114.094 208.747 113.145 208.403 112.436 207.717C111.739 207.019 111.369 206.042 111.326 204.787L111.31 204.384L111.326 203.982C111.379 202.759 111.755 201.798 112.453 201.1C113.161 200.403 114.105 200.054 115.286 200.054C116.552 200.054 117.529 200.44 118.215 201.213C118.913 201.986 119.262 203.016 119.262 204.304V204.642C119.262 204.749 119.224 204.841 119.149 204.916C119.074 204.991 118.977 205.028 118.859 205.028H113.515V205.157C113.536 205.747 113.697 206.246 113.998 206.654C114.309 207.051 114.733 207.25 115.27 207.25C115.903 207.25 116.413 207.003 116.799 206.509C116.895 206.391 116.971 206.316 117.024 206.284C117.089 206.252 117.18 206.236 117.298 206.236H118.682C118.779 206.236 118.859 206.268 118.924 206.332C118.999 206.386 119.036 206.456 119.036 206.542C119.036 206.799 118.881 207.105 118.57 207.459C118.269 207.803 117.835 208.103 117.266 208.361C116.697 208.618 116.037 208.747 115.286 208.747ZM117.073 203.676V203.628C117.073 202.995 116.912 202.485 116.59 202.099C116.278 201.712 115.844 201.519 115.286 201.519C114.728 201.519 114.293 201.712 113.982 202.099C113.671 202.485 113.515 202.995 113.515 203.628V203.676H117.073ZM125.036 208.586C124.928 208.586 124.837 208.548 124.762 208.473C124.687 208.398 124.649 208.307 124.649 208.2V200.601C124.649 200.494 124.687 200.403 124.762 200.328C124.837 200.253 124.928 200.215 125.036 200.215H131.925C132.043 200.215 132.135 200.253 132.199 200.328C132.274 200.392 132.312 200.483 132.312 200.601V208.2C132.312 208.307 132.274 208.398 132.199 208.473C132.135 208.548 132.043 208.586 131.925 208.586H130.589C130.482 208.586 130.391 208.548 130.316 208.473C130.24 208.398 130.203 208.307 130.203 208.2V201.921H126.758V208.2C126.758 208.307 126.72 208.398 126.645 208.473C126.581 208.548 126.49 208.586 126.372 208.586H125.036ZM134.893 211.645C134.785 211.645 134.694 211.607 134.619 211.532C134.544 211.467 134.506 211.376 134.506 211.258V200.601C134.506 200.483 134.544 200.392 134.619 200.328C134.694 200.253 134.785 200.215 134.893 200.215H136.164C136.282 200.215 136.374 200.253 136.438 200.328C136.513 200.392 136.551 200.483 136.551 200.601V201.245C137.152 200.451 138.01 200.054 139.126 200.054C140.21 200.054 141.042 200.398 141.622 201.084C142.201 201.76 142.512 202.678 142.555 203.837C142.566 203.966 142.571 204.154 142.571 204.401C142.571 204.658 142.566 204.851 142.555 204.98C142.512 206.107 142.201 207.019 141.622 207.717C141.042 208.403 140.21 208.747 139.126 208.747C138.042 208.747 137.216 208.366 136.647 207.604V211.258C136.647 211.376 136.61 211.467 136.535 211.532C136.47 211.607 136.379 211.645 136.261 211.645H134.893ZM138.531 207.024C139.69 207.024 140.307 206.311 140.382 204.883C140.393 204.776 140.398 204.615 140.398 204.401C140.398 204.186 140.393 204.025 140.382 203.918C140.307 202.49 139.69 201.777 138.531 201.777C137.908 201.777 137.447 201.975 137.146 202.372C136.846 202.769 136.679 203.258 136.647 203.837L136.631 204.449L136.647 205.077C136.669 205.613 136.835 206.075 137.146 206.461C137.468 206.837 137.93 207.024 138.531 207.024ZM147.984 208.747C146.793 208.747 145.843 208.403 145.135 207.717C144.437 207.019 144.067 206.042 144.024 204.787L144.008 204.384L144.024 203.982C144.078 202.759 144.453 201.798 145.151 201.1C145.859 200.403 146.804 200.054 147.984 200.054C149.251 200.054 150.227 200.44 150.914 201.213C151.612 201.986 151.96 203.016 151.96 204.304V204.642C151.96 204.749 151.923 204.841 151.848 204.916C151.773 204.991 151.676 205.028 151.558 205.028H146.214V205.157C146.235 205.747 146.396 206.246 146.696 206.654C147.008 207.051 147.432 207.25 147.968 207.25C148.601 207.25 149.111 207.003 149.497 206.509C149.594 206.391 149.669 206.316 149.723 206.284C149.787 206.252 149.878 206.236 149.996 206.236H151.381C151.477 206.236 151.558 206.268 151.622 206.332C151.697 206.386 151.735 206.456 151.735 206.542C151.735 206.799 151.579 207.105 151.268 207.459C150.968 207.803 150.533 208.103 149.964 208.361C149.396 208.618 148.735 208.747 147.984 208.747ZM149.771 203.676V203.628C149.771 202.995 149.61 202.485 149.288 202.099C148.977 201.712 148.542 201.519 147.984 201.519C147.426 201.519 146.992 201.712 146.68 202.099C146.369 202.485 146.214 202.995 146.214 203.628V203.676H149.771ZM153.347 210.357C153.24 210.357 153.149 210.319 153.074 210.244C152.998 210.18 152.961 210.088 152.961 209.97V207.266C152.961 207.159 152.998 207.067 153.074 206.992C153.149 206.917 153.24 206.88 153.347 206.88H153.476C153.895 206.88 154.2 206.547 154.394 205.882C154.587 205.216 154.683 204.181 154.683 202.775V200.601C154.683 200.483 154.721 200.392 154.796 200.328C154.871 200.253 154.962 200.215 155.07 200.215H160.8C160.919 200.215 161.01 200.253 161.074 200.328C161.149 200.392 161.187 200.483 161.187 200.601V206.863H161.911C162.029 206.863 162.12 206.901 162.185 206.976C162.26 207.041 162.298 207.132 162.298 207.25V209.97C162.298 210.088 162.26 210.18 162.185 210.244C162.12 210.319 162.029 210.357 161.911 210.357H160.591C160.473 210.357 160.377 210.319 160.301 210.244C160.226 210.169 160.189 210.078 160.189 209.97V208.586H155.07V209.97C155.07 210.088 155.032 210.18 154.957 210.244C154.893 210.319 154.801 210.357 154.683 210.357H153.347ZM159.094 206.863V201.921H156.712V203C156.712 204.846 156.459 206.139 155.955 206.88L159.094 206.863ZM163.52 208.586C163.413 208.586 163.316 208.548 163.23 208.473C163.155 208.387 163.117 208.291 163.117 208.183V207.185C163.117 207.078 163.15 206.992 163.214 206.928C163.278 206.853 163.37 206.81 163.488 206.799C163.96 206.778 164.298 206.456 164.502 205.833C164.716 205.2 164.824 204.181 164.824 202.775V200.601C164.824 200.483 164.861 200.392 164.936 200.328C165.012 200.253 165.103 200.215 165.21 200.215H170.925C171.032 200.215 171.123 200.253 171.198 200.328C171.274 200.403 171.311 200.494 171.311 200.601V208.2C171.311 208.307 171.274 208.398 171.198 208.473C171.123 208.548 171.032 208.586 170.925 208.586H169.589C169.481 208.586 169.39 208.548 169.315 208.473C169.24 208.398 169.202 208.307 169.202 208.2V201.921H166.836V203C166.836 204.395 166.729 205.495 166.514 206.3C166.31 207.105 165.967 207.69 165.484 208.055C165.012 208.409 164.357 208.586 163.52 208.586ZM177.179 208.747C175.924 208.747 174.953 208.425 174.266 207.781C173.579 207.126 173.209 206.236 173.155 205.109L173.139 204.401L173.155 203.692C173.209 202.576 173.584 201.691 174.282 201.036C174.979 200.381 175.945 200.054 177.179 200.054C178.414 200.054 179.379 200.381 180.077 201.036C180.775 201.691 181.15 202.576 181.204 203.692C181.215 203.821 181.22 204.057 181.22 204.401C181.22 204.744 181.215 204.98 181.204 205.109C181.15 206.236 180.78 207.126 180.093 207.781C179.406 208.425 178.435 208.747 177.179 208.747ZM177.179 207.153C177.748 207.153 178.188 206.976 178.499 206.622C178.811 206.257 178.982 205.726 179.015 205.028C179.025 204.921 179.031 204.712 179.031 204.401C179.031 204.089 179.025 203.88 179.015 203.773C178.982 203.075 178.811 202.549 178.499 202.195C178.188 201.83 177.748 201.648 177.179 201.648C176.611 201.648 176.171 201.83 175.859 202.195C175.548 202.549 175.376 203.075 175.344 203.773L175.328 204.401L175.344 205.028C175.376 205.726 175.548 206.257 175.859 206.622C176.171 206.976 176.611 207.153 177.179 207.153ZM195.318 208.087C195.361 208.141 195.383 208.21 195.383 208.296C195.383 208.382 195.351 208.452 195.286 208.505C195.232 208.559 195.152 208.586 195.045 208.586H193.435C193.242 208.586 193.091 208.505 192.984 208.344L190.875 205.173H189.877V208.2C189.877 208.307 189.84 208.398 189.765 208.473C189.7 208.548 189.609 208.586 189.491 208.586H188.187C188.08 208.586 187.988 208.548 187.913 208.473C187.838 208.398 187.801 208.307 187.801 208.2V205.173H186.803L184.694 208.344C184.565 208.505 184.415 208.586 184.243 208.586H182.617C182.521 208.586 182.44 208.559 182.376 208.505C182.311 208.452 182.279 208.382 182.279 208.296C182.279 208.232 182.306 208.162 182.36 208.087L185.016 204.24L182.698 200.714C182.655 200.66 182.633 200.591 182.633 200.505C182.633 200.419 182.66 200.349 182.714 200.296C182.778 200.242 182.864 200.215 182.971 200.215H184.404C184.511 200.215 184.597 200.237 184.662 200.279C184.726 200.322 184.79 200.387 184.855 200.473L186.787 203.483H187.801V200.601C187.801 200.483 187.838 200.392 187.913 200.328C187.988 200.253 188.08 200.215 188.187 200.215H189.491C189.609 200.215 189.7 200.253 189.765 200.328C189.84 200.392 189.877 200.483 189.877 200.601V203.483H190.859L192.823 200.473C192.93 200.301 193.075 200.215 193.258 200.215H194.707C194.803 200.215 194.884 200.242 194.948 200.296C195.012 200.349 195.045 200.419 195.045 200.505C195.045 200.569 195.018 200.639 194.964 200.714L192.646 204.24L195.318 208.087ZM200.396 208.747C199.205 208.747 198.255 208.403 197.547 207.717C196.849 207.019 196.479 206.042 196.436 204.787L196.42 204.384L196.436 203.982C196.49 202.759 196.866 201.798 197.563 201.1C198.271 200.403 199.216 200.054 200.396 200.054C201.663 200.054 202.639 200.44 203.326 201.213C204.024 201.986 204.372 203.016 204.372 204.304V204.642C204.372 204.749 204.335 204.841 204.26 204.916C204.185 204.991 204.088 205.028 203.97 205.028H198.626V205.157C198.647 205.747 198.808 206.246 199.108 206.654C199.42 207.051 199.844 207.25 200.38 207.25C201.013 207.25 201.523 207.003 201.909 206.509C202.006 206.391 202.081 206.316 202.135 206.284C202.199 206.252 202.29 206.236 202.409 206.236H203.793C203.889 206.236 203.97 206.268 204.034 206.332C204.109 206.386 204.147 206.456 204.147 206.542C204.147 206.799 203.991 207.105 203.68 207.459C203.38 207.803 202.945 208.103 202.376 208.361C201.808 208.618 201.148 208.747 200.396 208.747ZM202.183 203.676V203.628C202.183 202.995 202.022 202.485 201.7 202.099C201.389 201.712 200.954 201.519 200.396 201.519C199.838 201.519 199.404 201.712 199.092 202.099C198.781 202.485 198.626 202.995 198.626 203.628V203.676H202.183ZM206.468 208.586C206.36 208.586 206.269 208.548 206.194 208.473C206.119 208.398 206.081 208.307 206.081 208.2V200.601C206.081 200.494 206.119 200.403 206.194 200.328C206.269 200.253 206.36 200.215 206.468 200.215H207.804C207.922 200.215 208.013 200.253 208.077 200.328C208.152 200.392 208.19 200.483 208.19 200.601V203.483H211.828V200.601C211.828 200.483 211.866 200.392 211.941 200.328C212.016 200.253 212.107 200.215 212.214 200.215H213.551C213.669 200.215 213.76 200.253 213.824 200.328C213.899 200.392 213.937 200.483 213.937 200.601V208.2C213.937 208.307 213.899 208.398 213.824 208.473C213.76 208.548 213.669 208.586 213.551 208.586H212.214C212.107 208.586 212.016 208.548 211.941 208.473C211.866 208.398 211.828 208.307 211.828 208.2V205.173H208.19V208.2C208.19 208.307 208.152 208.398 208.077 208.473C208.013 208.548 207.922 208.586 207.804 208.586H206.468ZM223.741 200.215C223.838 200.215 223.924 200.253 223.999 200.328C224.074 200.392 224.111 200.473 224.111 200.569V208.2C224.111 208.307 224.074 208.398 223.999 208.473C223.924 208.548 223.832 208.586 223.725 208.586H222.389C222.282 208.586 222.19 208.548 222.115 208.473C222.04 208.398 222.003 208.307 222.003 208.2V203.032L218.139 208.328C218.043 208.5 217.898 208.586 217.704 208.586H216.481C216.384 208.586 216.299 208.554 216.224 208.489C216.148 208.414 216.111 208.323 216.111 208.216V200.601C216.111 200.494 216.148 200.403 216.224 200.328C216.299 200.253 216.39 200.215 216.497 200.215H217.833C217.951 200.215 218.043 200.253 218.107 200.328C218.182 200.392 218.22 200.483 218.22 200.601V205.785L222.083 200.473C222.201 200.301 222.346 200.215 222.518 200.215H223.741ZM229.746 208.747C228.555 208.747 227.605 208.403 226.897 207.717C226.2 207.019 225.829 206.042 225.786 204.787L225.77 204.384L225.786 203.982C225.84 202.759 226.216 201.798 226.913 201.1C227.621 200.403 228.566 200.054 229.746 200.054C231.013 200.054 231.989 200.44 232.676 201.213C233.374 201.986 233.723 203.016 233.723 204.304V204.642C233.723 204.749 233.685 204.841 233.61 204.916C233.535 204.991 233.438 205.028 233.32 205.028H227.976V205.157C227.997 205.747 228.158 206.246 228.459 206.654C228.77 207.051 229.194 207.25 229.73 207.25C230.363 207.25 230.873 207.003 231.26 206.509C231.356 206.391 231.431 206.316 231.485 206.284C231.549 206.252 231.641 206.236 231.759 206.236H233.143C233.24 206.236 233.32 206.268 233.384 206.332C233.46 206.386 233.497 206.456 233.497 206.542C233.497 206.799 233.342 207.105 233.03 207.459C232.73 207.803 232.295 208.103 231.726 208.361C231.158 208.618 230.498 208.747 229.746 208.747ZM231.533 203.676V203.628C231.533 202.995 231.372 202.485 231.05 202.099C230.739 201.712 230.304 201.519 229.746 201.519C229.188 201.519 228.754 201.712 228.442 202.099C228.131 202.485 227.976 202.995 227.976 203.628V203.676H231.533Z" fill="#001D3A"/>
</svg>
