<svg width="30" height="32" viewBox="0 0 30 32" fill="none" xmlns="http://www.w3.org/2000/svg">
<path d="M27.3744 11.4462H26.606V7.73872C26.606 7.71561 26.6023 7.69232 26.5996 7.66869C26.5984 7.52161 26.5512 7.37705 26.4504 7.26248L20.2804 0.214601C20.2785 0.212792 20.2767 0.21215 20.2754 0.210224C20.2387 0.169136 20.1958 0.134936 20.1504 0.105404C20.137 0.096416 20.1235 0.0888871 20.1094 0.0809497C20.0702 0.0596472 20.0284 0.0417297 19.9856 0.0288314C19.9739 0.0257965 19.9635 0.0210107 19.9519 0.0179759C19.9053 0.00688685 19.8569 0 19.8079 0H4.6449C3.95254 0 3.39003 0.563146 3.39003 1.25492V11.4459H2.62174C1.63126 11.4459 0.828125 12.2487 0.828125 13.2396V22.5667C0.828125 23.5566 1.63126 24.3603 2.62174 24.3603H3.39003V30.7451C3.39003 31.437 3.95254 32 4.6449 32H25.3507C26.0425 32 26.6056 31.437 26.6056 30.7451V24.3603H27.374C28.3642 24.3603 29.1675 23.557 29.1675 22.5668V13.2399C29.1675 12.2488 28.3648 11.4462 27.3744 11.4462ZM4.6449 1.25492H19.1805V7.67522C19.1805 8.0219 19.4616 8.30269 19.8079 8.30269H25.3508V11.4462H4.6449V1.25492ZM17.3575 18.3646C16.1246 17.9351 15.3202 17.2531 15.3202 16.1734C15.3202 14.9071 16.3771 13.9383 18.1284 13.9383C18.9648 13.9383 19.5818 14.1142 20.0218 14.3126L19.6476 15.6666C19.3505 15.5238 18.822 15.3143 18.0953 15.3143C17.3685 15.3143 17.0163 15.6447 17.0163 16.0301C17.0163 16.5038 17.4348 16.7128 18.3925 17.0761C19.7025 17.5608 20.3192 18.2433 20.3192 19.2893C20.3192 20.5337 19.3612 21.5908 17.3241 21.5908C16.4765 21.5908 15.6397 21.3708 15.2212 21.1393L15.5623 19.752C16.0139 19.983 16.7078 20.2146 17.4232 20.2146C18.1946 20.2146 18.6014 19.8954 18.6014 19.4107C18.6017 18.9486 18.2494 18.6838 17.3575 18.3646ZM14.5176 20.0711V21.481H9.8813V14.0586H11.5667V20.0711H14.5176ZM4.49783 21.481H2.582L4.72906 17.7251L2.65874 14.0583H4.58595L5.23524 15.413C5.45551 15.8645 5.62079 16.2274 5.79716 16.6465H5.81858C5.99525 16.1728 6.13824 15.8425 6.32488 15.413L6.95264 14.0583H8.86853L6.77632 17.6807L8.97895 21.4803H7.04118L6.36912 20.1367C6.09429 19.6199 5.91798 19.2341 5.70869 18.8046H5.6868C5.53243 19.2341 5.34567 19.6199 5.1142 20.1367L4.49783 21.481ZM25.3508 30.4053H4.6449V24.3603H25.3507V30.4053H25.3508ZM25.3621 21.481L24.6903 20.1373C24.4151 19.6201 24.2389 19.2347 24.0296 18.8052H24.0083C23.8539 19.2347 23.6664 19.6201 23.4347 20.1373L22.819 21.481H20.9025L23.0496 17.7251L20.9794 14.0583H22.9066L23.5567 15.413C23.7767 15.8645 23.9415 16.2274 24.118 16.6465H24.14C24.3159 16.1728 24.4586 15.8425 24.6461 15.413L25.2736 14.0583H27.1899L25.0977 17.6807L27.2999 21.4803H25.3621V21.481Z" fill="#3275EE"/>
</svg>
