<svg width="21" height="20" viewBox="0 0 21 20" fill="none" xmlns="http://www.w3.org/2000/svg">
<path d="M19.3848 2.82857L3.82843 18.3849C3.4381 18.7752 2.64615 18.6168 2.06066 18.0314C1.47517 17.4459 1.31678 16.6539 1.70711 16.2636L17.2635 0.707247C17.6538 0.316923 18.4457 0.475314 19.0312 1.0608C19.6167 1.64629 19.7751 2.43824 19.3848 2.82857Z" fill="#646464"/>
<path d="M16.5562 18.3848L0.999849 2.82843C0.609525 2.4381 0.767916 1.64615 1.3534 1.06066C1.93889 0.475174 2.73084 0.316782 3.12117 0.707107L18.6775 16.2635C19.0678 16.6538 18.9095 17.4457 18.324 18.0312C17.7385 18.6167 16.9465 18.7751 16.5562 18.3848Z" fill="#646464"/>
</svg>
