<svg width="16" height="16" viewBox="0 0 16 16" fill="none" xmlns="http://www.w3.org/2000/svg">
<path d="M0.6 13.9299C0.6 13.1196 1.26024 12.4594 2.07052 12.4594C2.88068 12.4594 3.54105 13.1196 3.54105 13.9299C3.54105 14.7402 2.88087 15.4003 2.07052 15.4003C1.26018 15.4003 0.6 14.7402 0.6 13.9299Z" stroke="#3275EE" stroke-width="1.2"/>
<path d="M0.605859 6.57426C2.89505 6.71861 5.0411 7.68771 6.67761 9.32408C8.31381 10.9604 9.28304 13.1065 9.42729 15.3955H7.31175C7.02349 11.8008 4.2005 8.97784 0.605859 8.68966V6.57426Z" stroke="#3275EE" stroke-width="1.2"/>
<path d="M0.325309 3.31069C6.97658 3.47779 12.523 9.02447 12.6898 15.6752C12.6939 15.8529 12.8395 15.9944 13.0173 15.9944H15.6725C15.7605 15.9944 15.845 15.9591 15.9067 15.896M0.325309 3.31069L0.333764 2.98305L0.340788 2.71089C0.487976 2.71469 0.605859 2.83515 0.605859 2.98305V2.72029M0.325309 3.31069L0.33354 2.98305L0.340378 2.71088C0.429064 2.71311 0.517561 2.71625 0.605859 2.72029M0.325309 3.31069C0.147564 3.3061 0.00585938 3.16079 0.00585938 2.98305V0.32782L0.605859 0.608416M0.605859 2.72029C7.36959 3.02983 12.9709 8.63125 13.2802 15.3944M0.605859 2.72029V0.608416M13.2802 15.3944H13.0173C13.1633 15.3944 13.2855 15.5107 13.2896 15.6601C13.2874 15.5714 13.2843 15.4828 13.2802 15.3944ZM13.2802 15.3944H15.392M15.392 15.3944C15.3956 15.4869 15.3983 15.5796 15.4003 15.6723C15.3989 15.598 15.4275 15.5279 15.4775 15.4768L15.672 15.6667L15.6725 15.6672L15.6725 15.6672L15.9067 15.896M15.392 15.3944H15.6725C15.5995 15.3944 15.5294 15.4237 15.478 15.4762L15.6725 15.6666L15.6726 15.6667L15.6731 15.6672L15.9067 15.896M15.392 15.3944C15.2427 11.5157 13.6504 7.87466 10.8882 5.11255L16.0001 15.6599C16.0021 15.7481 15.9682 15.8331 15.9067 15.896M0.605859 0.608416C4.48433 0.757509 8.12511 2.34979 10.8882 5.11254L0.605859 0.608416ZM0.605859 0.608416V0.32782C0.605859 0.401528 0.576264 0.470782 0.525778 0.52093M0.605859 0.608416C0.513328 0.604859 0.42066 0.602123 0.327867 0.600213L0.31961 0.600043L0.311361 0.599646C0.316936 0.599914 0.32244 0.600033 0.327871 0.60001C0.414228 0.599645 0.482185 0.563412 0.524659 0.522026C0.524857 0.521833 0.525055 0.52164 0.525252 0.521447C0.525428 0.521274 0.525603 0.521102 0.525778 0.52093M0.525778 0.52093L0.525663 0.521043L0.525778 0.52093Z" stroke="#3275EE" stroke-width="1.2"/>
</svg>
