<svg width="24" height="24" viewBox="0 0 24 24" fill="none" xmlns="http://www.w3.org/2000/svg">
<path d="M21.3338 11.1279C21.9466 11.1279 22.4434 11.5176 22.4434 11.9982C22.4434 12.4789 21.9466 12.8685 21.3338 12.8685H2.66623C2.05341 12.8685 1.55662 12.4789 1.55662 11.9982C1.55662 11.5176 2.05341 11.1279 2.66623 11.1279H21.3338Z" fill="#001D3A"/>
<path d="M12.8691 21.3318C12.8691 21.9446 12.4795 22.4414 11.9989 22.4414C11.5182 22.4414 11.1286 21.9446 11.1286 21.3318L11.1286 2.66427C11.1286 2.05145 11.5182 1.55466 11.9989 1.55466C12.4795 1.55466 12.8691 2.05145 12.8691 2.66427L12.8691 21.3318Z" fill="#001D3A"/>
</svg>
