<svg width="16" height="16" viewBox="0 0 16 16" fill="none" xmlns="http://www.w3.org/2000/svg">
<path d="M9.52798 4.71085L9.52797 4.71081L8.41574 1.07355C8.41574 1.07354 8.41574 1.07353 8.41573 1.07352C8.2782 0.623928 7.71925 0.623931 7.58172 1.07353C7.58171 1.07354 7.58171 1.07354 7.58171 1.07355L6.46943 4.71082L6.46942 4.71085C6.28413 5.31663 5.74047 5.75558 5.09619 5.75558H1.49669C1.30139 5.75558 1.14474 5.88016 1.07972 6.09277C1.01426 6.30684 1.06991 6.53051 1.24902 6.66877L1.24902 6.66878L4.16108 8.91677L4.16112 8.91681C4.66295 9.30429 4.85969 9.97474 4.67559 10.5768L3.56328 14.2141C3.48726 14.4626 3.58107 14.6732 3.73258 14.7901C3.87944 14.9035 4.05998 14.9198 4.22792 14.7902L7.13994 12.5422C7.6499 12.1484 8.34766 12.1487 8.85744 12.5421L8.85749 12.5422L11.7694 14.7901C11.7694 14.7901 11.7694 14.7902 11.7694 14.7902C11.9374 14.9198 12.118 14.9035 12.2648 14.7901C12.4163 14.6732 12.5101 14.4626 12.4341 14.2141L9.52798 4.71085ZM9.52798 4.71085C9.71327 5.31662 10.2569 5.75558 10.9012 5.75558H14.5007C14.696 5.75558 14.8526 5.88016 14.9177 6.09278C14.9831 6.30685 14.9275 6.53052 14.7484 6.66878L11.8363 8.91674C11.3343 9.30419 11.1377 9.97484 11.3219 10.5768C11.3219 10.5768 11.3219 10.5768 11.3219 10.5768L12.4341 14.214L9.52798 4.71085Z" stroke="#646464"/>
</svg>
