<svg width="18" height="14" viewBox="0 0 18 14" fill="none" xmlns="http://www.w3.org/2000/svg">
<path d="M15.7252 0.408203H2.27485C1.02052 0.408203 0 1.42872 0 2.68305V11.3183C0 12.5726 1.02052 13.5931 2.27485 13.5931H15.7252C16.9795 13.5931 18 12.5726 18 11.3183V2.68305C18 1.42872 16.9795 0.408203 15.7252 0.408203ZM15.3698 1.87559L9 6.79615L2.63025 1.87559H15.3698ZM15.7252 12.1258H2.27485C1.82964 12.1258 1.46739 11.7636 1.46739 11.3184V2.83155L8.55147 8.30394C8.68353 8.40598 8.84181 8.45694 9 8.45694C9.15819 8.45694 9.31647 8.40598 9.44853 8.30394L16.5326 2.83155V11.3183C16.5326 11.7636 16.1704 12.1258 15.7252 12.1258Z" fill="#3275EE"/>
</svg>
