<svg width="224" height="48" viewBox="0 0 224 48" fill="none" xmlns="http://www.w3.org/2000/svg">
<path d="M64.8489 25.4182C63.4472 25.4182 62.2424 25.213 61.2345 24.8025C60.2266 24.3921 59.4627 23.8524 58.943 23.1835C58.4233 22.5146 58.1477 21.7925 58.1162 21.0172C58.1162 20.8804 58.1635 20.7664 58.258 20.6752C58.3524 20.584 58.4706 20.5384 58.6123 20.5384H60.7148C60.9038 20.5384 61.0455 20.5764 61.14 20.6524C61.2502 20.7132 61.3526 20.8196 61.4471 20.9716C61.6046 21.4885 61.9668 21.9218 62.5338 22.2714C63.1007 22.621 63.8724 22.7959 64.8489 22.7959C65.9671 22.7959 66.8096 22.621 67.3766 22.2714C67.9435 21.9065 68.227 21.4049 68.227 20.7664C68.227 20.3407 68.0774 19.9911 67.7782 19.7175C67.4947 19.4438 67.0616 19.2082 66.4789 19.0106C65.9119 18.8129 65.0615 18.5697 63.9276 18.2809C62.0692 17.8552 60.7069 17.2927 59.8407 16.5934C58.9903 15.8789 58.5651 14.868 58.5651 13.5606C58.5651 12.6789 58.8092 11.896 59.2974 11.2119C59.8013 10.5278 60.5179 9.98813 61.4471 9.59288C62.392 9.19763 63.4866 9 64.7308 9C66.0222 9 67.1404 9.22043 68.0853 9.66129C69.0302 10.1021 69.7468 10.657 70.235 11.3259C70.739 11.9796 71.0067 12.6333 71.0382 13.287C71.0382 13.4238 70.991 13.5378 70.8965 13.629C70.802 13.7202 70.6839 13.7658 70.5421 13.7658H68.3451C68.0144 13.7658 67.7861 13.6214 67.6601 13.3326C67.5656 12.8461 67.2506 12.4433 66.7151 12.124C66.1797 11.7896 65.5182 11.6224 64.7308 11.6224C63.8488 11.6224 63.1559 11.782 62.6519 12.1012C62.1479 12.4205 61.896 12.8841 61.896 13.4922C61.896 13.9179 62.0219 14.2675 62.2739 14.5412C62.5259 14.8148 62.9196 15.058 63.4551 15.2708C64.0063 15.4837 64.7938 15.7193 65.8174 15.9777C67.2033 16.2818 68.3058 16.6238 69.1247 17.0039C69.9594 17.3839 70.5736 17.8628 70.9673 18.4405C71.3611 19.0182 71.5579 19.7555 71.5579 20.6524C71.5579 21.6253 71.2744 22.4766 70.7075 23.2063C70.1563 23.9208 69.3688 24.4681 68.3451 24.8481C67.3372 25.2282 66.1718 25.4182 64.8489 25.4182Z" fill="#001D3A"/>
<path d="M78.2856 25.1902C78.1281 25.1902 77.9943 25.137 77.884 25.0306C77.7738 24.9242 77.7187 24.7949 77.7187 24.6429V12.0328H73.3483C73.1908 12.0328 73.057 11.9796 72.9467 11.8732C72.8365 11.7668 72.7814 11.6376 72.7814 11.4855V9.79811C72.7814 9.63089 72.8286 9.49407 72.9231 9.38765C73.0333 9.28124 73.1751 9.22803 73.3483 9.22803H85.3963C85.5695 9.22803 85.7112 9.28124 85.8215 9.38765C85.9317 9.49407 85.9868 9.63089 85.9868 9.79811V11.4855C85.9868 11.6376 85.9317 11.7668 85.8215 11.8732C85.7112 11.9796 85.5695 12.0328 85.3963 12.0328H81.0496V24.6429C81.0496 24.7949 80.9944 24.9242 80.8842 25.0306C80.7739 25.137 80.6322 25.1902 80.459 25.1902H78.2856Z" fill="#001D3A"/>
<path d="M88.9508 25.1902C88.7934 25.1902 88.6595 25.137 88.5492 25.0306C88.439 24.9242 88.3839 24.7949 88.3839 24.6429V9.79811C88.3839 9.63089 88.4311 9.49407 88.5256 9.38765C88.6359 9.28124 88.7776 9.22803 88.9508 9.22803H95.0693C96.9907 9.22803 98.4947 9.66129 99.5814 10.5278C100.684 11.3943 101.235 12.6257 101.235 14.2219C101.235 15.3317 100.952 16.2666 100.385 17.0267C99.8334 17.7716 99.0617 18.3113 98.0695 18.6457L101.518 24.4605C101.566 24.5517 101.589 24.6353 101.589 24.7113C101.589 24.8481 101.534 24.9622 101.424 25.0534C101.33 25.1446 101.219 25.1902 101.093 25.1902H98.9435C98.6916 25.1902 98.4947 25.137 98.353 25.0306C98.227 24.9242 98.1088 24.7721 97.9986 24.5745L94.9512 19.1702H91.6675V24.6429C91.6675 24.7949 91.6124 24.9242 91.5022 25.0306C91.4077 25.137 91.2738 25.1902 91.1006 25.1902H88.9508ZM94.9984 16.5934C95.9434 16.5934 96.6521 16.3882 97.1245 15.9777C97.6128 15.5673 97.8569 14.9744 97.8569 14.1991C97.8569 13.4238 97.6128 12.8233 97.1245 12.3977C96.6521 11.972 95.9434 11.7592 94.9984 11.7592H91.6675V16.5934H94.9984Z" fill="#001D3A"/>
<path d="M110.587 25.4182C108.446 25.4182 106.776 24.8938 105.579 23.8448C104.382 22.7959 103.752 21.2377 103.689 19.1702C103.674 18.7293 103.666 18.0832 103.666 17.2319C103.666 16.3654 103.674 15.7117 103.689 15.2708C103.752 13.249 104.398 11.6984 105.627 10.619C106.855 9.53967 108.509 9 110.587 9C112.666 9 114.32 9.53967 115.548 10.619C116.793 11.6984 117.446 13.249 117.509 15.2708C117.541 16.1526 117.556 16.8063 117.556 17.2319C117.556 17.6424 117.541 18.2885 117.509 19.1702C117.43 21.2377 116.793 22.7959 115.596 23.8448C114.399 24.8938 112.729 25.4182 110.587 25.4182ZM110.587 22.7959C111.643 22.7959 112.485 22.4918 113.115 21.8837C113.745 21.2605 114.084 20.3179 114.131 19.0562C114.162 18.144 114.178 17.5284 114.178 17.2091C114.178 16.8595 114.162 16.2438 114.131 15.3621C114.084 14.1003 113.745 13.1654 113.115 12.5573C112.485 11.934 111.643 11.6224 110.587 11.6224C109.548 11.6224 108.713 11.934 108.083 12.5573C107.453 13.1654 107.115 14.1003 107.068 15.3621C107.052 15.8029 107.044 16.4186 107.044 17.2091C107.044 17.9844 107.052 18.6001 107.068 19.0562C107.115 20.3179 107.446 21.2605 108.06 21.8837C108.69 22.4918 109.532 22.7959 110.587 22.7959Z" fill="#001D3A"/>
<path d="M121.225 25.1902C121.068 25.1902 120.934 25.137 120.824 25.0306C120.714 24.9242 120.658 24.7949 120.658 24.6429V9.7753C120.658 9.60808 120.714 9.47887 120.824 9.38765C120.934 9.28124 121.068 9.22803 121.225 9.22803H123.446C123.619 9.22803 123.753 9.28124 123.848 9.38765C123.958 9.47887 124.013 9.60808 124.013 9.7753V24.6429C124.013 24.7949 123.958 24.9242 123.848 25.0306C123.753 25.137 123.619 25.1902 123.446 25.1902H121.225Z" fill="#001D3A"/>
<path d="M128.308 25.1902C128.135 25.1902 127.993 25.1446 127.883 25.0534C127.773 24.947 127.718 24.8101 127.718 24.6429V9.79811C127.718 9.63089 127.773 9.49407 127.883 9.38765C127.993 9.28124 128.135 9.22803 128.308 9.22803H130.175C130.505 9.22803 130.742 9.37245 130.883 9.66129L135.443 17.8704L140.049 9.66129C140.207 9.37245 140.443 9.22803 140.758 9.22803H142.601C142.774 9.22803 142.915 9.28124 143.026 9.38765C143.136 9.49407 143.191 9.63089 143.191 9.79811V24.6429C143.191 24.8101 143.136 24.947 143.026 25.0534C142.915 25.1446 142.774 25.1902 142.601 25.1902H140.616C140.459 25.1902 140.325 25.137 140.215 25.0306C140.104 24.9242 140.049 24.7949 140.049 24.6429V14.7692L136.742 20.8576C136.537 21.1921 136.269 21.3593 135.939 21.3593H134.97C134.639 21.3593 134.372 21.1921 134.167 20.8576L130.86 14.7692V24.6429C130.86 24.7949 130.805 24.9242 130.694 25.0306C130.6 25.137 130.466 25.1902 130.293 25.1902H128.308Z" fill="#001D3A"/>
<path d="M151.567 25.1902C151.409 25.1902 151.275 25.137 151.165 25.0306C151.055 24.9242 151 24.7949 151 24.6429V12.8309L147.409 15.4989C147.314 15.5749 147.204 15.6129 147.078 15.6129C146.889 15.6129 146.732 15.5293 146.606 15.3621L145.614 14.1307C145.535 14.0091 145.495 13.8951 145.495 13.7887C145.495 13.6062 145.582 13.4542 145.755 13.3326L151.047 9.38765C151.189 9.28124 151.386 9.22803 151.638 9.22803H153.716C153.89 9.22803 154.024 9.28124 154.118 9.38765C154.228 9.47887 154.283 9.60808 154.283 9.7753V24.6429C154.283 24.7949 154.228 24.9242 154.118 25.0306C154.024 25.137 153.89 25.1902 153.716 25.1902H151.567Z" fill="#001D3A"/>
<path d="M163.707 25.4182C161.612 25.4182 160.045 24.8558 159.006 23.7308C157.982 22.6058 157.423 21.1312 157.328 19.307C157.312 18.8965 157.305 18.1972 157.305 17.2091C157.305 16.2058 157.312 15.4913 157.328 15.0656C157.407 13.2718 157.974 11.8124 159.029 10.6874C160.084 9.56248 161.643 9 163.707 9C165.785 9 167.352 9.56248 168.408 10.6874C169.463 11.8124 170.022 13.2718 170.085 15.0656C170.116 15.4913 170.132 16.2058 170.132 17.2091C170.132 18.1972 170.116 18.8965 170.085 19.307C170.006 21.1312 169.447 22.6058 168.408 23.7308C167.384 24.8558 165.817 25.4182 163.707 25.4182ZM163.707 22.7959C164.699 22.7959 165.439 22.4842 165.927 21.8609C166.415 21.2225 166.675 20.3331 166.707 19.193C166.738 18.3113 166.754 17.6424 166.754 17.1863C166.754 16.6846 166.738 16.0234 166.707 15.2024C166.675 14.0775 166.415 13.1958 165.927 12.5573C165.439 11.9188 164.699 11.5996 163.707 11.5996C162.73 11.5996 161.99 11.9188 161.486 12.5573C160.998 13.1958 160.738 14.0775 160.706 15.2024C160.691 15.6129 160.683 16.2742 160.683 17.1863C160.683 18.0832 160.691 18.7521 160.706 19.193C160.738 20.3331 160.998 21.2225 161.486 21.8609C161.99 22.4842 162.73 22.7959 163.707 22.7959Z" fill="#001D3A"/>
<path d="M179.232 25.4182C177.138 25.4182 175.571 24.8558 174.531 23.7308C173.508 22.6058 172.949 21.1312 172.854 19.307C172.838 18.8965 172.831 18.1972 172.831 17.2091C172.831 16.2058 172.838 15.4913 172.854 15.0656C172.933 13.2718 173.5 11.8124 174.555 10.6874C175.61 9.56248 177.169 9 179.232 9C181.311 9 182.878 9.56248 183.934 10.6874C184.989 11.8124 185.548 13.2718 185.611 15.0656C185.642 15.4913 185.658 16.2058 185.658 17.2091C185.658 18.1972 185.642 18.8965 185.611 19.307C185.532 21.1312 184.973 22.6058 183.934 23.7308C182.91 24.8558 181.343 25.4182 179.232 25.4182ZM179.232 22.7959C180.225 22.7959 180.965 22.4842 181.453 21.8609C181.941 21.2225 182.201 20.3331 182.233 19.193C182.264 18.3113 182.28 17.6424 182.28 17.1863C182.28 16.6846 182.264 16.0234 182.233 15.2024C182.201 14.0775 181.941 13.1958 181.453 12.5573C180.965 11.9188 180.225 11.5996 179.232 11.5996C178.256 11.5996 177.516 11.9188 177.012 12.5573C176.524 13.1958 176.264 14.0775 176.232 15.2024C176.217 15.6129 176.209 16.2742 176.209 17.1863C176.209 18.0832 176.217 18.7521 176.232 19.193C176.264 20.3331 176.524 21.2225 177.012 21.8609C177.516 22.4842 178.256 22.7959 179.232 22.7959Z" fill="#001D3A"/>
<path d="M188.741 25.1902C188.583 25.1902 188.449 25.137 188.339 25.0306C188.229 24.9242 188.174 24.7949 188.174 24.6429V22.3854C188.174 22.2334 188.229 22.1042 188.339 21.9978C188.449 21.8761 188.583 21.8153 188.741 21.8153H191.103C191.26 21.8153 191.394 21.8761 191.504 21.9978C191.615 22.1042 191.67 22.2334 191.67 22.3854V24.6429C191.67 24.7949 191.615 24.9242 191.504 25.0306C191.394 25.137 191.26 25.1902 191.103 25.1902H188.741Z" fill="#001D3A"/>
<path d="M195.372 25.1902C195.214 25.1902 195.08 25.137 194.97 25.0306C194.86 24.9242 194.805 24.7949 194.805 24.6429V9.79811C194.805 9.63089 194.852 9.49407 194.946 9.38765C195.057 9.28124 195.198 9.22803 195.372 9.22803H201.49C203.411 9.22803 204.915 9.66129 206.002 10.5278C207.104 11.3943 207.656 12.6257 207.656 14.2219C207.656 15.3317 207.372 16.2666 206.805 17.0267C206.254 17.7716 205.482 18.3113 204.49 18.6457L207.939 24.4605C207.986 24.5517 208.01 24.6353 208.01 24.7113C208.01 24.8481 207.955 24.9622 207.845 25.0534C207.75 25.1446 207.64 25.1902 207.514 25.1902H205.364C205.112 25.1902 204.915 25.137 204.774 25.0306C204.648 24.9242 204.53 24.7721 204.419 24.5745L201.372 19.1702H198.088V24.6429C198.088 24.7949 198.033 24.9242 197.923 25.0306C197.828 25.137 197.694 25.1902 197.521 25.1902H195.372ZM201.419 16.5934C202.364 16.5934 203.073 16.3882 203.545 15.9777C204.033 15.5673 204.278 14.9744 204.278 14.1991C204.278 13.4238 204.033 12.8233 203.545 12.3977C203.073 11.972 202.364 11.7592 201.419 11.7592H198.088V16.5934H201.419Z" fill="#001D3A"/>
<path d="M217.291 25.4182C215.164 25.4182 213.511 24.8938 212.33 23.8448C211.148 22.7959 210.558 21.2073 210.558 19.079V9.79811C210.558 9.63089 210.605 9.49407 210.7 9.38765C210.81 9.28124 210.952 9.22803 211.125 9.22803H213.275C213.448 9.22803 213.582 9.28124 213.676 9.38765C213.786 9.49407 213.842 9.63089 213.842 9.79811V19.079C213.842 20.2951 214.141 21.2149 214.739 21.8381C215.338 22.4462 216.188 22.7503 217.291 22.7503C218.393 22.7503 219.236 22.4462 219.818 21.8381C220.417 21.2149 220.716 20.2951 220.716 19.079V9.79811C220.716 9.63089 220.771 9.49407 220.881 9.38765C220.992 9.28124 221.133 9.22803 221.307 9.22803H223.433C223.606 9.22803 223.74 9.28124 223.834 9.38765C223.944 9.49407 224 9.63089 224 9.79811V19.079C224 21.2073 223.409 22.7959 222.228 23.8448C221.062 24.8938 219.417 25.4182 217.291 25.4182Z" fill="#001D3A"/>
<path d="M60.8693 39.042C60.0445 39.042 59.3869 38.8103 58.8964 38.347C58.4134 37.8764 58.1571 37.2177 58.1274 36.3706L58.1162 36.0992L58.1274 35.8277C58.1645 35.0024 58.4246 34.3544 58.9076 33.8839C59.398 33.4133 60.0519 33.178 60.8693 33.178C61.7461 33.178 62.4223 33.4386 62.8979 33.9599C63.3809 34.4811 63.6224 35.1761 63.6224 36.0449V36.2729C63.6224 36.3453 63.5964 36.4068 63.5444 36.4575C63.4924 36.5082 63.4255 36.5335 63.3437 36.5335H59.6432V36.6204C59.6581 37.0186 59.7696 37.3552 59.9776 37.6303C60.1931 37.8982 60.4866 38.0321 60.8582 38.0321C61.2966 38.0321 61.6495 37.8656 61.917 37.5326C61.9839 37.4529 62.0359 37.4023 62.0731 37.3805C62.1177 37.3588 62.1808 37.348 62.2626 37.348H63.2211C63.288 37.348 63.3437 37.3697 63.3883 37.4131C63.4403 37.4493 63.4664 37.4964 63.4664 37.5543C63.4664 37.728 63.3586 37.9344 63.1431 38.1733C62.9351 38.4049 62.6341 38.6076 62.2403 38.7814C61.8464 38.9551 61.3895 39.042 60.8693 39.042ZM62.1065 35.6213V35.5888C62.1065 35.1616 61.9951 34.8178 61.7721 34.5571C61.5566 34.2965 61.2557 34.1662 60.8693 34.1662C60.4829 34.1662 60.182 34.2965 59.9665 34.5571C59.751 34.8178 59.6432 35.1616 59.6432 35.5888V35.6213H62.1065Z" fill="url(#paint0_linear)"/>
<path d="M64.5826 40.1279C64.5083 40.1279 64.4451 40.1026 64.3931 40.0519C64.3411 40.0085 64.3151 39.9469 64.3151 39.8673V38.043C64.3151 37.9706 64.3411 37.909 64.3931 37.8583C64.4451 37.8077 64.5083 37.7823 64.5826 37.7823H64.6718C64.9616 37.7823 65.1734 37.5579 65.3071 37.1091C65.4409 36.6602 65.5077 35.9616 65.5077 35.0132V33.5472C65.5077 33.4676 65.5338 33.4061 65.5858 33.3626C65.6378 33.3119 65.7009 33.2866 65.7753 33.2866H69.7433C69.825 33.2866 69.8882 33.3119 69.9328 33.3626C69.9848 33.4061 70.0108 33.4676 70.0108 33.5472V37.7715H70.5124C70.5941 37.7715 70.6573 37.7968 70.7018 37.8475C70.7539 37.8909 70.7799 37.9525 70.7799 38.0321V39.8673C70.7799 39.9469 70.7539 40.0085 70.7018 40.0519C70.6573 40.1026 70.5941 40.1279 70.5124 40.1279H69.5984C69.5166 40.1279 69.4498 40.1026 69.3977 40.0519C69.3457 40.0012 69.3197 39.9397 69.3197 39.8673V38.9334H65.7753V39.8673C65.7753 39.9469 65.7492 40.0085 65.6972 40.0519C65.6526 40.1026 65.5895 40.1279 65.5077 40.1279H64.5826ZM68.5618 37.7715V34.4377H66.9122V35.1653C66.9122 36.4104 66.7375 37.2828 66.3883 37.7823L68.5618 37.7715Z" fill="url(#paint1_linear)"/>
<path d="M77.0878 33.2866C77.1547 33.2866 77.2141 33.3119 77.2661 33.3626C77.3181 33.4061 77.3441 33.4604 77.3441 33.5255V38.6728C77.3441 38.7452 77.3181 38.8067 77.2661 38.8574C77.2141 38.9081 77.1509 38.9334 77.0766 38.9334H76.1515C76.0772 38.9334 76.014 38.9081 75.962 38.8574C75.91 38.8067 75.884 38.7452 75.884 38.6728V35.187L73.2089 38.7597C73.1421 38.8755 73.0417 38.9334 72.908 38.9334H72.0609C71.994 38.9334 71.9346 38.9117 71.8825 38.8683C71.8305 38.8176 71.8045 38.756 71.8045 38.6837V33.5472C71.8045 33.4748 71.8305 33.4133 71.8825 33.3626C71.9346 33.3119 71.9977 33.2866 72.072 33.2866H72.9972C73.0789 33.2866 73.1421 33.3119 73.1866 33.3626C73.2387 33.4061 73.2647 33.4676 73.2647 33.5472V37.0439L75.9397 33.4604C76.0215 33.3445 76.1218 33.2866 76.2407 33.2866H77.0878Z" fill="url(#paint2_linear)"/>
<path d="M79.0166 38.9334C78.9423 38.9334 78.8791 38.9081 78.8271 38.8574C78.7751 38.8067 78.7491 38.7452 78.7491 38.6728V33.5472C78.7491 33.4748 78.7751 33.4133 78.8271 33.3626C78.8791 33.3119 78.9423 33.2866 79.0166 33.2866H79.9417C80.0235 33.2866 80.0866 33.3119 80.1312 33.3626C80.1832 33.4061 80.2092 33.4676 80.2092 33.5472V35.491H82.7282V33.5472C82.7282 33.4676 82.7543 33.4061 82.8063 33.3626C82.8583 33.3119 82.9214 33.2866 82.9958 33.2866H83.9209C84.0026 33.2866 84.0658 33.3119 84.1104 33.3626C84.1624 33.4061 84.1884 33.4676 84.1884 33.5472V38.6728C84.1884 38.7452 84.1624 38.8067 84.1104 38.8574C84.0658 38.9081 84.0026 38.9334 83.9209 38.9334H82.9958C82.9214 38.9334 82.8583 38.9081 82.8063 38.8574C82.7543 38.8067 82.7282 38.7452 82.7282 38.6728V36.6313H80.2092V38.6728C80.2092 38.7452 80.1832 38.8067 80.1312 38.8574C80.0866 38.9081 80.0235 38.9334 79.9417 38.9334H79.0166Z" fill="url(#paint3_linear)"/>
<path d="M85.9611 38.9334C85.8868 38.9334 85.8237 38.9081 85.7717 38.8574C85.7196 38.8067 85.6936 38.7452 85.6936 38.6728V33.5472C85.6936 33.4748 85.7196 33.4133 85.7717 33.3626C85.8237 33.3119 85.8868 33.2866 85.9611 33.2866H86.8974C86.9717 33.2866 87.0349 33.3119 87.0869 33.3626C87.1389 33.4133 87.1649 33.4748 87.1649 33.5472V35.0784H88.2461C88.9892 35.0784 89.5539 35.2521 89.9403 35.5996C90.3267 35.9399 90.5199 36.4177 90.5199 37.033C90.5199 37.6629 90.3193 38.1371 89.918 38.4556C89.5168 38.7741 88.9297 38.9334 88.1569 38.9334H85.9611ZM91.5231 38.9334C91.4488 38.9334 91.3856 38.9081 91.3336 38.8574C91.2816 38.8067 91.2556 38.7452 91.2556 38.6728V33.5472C91.2556 33.4748 91.2816 33.4133 91.3336 33.3626C91.3856 33.3119 91.4488 33.2866 91.5231 33.2866H92.4482C92.5299 33.2866 92.5931 33.3119 92.6377 33.3626C92.6897 33.4061 92.7157 33.4676 92.7157 33.5472V38.6728C92.7157 38.7452 92.6897 38.8067 92.6377 38.8574C92.5931 38.9081 92.5299 38.9334 92.4482 38.9334H91.5231ZM88.1235 37.9018C88.495 37.9018 88.7663 37.8366 88.9372 37.7063C89.1081 37.5688 89.1935 37.3443 89.1935 37.033C89.1935 36.7217 89.1081 36.4901 88.9372 36.3381C88.7663 36.186 88.495 36.11 88.1235 36.11H87.1426V37.9018H88.1235Z" fill="url(#paint4_linear)"/>
<path d="M99.4998 33.2866C99.5667 33.2866 99.6261 33.3119 99.6781 33.3626C99.7301 33.4061 99.7561 33.4604 99.7561 33.5255V38.6728C99.7561 38.7452 99.7301 38.8067 99.6781 38.8574C99.6261 38.9081 99.5629 38.9334 99.4886 38.9334H98.5635C98.4892 38.9334 98.426 38.9081 98.374 38.8574C98.322 38.8067 98.296 38.7452 98.296 38.6728V35.187L95.6209 38.7597C95.554 38.8755 95.4537 38.9334 95.32 38.9334H94.4729C94.406 38.9334 94.3465 38.9117 94.2945 38.8683C94.2425 38.8176 94.2165 38.756 94.2165 38.6837V33.5472C94.2165 33.4748 94.2425 33.4133 94.2945 33.3626C94.3465 33.3119 94.4097 33.2866 94.484 33.2866H95.4091C95.4909 33.2866 95.554 33.3119 95.5986 33.3626C95.6506 33.4061 95.6767 33.4676 95.6767 33.5472V37.0439L98.3517 33.4604C98.4335 33.3445 98.5338 33.2866 98.6527 33.2866H99.4998ZM97.0476 32.5482C96.416 32.5482 95.9553 32.4143 95.6655 32.1464C95.3757 31.8713 95.2308 31.5202 95.2308 31.093C95.2308 31.0351 95.2494 30.9881 95.2865 30.9519C95.3237 30.9084 95.3757 30.8867 95.4426 30.8867H96.0779C96.1448 30.8867 96.1968 30.9084 96.234 30.9519C96.2711 30.9881 96.2897 31.0351 96.2897 31.093C96.2897 31.5057 96.5423 31.712 97.0476 31.712C97.5529 31.712 97.8056 31.5057 97.8056 31.093C97.8056 31.0351 97.8241 30.9881 97.8613 30.9519C97.8984 30.9084 97.9505 30.8867 98.0173 30.8867H98.6638C98.7307 30.8867 98.7827 30.9084 98.8199 30.9519C98.857 30.9881 98.8756 31.0351 98.8756 31.093C98.8756 31.5202 98.727 31.8713 98.4297 32.1464C98.1399 32.4143 97.6792 32.5482 97.0476 32.5482Z" fill="url(#paint5_linear)"/>
<path d="M106.216 39.042C105.399 39.042 104.745 38.8212 104.254 38.3796C103.771 37.938 103.515 37.3262 103.485 36.5444L103.474 36.11L103.485 35.6756C103.515 34.8938 103.771 34.282 104.254 33.8404C104.745 33.3988 105.399 33.178 106.216 33.178C106.796 33.178 107.286 33.2794 107.687 33.4821C108.096 33.6848 108.397 33.9345 108.59 34.2314C108.791 34.5209 108.899 34.796 108.913 35.0567C108.921 35.1291 108.895 35.1906 108.835 35.2413C108.783 35.2919 108.72 35.3173 108.646 35.3173H107.665C107.591 35.3173 107.531 35.3028 107.487 35.2739C107.45 35.2377 107.412 35.1797 107.375 35.1001C107.264 34.8178 107.115 34.6151 106.929 34.492C106.751 34.3689 106.521 34.3074 106.238 34.3074C105.859 34.3074 105.562 34.4268 105.347 34.6657C105.131 34.8974 105.016 35.2521 105.001 35.7299L104.99 36.1317L105.001 36.4901C105.031 37.4385 105.443 37.9126 106.238 37.9126C106.528 37.9126 106.762 37.8511 106.941 37.728C107.119 37.605 107.264 37.4023 107.375 37.1199C107.412 37.0403 107.45 36.986 107.487 36.957C107.531 36.9208 107.591 36.9027 107.665 36.9027H108.646C108.72 36.9027 108.783 36.9281 108.835 36.9788C108.895 37.0294 108.921 37.091 108.913 37.1634C108.899 37.4167 108.794 37.6882 108.601 37.9778C108.408 38.2674 108.111 38.5171 107.71 38.7271C107.308 38.937 106.81 39.042 106.216 39.042Z" fill="url(#paint6_linear)"/>
<path d="M111.848 38.9334C111.774 38.9334 111.711 38.9081 111.659 38.8574C111.607 38.8067 111.581 38.7452 111.581 38.6728V34.4377H109.764C109.689 34.4377 109.626 34.4124 109.574 34.3617C109.522 34.311 109.496 34.2458 109.496 34.1662V33.5472C109.496 33.4676 109.522 33.4061 109.574 33.3626C109.626 33.3119 109.689 33.2866 109.764 33.2866H114.824C114.906 33.2866 114.973 33.3119 115.025 33.3626C115.077 33.4133 115.103 33.4748 115.103 33.5472V34.1662C115.103 34.2386 115.077 34.3038 115.025 34.3617C114.973 34.4124 114.906 34.4377 114.824 34.4377H113.018V38.6728C113.018 38.7452 112.992 38.8067 112.94 38.8574C112.896 38.9081 112.833 38.9334 112.751 38.9334H111.848Z" fill="url(#paint7_linear)"/>
<path d="M116.265 40.9967C116.191 40.9967 116.127 40.9713 116.075 40.9207C116.023 40.8772 115.997 40.8157 115.997 40.736V33.5472C115.997 33.4676 116.023 33.4061 116.075 33.3626C116.127 33.3119 116.191 33.2866 116.265 33.2866H117.145C117.227 33.2866 117.29 33.3119 117.335 33.3626C117.387 33.4061 117.413 33.4676 117.413 33.5472V33.9816C117.829 33.4459 118.424 33.178 119.196 33.178C119.947 33.178 120.523 33.4097 120.924 33.873C121.325 34.3291 121.541 34.9481 121.57 35.7299C121.578 35.8168 121.582 35.9435 121.582 36.11C121.582 36.2838 121.578 36.4141 121.57 36.5009C121.541 37.2611 121.325 37.8764 120.924 38.347C120.523 38.8103 119.947 39.042 119.196 39.042C118.446 39.042 117.874 38.785 117.48 38.271V40.736C117.48 40.8157 117.454 40.8772 117.402 40.9207C117.357 40.9713 117.294 40.9967 117.212 40.9967H116.265ZM118.784 37.8801C119.586 37.8801 120.014 37.3986 120.066 36.4358C120.073 36.3634 120.077 36.2548 120.077 36.11C120.077 35.9652 120.073 35.8566 120.066 35.7842C120.014 34.8214 119.586 34.34 118.784 34.34C118.353 34.34 118.033 34.4739 117.825 34.7417C117.617 35.0096 117.502 35.339 117.48 35.7299L117.469 36.1426L117.48 36.5661C117.495 36.9281 117.61 37.2394 117.825 37.5C118.048 37.7534 118.368 37.8801 118.784 37.8801Z" fill="url(#paint8_linear)"/>
<path d="M125.396 39.042C124.527 39.042 123.855 38.8248 123.379 38.3905C122.903 37.9488 122.647 37.348 122.61 36.5878L122.599 36.11L122.61 35.6322C122.647 34.8793 122.907 34.282 123.39 33.8404C123.873 33.3988 124.542 33.178 125.396 33.178C126.251 33.178 126.92 33.3988 127.403 33.8404C127.886 34.282 128.146 34.8793 128.183 35.6322C128.19 35.7191 128.194 35.8783 128.194 36.11C128.194 36.3417 128.19 36.5009 128.183 36.5878C128.146 37.348 127.89 37.9488 127.414 38.3905C126.938 38.8248 126.266 39.042 125.396 39.042ZM125.396 37.9669C125.79 37.9669 126.095 37.8475 126.31 37.6086C126.526 37.3624 126.645 37.0041 126.667 36.5335C126.675 36.4611 126.678 36.32 126.678 36.11C126.678 35.9001 126.675 35.7589 126.667 35.6865C126.645 35.2159 126.526 34.8612 126.31 34.6223C126.095 34.3762 125.79 34.2531 125.396 34.2531C125.003 34.2531 124.698 34.3762 124.483 34.6223C124.267 34.8612 124.148 35.2159 124.126 35.6865L124.115 36.11L124.126 36.5335C124.148 37.0041 124.267 37.3624 124.483 37.6086C124.698 37.8475 125.003 37.9669 125.396 37.9669Z" fill="url(#paint9_linear)"/>
<path d="M134.712 33.2866C134.779 33.2866 134.839 33.3119 134.891 33.3626C134.943 33.4061 134.969 33.4604 134.969 33.5255V38.6728C134.969 38.7452 134.943 38.8067 134.891 38.8574C134.839 38.9081 134.776 38.9334 134.701 38.9334H133.776C133.702 38.9334 133.639 38.9081 133.587 38.8574C133.535 38.8067 133.509 38.7452 133.509 38.6728V35.187L130.834 38.7597C130.767 38.8755 130.666 38.9334 130.533 38.9334H129.685C129.619 38.9334 129.559 38.9117 129.507 38.8683C129.455 38.8176 129.429 38.756 129.429 38.6837V33.5472C129.429 33.4748 129.455 33.4133 129.507 33.3626C129.559 33.3119 129.622 33.2866 129.697 33.2866H130.622C130.703 33.2866 130.767 33.3119 130.811 33.3626C130.863 33.4061 130.889 33.4676 130.889 33.5472V37.0439L133.564 33.4604C133.646 33.3445 133.746 33.2866 133.865 33.2866H134.712Z" fill="url(#paint10_linear)"/>
<path d="M138.146 38.9334C138.072 38.9334 138.008 38.9081 137.956 38.8574C137.904 38.8067 137.878 38.7452 137.878 38.6728V34.4377H136.062C135.987 34.4377 135.924 34.4124 135.872 34.3617C135.82 34.311 135.794 34.2458 135.794 34.1662V33.5472C135.794 33.4676 135.82 33.4061 135.872 33.3626C135.924 33.3119 135.987 33.2866 136.062 33.2866H141.122C141.204 33.2866 141.271 33.3119 141.323 33.3626C141.375 33.4133 141.401 33.4748 141.401 33.5472V34.1662C141.401 34.2386 141.375 34.3038 141.323 34.3617C141.271 34.4124 141.204 34.4377 141.122 34.4377H139.316V38.6728C139.316 38.7452 139.29 38.8067 139.238 38.8574C139.194 38.9081 139.13 38.9334 139.049 38.9334H138.146Z" fill="url(#paint11_linear)"/>
<path d="M144.781 39.042C143.956 39.042 143.298 38.8103 142.808 38.347C142.325 37.8764 142.069 37.2177 142.039 36.3706L142.028 36.0992L142.039 35.8277C142.076 35.0024 142.336 34.3544 142.819 33.8839C143.31 33.4133 143.964 33.178 144.781 33.178C145.658 33.178 146.334 33.4386 146.81 33.9599C147.293 34.4811 147.534 35.1761 147.534 36.0449V36.2729C147.534 36.3453 147.508 36.4068 147.456 36.4575C147.404 36.5082 147.337 36.5335 147.255 36.5335H143.555V36.6204C143.57 37.0186 143.681 37.3552 143.889 37.6303C144.105 37.8982 144.398 38.0321 144.77 38.0321C145.208 38.0321 145.561 37.8656 145.829 37.5326C145.896 37.4529 145.948 37.4023 145.985 37.3805C146.029 37.3588 146.092 37.348 146.174 37.348H147.133C147.2 37.348 147.255 37.3697 147.3 37.4131C147.352 37.4493 147.378 37.4964 147.378 37.5543C147.378 37.728 147.27 37.9344 147.055 38.1733C146.847 38.4049 146.546 38.6076 146.152 38.7814C145.758 38.9551 145.301 39.042 144.781 39.042ZM146.018 35.6213V35.5888C146.018 35.1616 145.907 34.8178 145.684 34.5571C145.468 34.2965 145.167 34.1662 144.781 34.1662C144.395 34.1662 144.094 34.2965 143.878 34.5571C143.663 34.8178 143.555 35.1616 143.555 35.5888V35.6213H146.018Z" fill="url(#paint12_linear)"/>
<path d="M148.484 38.9334C148.41 38.9334 148.343 38.9081 148.284 38.8574C148.232 38.7995 148.206 38.7343 148.206 38.6619V37.9887C148.206 37.9163 148.228 37.8583 148.273 37.8149C148.317 37.7642 148.38 37.7353 148.462 37.728C148.789 37.7136 149.023 37.4964 149.164 37.0765C149.313 36.6494 149.387 35.9616 149.387 35.0132V33.5472C149.387 33.4676 149.413 33.4061 149.465 33.3626C149.517 33.3119 149.58 33.2866 149.655 33.2866H153.612C153.686 33.2866 153.749 33.3119 153.801 33.3626C153.853 33.4133 153.879 33.4748 153.879 33.5472V38.6728C153.879 38.7452 153.853 38.8067 153.801 38.8574C153.749 38.9081 153.686 38.9334 153.612 38.9334H152.686C152.612 38.9334 152.549 38.9081 152.497 38.8574C152.445 38.8067 152.419 38.7452 152.419 38.6728V34.4377H150.78V35.1653C150.78 36.1064 150.706 36.8484 150.558 37.3914C150.416 37.9344 150.179 38.3289 149.844 38.5751C149.517 38.814 149.064 38.9334 148.484 38.9334Z" fill="url(#paint13_linear)"/>
<path d="M155.646 38.9334C155.572 38.9334 155.509 38.9081 155.457 38.8574C155.405 38.8067 155.379 38.7452 155.379 38.6728V33.5472C155.379 33.4748 155.405 33.4133 155.457 33.3626C155.509 33.3119 155.572 33.2866 155.646 33.2866H156.582C156.657 33.2866 156.72 33.3119 156.772 33.3626C156.824 33.4133 156.85 33.4748 156.85 33.5472V35.0784H157.998C158.741 35.0784 159.306 35.2521 159.692 35.5996C160.079 35.9399 160.272 36.4177 160.272 37.033C160.272 37.6629 160.071 38.1371 159.67 38.4556C159.269 38.7741 158.682 38.9334 157.909 38.9334H155.646ZM157.875 37.9018C158.247 37.9018 158.518 37.8366 158.689 37.7063C158.86 37.5688 158.945 37.3443 158.945 37.033C158.945 36.7217 158.86 36.4901 158.689 36.3381C158.518 36.186 158.247 36.11 157.875 36.11H156.828V37.9018H157.875Z" fill="url(#paint14_linear)"/>
<path d="M161.557 38.9334C161.482 38.9334 161.419 38.9081 161.367 38.8574C161.315 38.8067 161.289 38.7452 161.289 38.6728V33.5472C161.289 33.4748 161.315 33.4133 161.367 33.3626C161.419 33.3119 161.482 33.2866 161.557 33.2866H162.482C162.564 33.2866 162.627 33.3119 162.671 33.3626C162.723 33.4061 162.749 33.4676 162.749 33.5472V35.491H165.268V33.5472C165.268 33.4676 165.294 33.4061 165.346 33.3626C165.398 33.3119 165.462 33.2866 165.536 33.2866H166.461C166.543 33.2866 166.606 33.3119 166.65 33.3626C166.702 33.4061 166.729 33.4676 166.729 33.5472V38.6728C166.729 38.7452 166.702 38.8067 166.65 38.8574C166.606 38.9081 166.543 38.9334 166.461 38.9334H165.536C165.462 38.9334 165.398 38.9081 165.346 38.8574C165.294 38.8067 165.268 38.7452 165.268 38.6728V36.6313H162.749V38.6728C162.749 38.7452 162.723 38.8067 162.671 38.8574C162.627 38.9081 162.564 38.9334 162.482 38.9334H161.557Z" fill="url(#paint15_linear)"/>
<path d="M168.501 38.9334C168.427 38.9334 168.364 38.9081 168.312 38.8574C168.26 38.8067 168.234 38.7452 168.234 38.6728V33.5472C168.234 33.4748 168.26 33.4133 168.312 33.3626C168.364 33.3119 168.427 33.2866 168.501 33.2866H169.438C169.512 33.2866 169.575 33.3119 169.627 33.3626C169.679 33.4133 169.705 33.4748 169.705 33.5472V35.0784H170.786C171.529 35.0784 172.094 35.2521 172.48 35.5996C172.867 35.9399 173.06 36.4177 173.06 37.033C173.06 37.6629 172.859 38.1371 172.458 38.4556C172.057 38.7741 171.47 38.9334 170.697 38.9334H168.501ZM174.063 38.9334C173.989 38.9334 173.926 38.9081 173.874 38.8574C173.822 38.8067 173.796 38.7452 173.796 38.6728V33.5472C173.796 33.4748 173.822 33.4133 173.874 33.3626C173.926 33.3119 173.989 33.2866 174.063 33.2866H174.988C175.07 33.2866 175.133 33.3119 175.178 33.3626C175.23 33.4061 175.256 33.4676 175.256 33.5472V38.6728C175.256 38.7452 175.23 38.8067 175.178 38.8574C175.133 38.9081 175.07 38.9334 174.988 38.9334H174.063ZM170.664 37.9018C171.035 37.9018 171.306 37.8366 171.477 37.7063C171.648 37.5688 171.734 37.3443 171.734 37.033C171.734 36.7217 171.648 36.4901 171.477 36.3381C171.306 36.186 171.035 36.11 170.664 36.11H169.683V37.9018H170.664Z" fill="url(#paint16_linear)"/>
<path d="M182.04 33.2866C182.107 33.2866 182.166 33.3119 182.218 33.3626C182.27 33.4061 182.296 33.4604 182.296 33.5255V38.6728C182.296 38.7452 182.27 38.8067 182.218 38.8574C182.166 38.9081 182.103 38.9334 182.029 38.9334H181.104C181.029 38.9334 180.966 38.9081 180.914 38.8574C180.862 38.8067 180.836 38.7452 180.836 38.6728V35.187L178.161 38.7597C178.094 38.8755 177.994 38.9334 177.86 38.9334H177.013C176.946 38.9334 176.887 38.9117 176.835 38.8683C176.783 38.8176 176.757 38.756 176.757 38.6837V33.5472C176.757 33.4748 176.783 33.4133 176.835 33.3626C176.887 33.3119 176.95 33.2866 177.024 33.2866H177.949C178.031 33.2866 178.094 33.3119 178.139 33.3626C178.191 33.4061 178.217 33.4676 178.217 33.5472V37.0439L180.892 33.4604C180.974 33.3445 181.074 33.2866 181.193 33.2866H182.04ZM179.588 32.5482C178.956 32.5482 178.495 32.4143 178.206 32.1464C177.916 31.8713 177.771 31.5202 177.771 31.093C177.771 31.0351 177.789 30.9881 177.827 30.9519C177.864 30.9084 177.916 30.8867 177.983 30.8867H178.618C178.685 30.8867 178.737 30.9084 178.774 30.9519C178.811 30.9881 178.83 31.0351 178.83 31.093C178.83 31.5057 179.082 31.712 179.588 31.712C180.093 31.712 180.346 31.5057 180.346 31.093C180.346 31.0351 180.364 30.9881 180.401 30.9519C180.439 30.9084 180.491 30.8867 180.557 30.8867H181.204C181.271 30.8867 181.323 30.9084 181.36 30.9519C181.397 30.9881 181.416 31.0351 181.416 31.093C181.416 31.5202 181.267 31.8713 180.97 32.1464C180.68 32.4143 180.219 32.5482 179.588 32.5482Z" fill="url(#paint17_linear)"/>
<path d="M186.516 38.9334C186.441 38.9334 186.378 38.9081 186.326 38.8574C186.274 38.8067 186.248 38.7452 186.248 38.6728V33.5472C186.248 33.4748 186.274 33.4133 186.326 33.3626C186.378 33.3119 186.441 33.2866 186.516 33.2866H191.286C191.368 33.2866 191.431 33.3119 191.476 33.3626C191.528 33.4061 191.554 33.4676 191.554 33.5472V38.6728C191.554 38.7452 191.528 38.8067 191.476 38.8574C191.431 38.9081 191.368 38.9334 191.286 38.9334H190.361C190.287 38.9334 190.224 38.9081 190.172 38.8574C190.12 38.8067 190.094 38.7452 190.094 38.6728V34.4377H187.708V38.6728C187.708 38.7452 187.682 38.8067 187.63 38.8574C187.586 38.9081 187.523 38.9334 187.441 38.9334H186.516Z" fill="url(#paint18_linear)"/>
<path d="M195.626 39.042C194.756 39.042 194.084 38.8248 193.608 38.3905C193.133 37.9488 192.876 37.348 192.839 36.5878L192.828 36.11L192.839 35.6322C192.876 34.8793 193.136 34.282 193.619 33.8404C194.102 33.3988 194.771 33.178 195.626 33.178C196.48 33.178 197.149 33.3988 197.632 33.8404C198.115 34.282 198.375 34.8793 198.412 35.6322C198.42 35.7191 198.423 35.8783 198.423 36.11C198.423 36.3417 198.42 36.5009 198.412 36.5878C198.375 37.348 198.119 37.9488 197.643 38.3905C197.168 38.8248 196.495 39.042 195.626 39.042ZM195.626 37.9669C196.02 37.9669 196.324 37.8475 196.54 37.6086C196.755 37.3624 196.874 37.0041 196.896 36.5335C196.904 36.4611 196.908 36.32 196.908 36.11C196.908 35.9001 196.904 35.7589 196.896 35.6865C196.874 35.2159 196.755 34.8612 196.54 34.6223C196.324 34.3762 196.02 34.2531 195.626 34.2531C195.232 34.2531 194.927 34.3762 194.712 34.6223C194.496 34.8612 194.377 35.2159 194.355 35.6865L194.344 36.11L194.355 36.5335C194.377 37.0041 194.496 37.3624 194.712 37.6086C194.927 37.8475 195.232 37.9669 195.626 37.9669Z" fill="url(#paint19_linear)"/>
<path d="M199.937 40.9967C199.863 40.9967 199.8 40.9713 199.748 40.9207C199.696 40.8772 199.67 40.8157 199.67 40.736V33.5472C199.67 33.4676 199.696 33.4061 199.748 33.3626C199.8 33.3119 199.863 33.2866 199.937 33.2866H200.818C200.899 33.2866 200.963 33.3119 201.007 33.3626C201.059 33.4061 201.085 33.4676 201.085 33.5472V33.9816C201.501 33.4459 202.096 33.178 202.869 33.178C203.619 33.178 204.195 33.4097 204.596 33.873C204.997 34.3291 205.213 34.9481 205.243 35.7299C205.25 35.8168 205.254 35.9435 205.254 36.11C205.254 36.2838 205.25 36.4141 205.243 36.5009C205.213 37.2611 204.997 37.8764 204.596 38.347C204.195 38.8103 203.619 39.042 202.869 39.042C202.118 39.042 201.546 38.785 201.152 38.271V40.736C201.152 40.8157 201.126 40.8772 201.074 40.9207C201.029 40.9713 200.966 40.9967 200.885 40.9967H199.937ZM202.456 37.8801C203.259 37.8801 203.686 37.3986 203.738 36.4358C203.745 36.3634 203.749 36.2548 203.749 36.11C203.749 35.9652 203.745 35.8566 203.738 35.7842C203.686 34.8214 203.259 34.34 202.456 34.34C202.025 34.34 201.706 34.4739 201.498 34.7417C201.289 35.0096 201.174 35.339 201.152 35.7299L201.141 36.1426L201.152 36.5661C201.167 36.9281 201.282 37.2394 201.498 37.5C201.72 37.7534 202.04 37.8801 202.456 37.8801Z" fill="url(#paint20_linear)"/>
<path d="M208.277 38.9334C208.203 38.9334 208.14 38.9081 208.088 38.8574C208.036 38.8067 208.01 38.7452 208.01 38.6728V34.4377H206.193C206.119 34.4377 206.055 34.4124 206.003 34.3617C205.951 34.311 205.925 34.2458 205.925 34.1662V33.5472C205.925 33.4676 205.951 33.4061 206.003 33.3626C206.055 33.3119 206.119 33.2866 206.193 33.2866H211.253C211.335 33.2866 211.402 33.3119 211.454 33.3626C211.506 33.4133 211.532 33.4748 211.532 33.5472V34.1662C211.532 34.2386 211.506 34.3038 211.454 34.3617C211.402 34.4124 211.335 34.4377 211.253 34.4377H209.448V38.6728C209.448 38.7452 209.422 38.8067 209.37 38.8574C209.325 38.9081 209.262 38.9334 209.18 38.9334H208.277Z" fill="url(#paint21_linear)"/>
<path d="M214.099 39.042C213.72 39.042 213.37 38.9696 213.051 38.8248C212.739 38.6728 212.49 38.4701 212.304 38.2167C212.126 37.9633 212.037 37.6846 212.037 37.3805C212.037 36.8883 212.241 36.4901 212.65 36.186C213.058 35.882 213.619 35.6756 214.333 35.567L215.86 35.3499V35.1218C215.86 34.8033 215.778 34.5644 215.614 34.4051C215.451 34.2458 215.187 34.1662 214.823 34.1662C214.578 34.1662 214.377 34.2133 214.221 34.3074C214.073 34.3943 213.954 34.4811 213.865 34.568C213.775 34.6621 213.716 34.7236 213.686 34.7526C213.656 34.8395 213.601 34.8829 213.519 34.8829H212.661C212.594 34.8829 212.534 34.8612 212.482 34.8178C212.438 34.7743 212.416 34.7164 212.416 34.644C212.423 34.463 212.512 34.2567 212.683 34.025C212.861 33.7934 213.133 33.5943 213.497 33.4278C213.861 33.2613 214.307 33.178 214.834 33.178C215.711 33.178 216.35 33.3699 216.751 33.7536C217.153 34.1372 217.353 34.6404 217.353 35.263V38.6728C217.353 38.7452 217.327 38.8067 217.275 38.8574C217.231 38.9081 217.167 38.9334 217.086 38.9334H216.183C216.109 38.9334 216.045 38.9081 215.993 38.8574C215.941 38.8067 215.915 38.7452 215.915 38.6728V38.2493C215.752 38.4809 215.518 38.6728 215.213 38.8248C214.916 38.9696 214.544 39.042 214.099 39.042ZM214.478 38.0104C214.886 38.0104 215.221 37.8801 215.481 37.6194C215.741 37.3588 215.871 36.9788 215.871 36.4792V36.2512L214.756 36.4249C214.325 36.4901 213.998 36.5951 213.775 36.7398C213.56 36.8846 213.452 37.062 213.452 37.272C213.452 37.5036 213.552 37.6846 213.753 37.8149C213.954 37.9452 214.195 38.0104 214.478 38.0104Z" fill="url(#paint22_linear)"/>
<path d="M218.605 38.9334C218.531 38.9334 218.464 38.9081 218.404 38.8574C218.352 38.7995 218.326 38.7343 218.326 38.6619V37.9887C218.326 37.9163 218.348 37.8583 218.393 37.8149C218.438 37.7642 218.501 37.7353 218.583 37.728C218.91 37.7136 219.144 37.4964 219.285 37.0765C219.433 36.6494 219.508 35.9616 219.508 35.0132V33.5472C219.508 33.4676 219.534 33.4061 219.586 33.3626C219.638 33.3119 219.701 33.2866 219.775 33.2866H223.732C223.806 33.2866 223.87 33.3119 223.922 33.3626C223.974 33.4133 224 33.4748 224 33.5472V38.6728C224 38.7452 223.974 38.8067 223.922 38.8574C223.87 38.9081 223.806 38.9334 223.732 38.9334H222.807C222.733 38.9334 222.669 38.9081 222.617 38.8574C222.565 38.8067 222.539 38.7452 222.539 38.6728V34.4377H220.901V35.1653C220.901 36.1064 220.827 36.8484 220.678 37.3914C220.537 37.9344 220.299 38.3289 219.965 38.5751C219.638 38.814 219.184 38.9334 218.605 38.9334Z" fill="url(#paint23_linear)"/>
<ellipse cx="24.0483" cy="24" rx="24.0483" ry="24" fill="url(#paint24_linear)"/>
<g opacity="0.7">
<path opacity="0.7" d="M10.8591 23.5561C9.33865 23.557 7.85205 23.1117 6.58739 22.2767C5.32273 21.4416 4.33681 20.2543 3.75435 18.8649C3.17188 17.4755 3.01904 15.9464 3.31514 14.471C3.61125 12.9957 4.343 11.6403 5.41785 10.5764C6.49269 9.51251 7.86234 8.78785 9.35356 8.49409C10.8448 8.20033 12.3906 8.35067 13.7954 8.92609C15.2002 9.50151 16.401 10.4762 17.2458 11.7268C18.0907 12.9774 18.5416 14.4477 18.5416 15.9519C18.5393 17.9672 17.7293 19.8994 16.2892 21.3249C14.8491 22.7503 12.8963 23.5527 10.8591 23.5561ZM10.8591 8.61065C9.39141 8.61065 7.95665 9.04121 6.73628 9.84788C5.51591 10.6545 4.56474 11.8011 4.00307 13.1425C3.44139 14.484 3.29443 15.96 3.58077 17.3841C3.86711 18.8082 4.57389 20.1162 5.61173 21.1429C6.64957 22.1696 7.97186 22.8688 9.41138 23.1521C10.8509 23.4353 12.343 23.29 13.699 22.7343C15.055 22.1787 16.214 21.2377 17.0294 20.0305C17.8449 18.8232 18.2801 17.4039 18.2801 15.9519C18.2778 14.0056 17.4952 12.1396 16.104 10.7634C14.7128 9.38712 12.8266 8.61294 10.8591 8.61065Z" fill="white"/>
<path opacity="0.7" d="M10.8613 31.0002C9.34056 31.0012 7.85365 30.5561 6.58867 29.7211C5.32368 28.886 4.33746 27.6986 3.75474 26.309C3.17203 24.9194 3.01901 23.3901 3.31503 21.9144C3.61105 20.4388 4.34282 19.0832 5.41778 18.019C6.49273 16.9548 7.86258 16.23 9.35403 15.9361C10.8455 15.6422 12.3915 15.7925 13.7966 16.368C15.2017 16.9434 16.4027 17.9182 17.2477 19.169C18.0927 20.4198 18.5438 21.8904 18.5438 23.3949C18.5415 25.4103 17.7315 27.3426 16.2914 28.7682C14.8513 30.1938 12.8986 30.9965 10.8613 31.0002ZM10.8613 16.0536C9.39328 16.0534 7.95816 16.4839 6.73744 17.2906C5.51672 18.0973 4.56525 19.244 4.00336 20.5857C3.44147 21.9273 3.29439 23.4037 3.58074 24.8281C3.86709 26.2525 4.57399 27.5608 5.61205 28.5877C6.65011 29.6146 7.97269 30.314 9.41253 30.5972C10.8524 30.8805 12.3448 30.735 13.701 30.1791C15.0573 29.6233 16.2164 28.682 17.0319 27.4744C17.8474 26.2668 18.2825 24.8471 18.2823 23.3949C18.2797 21.4486 17.497 19.5829 16.1059 18.2067C14.7147 16.8305 12.8287 16.0562 10.8613 16.0536Z" fill="white"/>
<path opacity="0.7" d="M24.0452 15.937C22.5249 15.937 21.0387 15.491 19.7747 14.6555C18.5106 13.8199 17.5253 12.6323 16.9435 11.2428C16.3617 9.85328 16.2095 8.32432 16.5061 6.84924C16.8027 5.37417 17.5348 4.01922 18.6098 2.95575C19.6848 1.89228 21.0545 1.16804 22.5456 0.874632C24.0367 0.581221 25.5823 0.73181 26.9868 1.30736C28.3914 1.8829 29.5919 2.85756 30.4366 4.10807C31.2812 5.35858 31.732 6.82878 31.732 8.33276C31.7297 10.3488 30.9191 12.2817 29.4781 13.7072C28.037 15.1328 26.0832 15.9347 24.0452 15.937ZM24.0452 0.991515C22.5772 0.991515 21.1422 1.42216 19.9216 2.22899C18.7011 3.03583 17.7498 4.1826 17.188 5.5243C16.6263 6.866 16.4794 8.34235 16.7659 9.76665C17.0523 11.1909 17.7593 12.4992 18.7974 13.526C19.8355 14.5528 21.1581 15.252 22.5979 15.5352C24.0377 15.8184 25.5301 15.6728 26.8863 15.1169C28.2424 14.5611 29.4015 13.6198 30.217 12.4122C31.0324 11.2046 31.4675 9.78498 31.4673 8.33276C31.465 6.38625 30.6822 4.52014 29.2908 3.14386C27.8993 1.76757 26.0129 0.993512 24.0452 0.991515Z" fill="white"/>
<path opacity="0.7" d="M24.0452 30.998C22.5249 30.998 21.0387 30.552 19.7747 29.7165C18.5106 28.8809 17.5253 27.6933 16.9435 26.3038C16.3617 24.9143 16.2095 23.3854 16.5061 21.9103C16.8027 20.4352 17.5348 19.0803 18.6098 18.0168C19.6848 16.9533 21.0545 16.2291 22.5456 15.9357C24.0367 15.6423 25.5823 15.7928 26.9868 16.3684C28.3914 16.9439 29.5919 17.9186 30.4366 19.1691C31.2812 20.4196 31.732 21.8898 31.732 23.3938C31.7297 25.4099 30.9191 27.3427 29.4781 28.7683C28.037 30.1938 26.0832 30.9957 24.0452 30.998ZM24.0452 16.0515C22.5773 16.0515 21.1423 16.4821 19.9217 17.2889C18.7012 18.0957 17.7499 19.2424 17.1881 20.584C16.6264 21.9256 16.4794 23.4019 16.7658 24.8262C17.0522 26.2505 17.759 27.5587 18.797 28.5856C19.835 29.6124 21.1575 30.3117 22.5972 30.595C24.037 30.8783 25.5293 30.7329 26.8855 30.1772C28.2417 29.6215 29.4009 28.6804 30.2164 27.473C31.032 26.2655 31.4673 24.846 31.4673 23.3938C31.465 21.4472 30.6823 19.581 29.2908 18.2045C27.8994 16.828 26.013 16.0538 24.0452 16.0515Z" fill="white"/>
<path opacity="0.7" d="M37.2326 23.5561C35.7123 23.5559 34.2263 23.1098 32.9623 22.2741C31.6984 21.4384 30.7133 20.2507 30.1317 18.8612C29.5501 17.4717 29.398 15.9427 29.6947 14.4677C29.9914 12.9927 30.7236 11.6379 31.7987 10.5745C32.8737 9.51114 34.2434 8.78702 35.7345 8.49369C37.2255 8.20037 38.771 8.35102 40.1756 8.9266C41.5801 9.50218 42.7805 10.4768 43.6251 11.7273C44.4697 12.9778 44.9205 14.448 44.9205 15.9519C44.9182 17.9682 44.1074 19.9012 42.6662 21.3268C41.2249 22.7524 39.2708 23.5541 37.2326 23.5561ZM37.2326 8.61066C35.7649 8.61087 34.3303 9.04161 33.11 9.8484C31.8898 10.6552 30.9388 11.8018 30.3773 13.1433C29.8158 14.4847 29.669 15.9608 29.9555 17.3848C30.2419 18.8088 30.9488 20.1167 31.9867 21.1433C33.0245 22.1699 34.3468 22.869 35.7863 23.1522C37.2258 23.4353 38.7179 23.2899 40.0738 22.7342C41.4298 22.1785 42.5887 21.2376 43.4041 20.0304C44.2194 18.8231 44.6546 17.4038 44.6546 15.9519C44.6523 14.0054 43.8696 12.1393 42.4782 10.763C41.0867 9.38671 39.2002 8.61265 37.2326 8.61066Z" fill="white"/>
<path opacity="0.7" d="M37.2309 31.0002C35.7103 31.0002 34.224 30.5541 32.9597 29.7184C31.6954 28.8828 30.7101 27.695 30.1282 26.3053C29.5463 24.9156 29.3941 23.3864 29.6907 21.9111C29.9873 20.4359 30.7195 19.0807 31.7947 18.0171C32.8699 16.9535 34.2397 16.2291 35.731 15.9357C37.2223 15.6422 38.7681 15.7928 40.1729 16.3685C41.5777 16.9441 42.7784 17.9189 43.6231 19.1696C44.4679 20.4203 44.9188 21.8907 44.9188 23.3949C44.9167 25.4113 44.1061 27.3446 42.6648 28.7704C41.2235 30.1963 39.2692 30.9982 37.2309 31.0002ZM37.2309 16.0536C35.7629 16.0536 34.3279 16.4843 33.1073 17.2911C31.8867 18.0979 30.9354 19.2447 30.3737 20.5864C29.812 21.9281 29.665 23.4045 29.9515 24.8288C30.238 26.2531 30.945 27.5613 31.9831 28.5881C33.0212 29.6149 34.3438 30.3141 35.7836 30.5973C37.2234 30.8805 38.7157 30.7349 40.0719 30.179C41.4281 29.6232 42.5872 28.6819 43.4026 27.4743C44.218 26.2668 44.6531 24.8471 44.6529 23.3949C44.6506 21.4484 43.8679 19.5823 42.4764 18.206C41.085 16.8297 39.1985 16.0556 37.2309 16.0536Z" fill="white"/>
<path opacity="0.7" d="M10.8613 38.508C9.34066 38.5091 7.85383 38.064 6.58889 37.229C5.32396 36.3941 4.33773 35.2068 3.75495 33.8173C3.17217 32.4279 3.01902 30.8986 3.31487 29.4231C3.61072 27.9475 4.34227 26.5918 5.41701 25.5276C6.49175 24.4633 7.86138 23.7383 9.3527 23.4442C10.844 23.15 12.39 23.3 13.7951 23.8752C15.2003 24.4503 16.4014 25.4247 17.2467 26.6753C18.0919 27.9258 18.5433 29.3962 18.5438 30.9005C18.542 32.9163 17.7323 34.8492 16.2922 36.2753C14.852 37.7014 12.899 38.5043 10.8613 38.508ZM10.8613 23.5604C9.39324 23.5601 7.95807 23.9906 6.73733 24.7974C5.51659 25.6041 4.56512 26.7509 4.00326 28.0926C3.4414 29.4344 3.29439 30.9108 3.58082 32.3352C3.86726 33.7596 4.57427 35.068 5.61243 36.0949C6.6506 37.1217 7.97329 37.821 9.4132 38.1041C10.8531 38.3873 12.3456 38.2416 13.7018 37.6856C15.058 37.1296 16.2171 36.1881 17.0324 34.9804C17.8478 33.7727 18.2827 32.3528 18.2823 30.9005C18.2794 28.9545 17.4966 27.089 16.1055 25.713C14.7144 24.3371 12.8285 23.5629 10.8613 23.5604Z" fill="white"/>
<path opacity="0.7" d="M37.2309 38.5002C35.7103 38.5002 34.224 38.0541 32.9597 37.2185C31.6954 36.3828 30.7101 35.195 30.1282 33.8053C29.5463 32.4156 29.3941 30.8864 29.6907 29.4111C29.9873 27.9359 30.7195 26.5807 31.7947 25.5171C32.8699 24.4535 34.2397 23.7291 35.731 23.4357C37.2223 23.1422 38.7681 23.2928 40.1729 23.8685C41.5777 24.4441 42.7784 25.4189 43.6231 26.6696C44.4679 27.9203 44.9188 29.3907 44.9188 30.8949C44.9167 32.9113 44.1061 34.8446 42.6648 36.2704C41.2235 37.6963 39.2692 38.4982 37.2309 38.5002ZM37.2309 23.5536C35.7629 23.5536 34.3279 23.9843 33.1073 24.7911C31.8867 25.5979 30.9354 26.7447 30.3737 28.0864C29.812 29.4281 29.665 30.9045 29.9515 32.3288C30.238 33.7531 30.945 35.0613 31.9831 36.0881C33.0212 37.1149 34.3438 37.8141 35.7836 38.0973C37.2234 38.3805 38.7157 38.2349 40.0719 37.6791C41.4281 37.1232 42.5872 36.1819 43.4026 34.9743C44.218 33.7668 44.6531 32.3471 44.6529 30.8949C44.6506 28.9484 43.8679 27.0823 42.4764 25.706C41.085 24.3297 39.1985 23.5556 37.2309 23.5536Z" fill="white"/>
<path opacity="0.7" d="M24.0474 46.0583C22.5268 46.0585 21.0403 45.6126 19.7759 44.7771C18.5115 43.9415 17.526 42.7538 16.9439 41.3642C16.3619 39.9745 16.2095 38.4453 16.506 36.9699C16.8025 35.4946 17.5346 34.1393 18.6098 33.0756C19.6849 32.0119 21.0547 31.2874 22.5461 30.9939C24.0374 30.7003 25.5832 30.8509 26.9881 31.4265C28.3929 32.0021 29.5937 32.9769 30.4385 34.2276C31.2833 35.4783 31.7342 36.9487 31.7342 38.453C31.7319 40.4691 30.9213 42.4021 29.4803 43.8278C28.0393 45.2536 26.0855 46.0557 24.0474 46.0583ZM24.0474 31.1117C22.5794 31.1117 21.1444 31.5424 19.9238 32.3492C18.7032 33.156 17.7519 34.3028 17.1902 35.6445C16.6285 36.9862 16.4816 38.4626 16.768 39.8869C17.0545 41.3112 17.7615 42.6194 18.7996 43.6462C19.8377 44.673 21.1603 45.3722 22.6001 45.6554C24.0399 45.9386 25.5323 45.7931 26.8884 45.2372C28.2446 44.6813 29.4037 43.74 30.2191 42.5324C31.0345 41.3249 31.4697 39.9052 31.4694 38.453C31.4666 36.5068 30.6836 34.6413 29.2922 33.2655C27.9008 31.8896 26.0147 31.1159 24.0474 31.1139V31.1117Z" fill="white"/>
<path opacity="0.7" d="M24.0452 23.4634C22.5249 23.4634 21.0387 23.0174 19.7747 22.1818C18.5106 21.3463 17.5253 20.1586 16.9435 18.7691C16.3617 17.3796 16.2095 15.8507 16.5061 14.3756C16.8027 12.9005 17.5348 11.5456 18.6098 10.4821C19.6848 9.41864 21.0545 8.69441 22.5456 8.401C24.0367 8.10759 25.5823 8.25818 26.9868 8.83372C28.3914 9.40927 29.5919 10.3839 30.4366 11.6344C31.2812 12.8849 31.732 14.3551 31.732 15.8591C31.7297 17.8752 30.9191 19.808 29.4781 21.2336C28.037 22.6592 26.0832 23.4611 24.0452 23.4634ZM24.0452 8.51788C22.5775 8.51809 21.1429 8.94883 19.9226 9.75563C18.7024 10.5624 17.7514 11.709 17.1899 13.0505C16.6284 14.392 16.4816 15.868 16.7681 17.292C17.0545 18.716 17.7614 20.024 18.7993 21.0505C19.8372 22.0771 21.1595 22.7762 22.5989 23.0594C24.0384 23.3426 25.5305 23.1971 26.8864 22.6414C28.2424 22.0858 29.4013 21.1448 30.2167 19.9376C31.0321 18.7304 31.4673 17.311 31.4673 15.8591C31.4638 13.9134 30.6806 12.0484 29.2892 10.673C27.8979 9.29765 26.0121 8.52419 24.0452 8.52219V8.51788Z" fill="white"/>
<path opacity="0.7" d="M24.0474 38.5275C22.5268 38.5277 21.0402 38.0819 19.7758 37.2463C18.5114 36.4106 17.5258 35.2229 16.9438 33.8331C16.3618 32.4434 16.2095 30.9141 16.5061 29.4388C16.8027 27.9634 17.5349 26.6081 18.6101 25.5444C19.6854 24.4808 21.0553 23.7564 22.5467 23.463C24.0381 23.1696 25.584 23.3203 26.9888 23.896C28.3937 24.4718 29.5943 25.4467 30.439 26.6976C31.2837 27.9485 31.7344 29.419 31.7342 30.9233C31.7319 32.9394 30.9213 34.8722 29.4802 36.2978C28.0392 37.7234 26.0854 38.5252 24.0474 38.5275ZM24.0474 23.581C22.5794 23.581 21.1445 24.0116 19.9239 24.8184C18.7034 25.6252 17.7521 26.7719 17.1903 28.1135C16.6286 29.4551 16.4816 30.9314 16.768 32.3557C17.0543 33.78 17.7612 35.0883 18.7992 36.1151C19.8372 37.1419 21.1597 37.8412 22.5994 38.1245C24.0392 38.4078 25.5315 38.2624 26.8877 37.7067C28.2439 37.151 29.4031 36.2099 30.2186 35.0025C31.0341 33.795 31.4694 32.3755 31.4694 30.9233C31.4671 28.9767 30.6844 27.1105 29.293 25.734C27.9016 24.3575 26.0151 23.5833 24.0474 23.581Z" fill="white"/>
<path opacity="0.7" d="M30.6275 19.6979C29.1069 19.6982 27.6203 19.2523 26.3559 18.4167C25.0915 17.5811 24.1059 16.3933 23.5239 15.0035C22.9419 13.6138 22.7895 12.0846 23.0861 10.6092C23.3828 9.13378 24.115 7.77854 25.1902 6.71485C26.2655 5.65117 27.6354 4.92681 29.1268 4.63339C30.6182 4.33997 32.1641 4.49067 33.5689 5.06643C34.9737 5.6422 36.1744 6.61716 37.0191 7.86801C37.8638 9.11886 38.3145 10.5894 38.3143 12.0937C38.312 14.1098 37.5014 16.0426 36.0603 17.4682C34.6193 18.8938 32.6654 19.6957 30.6275 19.6979ZM30.6275 4.75138C29.1593 4.75074 27.7239 5.18087 26.5029 5.98736C25.2819 6.79385 24.33 7.94047 23.7679 9.28217C23.2057 10.6239 23.0583 12.1004 23.3445 13.5249C23.6307 14.9495 24.3376 16.258 25.3756 17.2851C26.4137 18.3122 27.7364 19.0116 29.1764 19.295C30.6163 19.5783 32.1089 19.4328 33.4653 18.8768C34.8216 18.3209 35.9808 17.3794 36.7962 16.1716C37.6117 14.9639 38.0467 13.5439 38.0463 12.0915C38.0442 10.1454 37.2621 8.27952 35.8713 6.90309C34.4806 5.52666 32.5947 4.75208 30.6275 4.74923V4.75138Z" fill="white"/>
<path opacity="0.7" d="M17.4507 19.6979C15.9301 19.6982 14.4436 19.2523 13.1791 18.4167C11.9147 17.5811 10.9292 16.3933 10.3471 15.0035C9.76512 13.6138 9.61279 12.0846 9.90939 10.6092C10.206 9.13378 10.9382 7.77854 12.0135 6.71485C13.0887 5.65117 14.4586 4.92681 15.9501 4.63339C17.4415 4.33997 18.9873 4.49067 20.3922 5.06643C21.797 5.6422 22.9977 6.61716 23.8423 7.86801C24.687 9.11886 25.1377 10.5894 25.1375 12.0937C25.1352 14.1098 24.3246 16.0426 22.8836 17.4682C21.4425 18.8938 19.4887 19.6957 17.4507 19.6979ZM17.4507 4.75138C15.9827 4.75117 14.5476 5.18161 13.3269 5.98826C12.1063 6.79492 11.1548 7.94156 10.5929 9.28317C10.0309 10.6248 9.8838 12.1011 10.1701 13.5255C10.4563 14.9498 11.1631 16.2582 12.2011 17.2851C13.239 18.3121 14.5615 19.0115 16.0012 19.2949C17.441 19.5783 18.9334 19.4329 20.2897 18.8772C21.6459 18.3215 22.8052 17.3804 23.6208 16.173C24.4363 14.9655 24.8717 13.5459 24.8717 12.0937C24.8702 10.1468 24.088 8.28005 22.6967 6.90309C21.3054 5.52614 19.4187 4.75151 17.4507 4.74923V4.75138Z" fill="white"/>
<path opacity="0.7" d="M30.6275 34.7521C29.1069 34.7523 27.6203 34.3065 26.3559 33.4709C25.0915 32.6353 24.1059 31.4475 23.5239 30.0577C22.9419 28.668 22.7895 27.1387 23.0861 25.6634C23.3828 24.188 24.115 22.8327 25.1902 21.7691C26.2655 20.7054 27.6354 19.981 29.1268 19.6876C30.6182 19.3942 32.1641 19.5449 33.5689 20.1206C34.9737 20.6964 36.1744 21.6714 37.0191 22.9222C37.8638 24.1731 38.3145 25.6436 38.3143 27.1479C38.312 29.164 37.5014 31.0968 36.0603 32.5224C34.6193 33.948 32.6654 34.7498 30.6275 34.7521ZM30.6275 19.8056C29.1594 19.8049 27.7241 20.235 26.5031 21.0414C25.2821 21.8478 24.3303 22.9943 23.7681 24.3359C23.2058 25.6774 23.0584 27.1538 23.3444 28.5783C23.6304 30.0028 24.337 31.3114 25.3749 32.3386C26.4127 33.3657 27.7352 34.0653 29.175 34.3489C30.6149 34.6325 32.1074 34.4872 33.4637 33.9316C34.8201 33.376 35.9795 32.4349 36.7952 31.2274C37.6109 30.0199 38.0463 28.6002 38.0463 27.1479C38.0442 25.2018 37.2621 23.3359 35.8713 21.9594C34.4806 20.583 32.5947 19.8084 30.6275 19.8056Z" fill="white"/>
<path opacity="0.7" d="M17.4507 34.7521C15.9301 34.7523 14.4436 34.3065 13.1791 33.4709C11.9147 32.6353 10.9292 31.4475 10.3471 30.0577C9.76512 28.668 9.61279 27.1387 9.90939 25.6634C10.206 24.188 10.9382 22.8327 12.0135 21.7691C13.0887 20.7054 14.4586 19.981 15.9501 19.6876C17.4415 19.3942 18.9873 19.5449 20.3922 20.1206C21.797 20.6964 22.9977 21.6714 23.8423 22.9222C24.687 24.1731 25.1377 25.6436 25.1375 27.1479C25.1352 29.164 24.3246 31.0968 22.8836 32.5224C21.4425 33.948 19.4887 34.7498 17.4507 34.7521ZM17.4507 19.8056C15.9827 19.8054 14.5476 20.2358 13.3269 21.0425C12.1063 21.8491 11.1548 22.9958 10.5929 24.3374C10.0309 25.679 9.8838 27.1553 10.1701 28.5796C10.4563 30.004 11.1631 31.3124 12.2011 32.3393C13.239 33.3663 14.5615 34.0657 16.0012 34.349C17.441 34.6324 18.9334 34.4871 20.2897 33.9314C21.6459 33.3757 22.8052 32.4346 23.6208 31.2272C24.4363 30.0197 24.8717 28.6001 24.8717 27.1479C24.8696 25.2014 24.0872 23.3352 22.696 21.9587C21.3047 20.5822 19.4184 19.8079 17.4507 19.8056Z" fill="white"/>
<path opacity="0.7" d="M30.6253 27.2231C29.105 27.2231 27.6188 26.7771 26.3547 25.9416C25.0906 25.106 24.1054 23.9184 23.5236 22.5289C22.9418 21.1394 22.7896 19.6105 23.0862 18.1354C23.3828 16.6603 24.1149 15.3054 25.1899 14.2419C26.2649 13.1784 27.6346 12.4542 29.1257 12.1608C30.6168 11.8674 32.1623 12.0179 33.5669 12.5935C34.9715 13.169 36.172 14.1437 37.0166 15.3942C37.8613 16.6447 38.3121 18.1149 38.3121 19.6189C38.3098 21.635 37.4992 23.5678 36.0581 24.9934C34.6171 26.419 32.6633 27.2208 30.6253 27.2231ZM30.6253 12.2766C29.1572 12.2759 27.7219 12.706 26.5009 13.5124C25.28 14.3188 24.3281 15.4653 23.7659 16.8069C23.2036 18.1484 23.0562 19.6248 23.3422 21.0493C23.6282 22.4738 24.3348 23.7824 25.3727 24.8095C26.4105 25.8367 27.733 26.5363 29.1729 26.8199C30.6127 27.1035 32.1052 26.9582 33.4616 26.4026C34.818 25.847 35.9773 24.9059 36.793 23.6984C37.6087 22.4909 38.0441 21.0712 38.0441 19.6189C38.0421 17.6728 37.2599 15.8069 35.8691 14.4304C34.4784 13.054 32.5926 12.2794 30.6253 12.2766Z" fill="white"/>
<path opacity="0.7" d="M17.4524 27.2231C15.9321 27.2231 14.446 26.7771 13.1819 25.9416C11.9178 25.106 10.9325 23.9184 10.3508 22.5289C9.76896 21.1394 9.61673 19.6105 9.91333 18.1354C10.2099 16.6603 10.942 15.3054 12.017 14.2419C13.0921 13.1784 14.4617 12.4542 15.9528 12.1608C17.4439 11.8674 18.9895 12.0179 20.3941 12.5935C21.7986 13.169 22.9992 14.1437 23.8438 15.3942C24.6884 16.6447 25.1393 18.1149 25.1393 19.6189C25.1369 21.635 24.3263 23.5678 22.8853 24.9934C21.4442 26.419 19.4904 27.2208 17.4524 27.2231ZM17.4524 12.2766C15.9845 12.2764 14.5494 12.7068 13.3287 13.5134C12.108 14.3201 11.1565 15.4667 10.5946 16.8084C10.0327 18.15 9.88552 19.6263 10.1718 21.0506C10.458 22.475 11.1648 23.7834 12.2028 24.8103C13.2407 25.8373 14.5632 26.5367 16.003 26.82C17.4427 27.1034 18.9351 26.9581 20.2914 26.4024C21.6477 25.8467 22.8069 24.9056 23.6225 23.6982C24.4381 22.4907 24.8734 21.0711 24.8734 19.6189C24.8714 17.6724 24.0889 15.8062 22.6977 14.4297C21.3065 13.0532 19.4201 12.2789 17.4524 12.2766Z" fill="white"/>
<path opacity="0.7" d="M30.6253 42.2851C29.1051 42.2851 27.6191 41.8393 26.3551 41.0038C25.091 40.1684 24.1058 38.981 23.5239 37.5917C22.942 36.2024 22.7896 34.6736 23.0859 33.1986C23.3823 31.7236 24.114 30.3686 25.1887 29.305C26.2634 28.2414 27.6328 27.5169 29.1237 27.2232C30.6145 26.9294 32.16 27.0795 33.5646 27.6546C34.9693 28.2296 36.17 29.2038 37.0151 30.4539C37.8601 31.7039 38.3115 33.1738 38.3121 34.6777C38.3107 36.6943 37.5004 38.628 36.0593 40.0543C34.6181 41.4805 32.6638 42.2829 30.6253 42.2851ZM30.6253 27.3397C29.1573 27.3392 27.7222 27.7695 26.5015 28.5761C25.2808 29.3826 24.3293 30.5292 23.7674 31.8708C23.2054 33.2124 23.0584 34.6887 23.3447 36.113C23.6311 37.5373 24.338 38.8456 25.3761 39.8723C26.4142 40.8991 27.7368 41.5983 29.1766 41.8813C30.6164 42.1644 32.1087 42.0187 33.4648 41.4626C34.8208 40.9065 35.9797 39.9651 36.7949 38.7574C37.61 37.5496 38.0447 36.1299 38.0441 34.6777C38.0412 32.7322 37.2586 30.8672 35.8679 29.4917C34.4772 28.1161 32.5919 27.3422 30.6253 27.3397Z" fill="white"/>
<path opacity="0.7" d="M17.4507 42.2851C15.9305 42.2856 14.4442 41.84 13.1799 41.0049C11.9156 40.1697 10.93 38.9824 10.3478 37.5932C9.76556 36.2039 9.61283 34.675 9.90892 33.1999C10.205 31.7248 10.9366 30.3696 12.0112 29.3058C13.0858 28.242 14.4552 27.5173 15.9461 27.2233C17.437 26.9294 18.9826 27.0794 20.3874 27.6544C21.7921 28.2294 22.993 29.2035 23.8381 30.4536C24.6833 31.7038 25.1347 33.1737 25.1353 34.6777C25.1339 36.6939 24.324 38.6273 22.8833 40.0535C21.4426 41.4797 19.4889 42.2823 17.4507 42.2851ZM17.4507 27.3397C15.9828 27.3392 14.5476 27.7695 13.3269 28.5761C12.1062 29.3826 11.1547 30.5292 10.5928 31.8708C10.0309 33.2124 9.88378 34.6887 10.1701 36.113C10.4565 37.5373 11.1634 38.8456 12.2015 39.8723C13.2396 40.8991 14.5622 41.5983 16.002 41.8813C17.4418 42.1644 18.9341 42.0187 20.2902 41.4626C21.6462 40.9065 22.8051 39.9651 23.6203 38.7574C24.4354 37.5496 24.8701 36.1299 24.8695 34.6777C24.8666 32.7322 24.084 30.8672 22.6933 29.4917C21.3026 28.1161 19.4173 27.3422 17.4507 27.3397Z" fill="white"/>
<path opacity="0.7" d="M24.0418 46.1488C11.3582 46.1488 1.03906 35.9415 1.03906 23.3943C1.03906 10.847 11.3582 0.638672 24.0418 0.638672C36.7253 0.638672 47.0444 10.847 47.0444 23.3943C47.0444 35.9415 36.7253 46.1488 24.0418 46.1488ZM24.0418 0.901668C11.5042 0.901668 1.30491 10.9914 1.30491 23.3943C1.30491 35.7971 11.5042 45.8836 24.0418 45.8836C36.5793 45.8836 46.7786 35.7928 46.7786 23.391C46.7786 10.9893 36.5793 0.901668 24.0418 0.901668Z" fill="white"/>
<path opacity="0.7" d="M30.0836 4.77261C28.7836 4.77194 27.5114 4.4002 26.4196 3.70198C25.3279 3.00376 24.463 2.00874 23.9287 0.836301L24.1706 0.728516C24.7202 1.93889 25.6356 2.95091 26.7908 3.62519C27.9459 4.29946 29.284 4.60281 30.6208 4.49345L30.6425 4.75537C30.4551 4.76686 30.2688 4.77261 30.0836 4.77261Z" fill="white"/>
<path opacity="0.7" d="M37.2213 8.60864C35.8794 8.48958 34.5813 8.07543 33.422 7.39644C32.2627 6.71745 31.2714 5.79079 30.5205 4.68419L30.7384 4.5376C31.4676 5.61147 32.43 6.51072 33.5554 7.16972C34.6807 7.82872 35.9406 8.23083 37.2431 8.34672L37.2213 8.60864Z" fill="white"/>
<path opacity="0.7" d="M43.884 12.2724C42.5455 12.1994 41.2412 11.8265 40.0697 11.182C38.8981 10.5374 37.8899 9.63804 37.1211 8.55168L37.339 8.40186C38.0848 9.45539 39.0626 10.3276 40.1989 10.9527C41.3351 11.5779 42.6 11.9395 43.8981 12.0105L43.884 12.2724Z" fill="white"/>
<path opacity="0.7" d="M30.6855 12.1892C29.3027 12.1912 27.9448 11.8249 26.7544 11.1286C23.1306 9.01059 21.8645 4.33811 23.9303 0.708984L24.1613 0.838326C22.1652 4.34134 23.3899 8.85753 26.8852 10.9033C30.3805 12.9491 34.9729 11.8324 37.1139 8.41238L37.3394 8.55142C36.6342 9.66713 35.6531 10.5866 34.4889 11.2231C33.3247 11.8596 32.0157 12.1921 30.6855 12.1892Z" fill="white"/>
<path opacity="0.7" d="M37.2835 15.9857C35.9327 15.9869 34.6053 15.6372 33.4341 14.9715C31.6635 13.9587 30.3654 12.299 29.819 10.3493C29.2725 8.39954 29.5213 6.31554 30.5119 4.54541L30.7462 4.67367C29.8358 6.37781 29.6298 8.36503 30.1716 10.2165C30.7133 12.0679 31.9605 13.639 33.6503 14.5986C35.3401 15.5581 37.3405 15.8313 39.2298 15.3603C41.1192 14.8894 42.7499 13.7113 43.7783 12.0742L44.0071 12.2068C43.3155 13.3608 42.3315 14.3164 41.1524 14.9791C39.9732 15.6418 38.6397 15.9888 37.2835 15.9857Z" fill="white"/>
<path opacity="0.7" d="M24.0361 8.5216C22.6756 8.51989 21.3395 8.1635 20.1626 7.48835C18.9856 6.81319 18.0093 5.84311 17.332 4.67583L17.5587 4.54541C18.2111 5.67364 19.1534 6.61129 20.29 7.26341C21.4266 7.91554 22.7172 8.25899 24.0312 8.25899C25.3451 8.25899 26.6357 7.91554 27.7723 7.26341C28.9089 6.61129 29.8512 5.67364 30.5037 4.54541L30.7423 4.67583C30.0652 5.84379 29.0887 6.81438 27.9112 7.48961C26.7338 8.16484 25.3971 8.52082 24.0361 8.5216Z" fill="white"/>
<path opacity="0.7" d="M17.5608 42.2185L17.332 42.087C18.0141 40.9271 18.9919 39.9646 20.1678 39.2955C21.3436 38.6265 22.6763 38.2744 24.0328 38.2744C25.3893 38.2744 26.722 38.6265 27.8978 39.2955C29.0736 39.9646 30.0515 40.9271 30.7336 42.087L30.5113 42.2185C29.8529 41.0967 28.9083 40.1656 27.7719 39.5184C26.6356 38.8711 25.3473 38.5305 24.0361 38.5305C22.7248 38.5305 21.4366 38.8711 20.3002 39.5184C19.1638 40.1656 18.2192 41.0967 17.5608 42.2185Z" fill="white"/>
<path opacity="0.7" d="M43.6288 19.669C43.0501 18.4808 42.7617 17.1746 42.7867 15.8559C42.8116 14.5372 43.1493 13.2427 43.7726 12.0767L44.0079 12.2006C43.4039 13.3297 43.0766 14.5835 43.0524 15.8607C43.0281 17.138 43.3077 18.403 43.8685 19.5537L43.6288 19.669Z" fill="white"/>
<path opacity="0.7" d="M43.603 27.1505C43.0554 25.9595 42.7738 24.6658 42.7774 23.3574C42.7809 22.0491 43.0696 20.7568 43.6237 19.5688L43.8656 19.6766C43.3274 20.8303 43.0469 22.0852 43.0434 23.3558C43.0398 24.6264 43.3132 25.8828 43.8449 27.0394L43.603 27.1505Z" fill="white"/>
<path opacity="0.7" d="M43.6243 34.6825C42.9849 33.507 42.6484 32.1937 42.6446 30.8589C42.6408 29.524 42.9698 28.2088 43.6025 27.0298L43.8368 27.1527C43.2246 28.2939 42.9062 29.5668 42.9098 30.8587C42.9134 32.1507 43.2389 33.4218 43.8575 34.5596L43.6243 34.6825Z" fill="white"/>
<path opacity="0.7" d="M43.728 27.2253C42.71 27.2274 41.7018 27.0296 40.7617 26.6432C39.8217 26.2569 38.9685 25.6897 38.2518 24.9745C37.5351 24.2594 36.9691 23.4106 36.5867 22.4773C36.2042 21.5441 36.0129 20.545 36.0239 19.538C36.0348 18.5311 36.2479 17.5363 36.6505 16.6114C37.0532 15.6865 37.6376 14.85 38.3697 14.1503C39.1018 13.4506 39.9671 12.9017 40.9153 12.5355C41.8636 12.1692 42.8759 11.9929 43.8936 12.0168V12.2787C42.9156 12.2629 41.9441 12.4385 41.035 12.7955C40.1258 13.1524 39.297 13.6835 38.596 14.3584C37.8951 15.0333 37.3359 15.8385 36.9506 16.7279C36.5653 17.6173 36.3616 18.5733 36.351 19.5408C36.3405 20.5084 36.5233 21.4685 36.8891 22.3659C37.2549 23.2633 37.7964 24.0803 38.4824 24.77C39.1685 25.4597 39.9856 26.0084 40.8867 26.3846C41.7879 26.7608 42.7553 26.9572 43.7334 26.9623L43.728 27.2253Z" fill="white"/>
<path opacity="0.7" d="M43.7436 34.754C41.6971 34.754 39.7344 33.9497 38.2874 32.5182C36.8403 31.0867 36.0273 29.1451 36.0273 27.1206C36.0273 25.0962 36.8403 23.1546 38.2874 21.7231C39.7344 20.2915 41.6971 19.4873 43.7436 19.4873V19.7503C41.7676 19.7503 39.8726 20.5268 38.4754 21.909C37.0781 23.2912 36.2932 25.1659 36.2932 27.1206C36.2932 29.0754 37.0781 30.95 38.4754 32.3323C39.8726 33.7145 41.7676 34.491 43.7436 34.491V34.754Z" fill="white"/>
<path opacity="0.7" d="M43.714 19.7561C42.3734 19.7563 41.0564 19.4069 39.8958 18.7432C38.7352 18.0795 37.7719 17.1248 37.103 15.9755C36.4342 14.8261 36.0833 13.5227 36.086 12.1965C36.0886 10.8703 36.4445 9.56816 37.1178 8.42139L37.3477 8.55288C36.6984 9.65981 36.3553 10.9164 36.3531 12.1963C36.3508 13.4761 36.6894 14.7339 37.3349 15.843C37.9803 16.9522 38.9098 17.8735 40.0296 18.5143C41.1495 19.1551 42.4203 19.4927 43.714 19.4931H43.7489V19.7561H43.714Z" fill="white"/>
<path opacity="0.7" d="M37.242 38.4747C36.5263 37.3332 36.1319 36.0231 36.0998 34.6802C36.0676 33.3373 36.3989 32.0102 37.0592 30.8365C37.7195 29.6627 38.6849 28.6848 39.8555 28.004C41.0261 27.3232 42.3594 26.9643 43.7173 26.9644V27.2274C42.4066 27.2271 41.1197 27.5735 39.9898 28.2305C38.8599 28.8876 37.928 29.8314 37.2907 30.9643C36.6534 32.0973 36.3337 33.3782 36.3648 34.6744C36.3959 35.9706 36.7766 37.235 37.4676 38.3368L37.242 38.4747Z" fill="white"/>
<path opacity="0.7" d="M30.5147 42.2171C29.4876 40.4656 29.2059 38.3822 29.7315 36.4252C30.2571 34.4682 31.5471 32.798 33.3176 31.7819C35.0881 30.7658 37.1941 30.487 39.1724 31.007C41.1506 31.527 42.839 32.8031 43.8661 34.5546L43.6373 34.6872C42.6234 33.0417 40.9983 31.8544 39.1103 31.3797C37.2222 30.9049 35.2213 31.1806 33.5361 32.1475C31.851 33.1144 30.6156 34.6957 30.0947 36.5527C29.5737 38.4096 29.8086 40.3946 30.749 42.0823L30.5147 42.2171Z" fill="white"/>
<path opacity="0.7" d="M23.9317 45.9955C22.9395 44.2208 22.6933 42.131 23.2462 40.1781C23.7992 38.2252 25.1069 36.5661 26.8867 35.5594C28.6664 34.5528 30.7752 34.2795 32.7569 34.7988C34.7387 35.318 36.4343 36.588 37.477 38.3341L37.2493 38.4689C36.2429 36.7808 34.605 35.5527 32.6902 35.0502C30.7753 34.5477 28.7375 34.8113 27.0176 35.7839C25.2977 36.7565 24.0341 38.3599 23.5002 40.2472C22.9663 42.1345 23.2051 44.1539 24.1648 45.8683L23.9317 45.9955Z" fill="white"/>
<path opacity="0.7" d="M24.1607 45.9925L23.9297 45.8642C24.886 44.1669 25.1301 42.166 24.6095 40.2924C24.0888 38.4188 22.8451 36.8224 21.1462 35.8472C19.4473 34.872 17.4292 34.5959 15.5265 35.0784C13.6238 35.561 11.9889 36.7635 10.9738 38.427L10.7461 38.2912C12.9187 34.7343 17.6441 33.5347 21.2788 35.6214C23.0305 36.6377 24.312 38.2905 24.8502 40.2276C25.3885 42.1647 25.1411 44.2331 24.1607 45.9925Z" fill="white"/>
<path opacity="0.7" d="M17.5674 42.2205L17.3364 42.0922C18.2773 40.4013 18.5114 38.4131 17.9887 36.5535C17.466 34.6938 16.2281 33.1105 14.54 32.1427C12.8519 31.1748 10.8478 30.8993 8.95684 31.3751C7.06591 31.851 5.43848 33.0403 4.42303 34.6885L4.19531 34.5537C5.24429 32.8419 6.93006 31.6052 8.89059 31.1094C10.8511 30.6135 12.93 30.8981 14.6808 31.9019C16.4316 32.9057 17.7146 34.5487 18.2544 36.478C18.7941 38.4073 18.5474 40.4691 17.5674 42.2205Z" fill="white"/>
<path opacity="0.7" d="M10.9756 38.4226L10.7457 38.2911C11.3959 37.172 11.7377 35.9036 11.7368 34.6128C11.7359 33.322 11.3924 32.0541 10.7407 30.9359C10.089 29.8176 9.15183 28.8883 8.02305 28.2408C6.89426 27.5933 5.6134 27.2504 4.30859 27.2464V26.9834C5.65994 26.9877 6.98647 27.3429 8.15547 28.0136C9.32447 28.6842 10.295 29.6468 10.9699 30.805C11.6448 31.9632 12.0004 33.2764 12.0012 34.6132C12.002 35.95 11.648 37.2637 10.9745 38.4226H10.9756Z" fill="white"/>
<path opacity="0.7" d="M4.35415 34.7572H4.29858V34.4942H4.35197C6.30857 34.4942 8.18503 33.7253 9.56856 32.3566C10.9521 30.988 11.7293 29.1317 11.7293 27.1961C11.7293 25.2605 10.9521 23.4042 9.56856 22.0355C8.18503 20.6669 6.30857 19.898 4.35197 19.898H4.25391V19.635C5.25763 19.6279 6.25293 19.8164 7.18299 20.1899C8.11305 20.5633 8.95964 21.1143 9.67444 21.8115C10.3892 22.5086 10.9582 23.3381 11.349 24.2528C11.7397 25.1674 11.9445 26.1492 11.9516 27.1422C11.9588 28.1351 11.7682 29.1197 11.3907 30.0398C11.0132 30.9599 10.4562 31.7974 9.75148 32.5045C9.0468 33.2116 8.20823 33.7745 7.28365 34.161C6.35907 34.5475 5.36658 34.7501 4.36286 34.7572H4.35415Z" fill="white"/>
<path opacity="0.7" d="M4.32494 27.2544H4.30859V26.9914H4.32385C6.28096 26.9729 8.15183 26.192 9.5308 24.8181C10.9098 23.4441 11.6857 21.5877 11.6902 19.6516C11.6948 17.7154 10.9277 15.8555 9.55531 14.4751C8.18287 13.0947 6.31571 12.3052 4.35871 12.2776V12.0146C6.38596 12.0427 8.32028 12.8603 9.74215 14.29C11.164 15.7198 11.9588 17.6464 11.954 19.6521C11.9493 21.6577 11.1455 23.5807 9.71687 25.0039C8.28828 26.427 6.35011 27.2357 4.32276 27.2544H4.32494Z" fill="white"/>
<path opacity="0.7" d="M4.25391 19.8994V19.6364C5.56207 19.6276 6.84522 19.2809 7.97625 18.6306C9.10729 17.9803 10.047 17.049 10.7022 15.9289C11.3575 14.8088 11.7055 13.5387 11.712 12.2446C11.7184 10.9505 11.383 9.67716 10.7389 8.55073L10.971 8.42139C11.6376 9.58792 11.9846 10.9065 11.9776 12.2465C11.9707 13.5865 11.61 14.9015 10.9313 16.0612C10.2527 17.2209 9.27954 18.1851 8.10833 18.8583C6.93712 19.5315 5.60845 19.8904 4.25391 19.8994Z" fill="white"/>
<path opacity="0.7" d="M10.8247 16.1172V15.8553C12.143 15.8452 13.4357 15.4943 14.5745 14.8374C15.7134 14.1805 16.6589 13.2405 17.3172 12.1106C17.9756 10.9806 18.3238 9.70009 18.3275 8.39593C18.3311 7.09178 17.99 5.80934 17.338 4.67583L17.5647 4.54541C18.2402 5.71879 18.5936 7.04656 18.59 8.39688C18.5864 9.7472 18.2258 11.0731 17.544 12.2429C16.8622 13.4127 15.8829 14.3857 14.7034 15.0654C13.5239 15.745 12.1853 16.1076 10.8203 16.1172H10.8247Z" fill="white"/>
<path opacity="0.7" d="M17.4065 12.1946C16.0747 12.1984 14.7639 11.8658 13.5983 11.2283C12.4327 10.5907 11.451 9.66934 10.7461 8.55142L10.9716 8.41238C13.1104 11.8356 17.6996 12.9544 21.2036 10.9087C24.7077 8.86292 25.929 4.34349 23.9275 0.838326L24.1585 0.708984C26.2287 4.33811 24.9637 9.01382 21.3377 11.134C20.1472 11.83 18.7894 12.1964 17.4065 12.1946Z" fill="white"/>
<path opacity="0.7" d="M17.6414 4.75227H17.4453L17.4518 4.48927C18.7787 4.51793 20.0873 4.1801 21.2307 3.5137C22.3741 2.84731 23.3071 1.87875 23.9249 0.716797L24.1602 0.836438C23.5369 2.01429 22.6003 3.00146 21.4515 3.69152C20.3028 4.38158 18.9854 4.74834 17.6414 4.75227Z" fill="white"/>
<path opacity="0.7" d="M10.857 8.60891L10.8516 8.34591C12.1713 8.31995 13.4617 7.95622 14.5971 7.29018C15.7324 6.62414 16.674 5.6785 17.3301 4.54541L17.5567 4.67583C16.878 5.84767 15.9043 6.82578 14.7303 7.515C13.5563 8.20422 12.2219 8.58108 10.857 8.60891Z" fill="white"/>
<path opacity="0.7" d="M4.5239 12.2801H4.35938L4.36482 12.0171C5.65789 12.0452 6.93443 11.7256 8.0583 11.0924C9.18217 10.4591 10.1112 9.53598 10.7463 8.42139L10.9784 8.55073C10.334 9.68313 9.39645 10.6254 8.26211 11.2808C7.12778 11.9362 5.83754 12.2811 4.5239 12.2801Z" fill="white"/>
<path opacity="0.7" d="M4.37025 19.8311L4.15234 19.6899C4.8742 18.5768 5.26623 17.2858 5.28395 15.9634C5.30166 14.641 4.94436 13.3402 4.25258 12.2086L4.4803 12.0728C5.19765 13.2466 5.56764 14.596 5.54819 15.9675C5.52873 17.3391 5.12062 18.6777 4.37025 19.8311Z" fill="white"/>
<path opacity="0.7" d="M4.42037 27.1908L4.20246 27.0475C4.91075 25.9732 5.2837 24.7165 5.27478 23.434C5.26587 22.1515 4.8755 20.9 4.15234 19.8356L4.37025 19.689C5.12267 20.7962 5.52869 22.0982 5.5376 23.4324C5.54651 24.7666 5.15793 26.0738 4.42037 27.1908Z" fill="white"/>
<path opacity="0.7" d="M4.42112 34.6774L4.18359 34.5696C4.75607 33.4212 5.05383 32.1579 5.05383 30.8774C5.05383 29.597 4.75607 28.3337 4.18359 27.1853L4.42221 27.0688C5.01103 28.2525 5.31715 29.5541 5.31696 30.8733C5.31677 32.1924 5.01028 33.4939 4.42112 34.6774Z" fill="white"/>
<path opacity="0.7" d="M10.7577 38.4543C9.17547 36.4311 6.85172 35.1053 4.28906 34.7638L4.32502 34.5029C6.95769 34.8533 9.34519 36.2147 10.9713 38.2927L10.7577 38.4543Z" fill="white"/>
<path opacity="0.7" d="M17.3431 42.2221C16.6165 41.155 15.6549 40.2647 14.5306 39.618C13.4063 38.9714 12.1484 38.5851 10.8516 38.4884L10.8723 38.2275C12.2084 38.3275 13.5044 38.7256 14.6628 39.3918C15.8212 40.058 16.8121 40.9752 17.561 42.0744L17.3431 42.2221Z" fill="white"/>
<path opacity="0.7" d="M23.9244 45.9948C23.2977 44.8691 22.3769 43.9306 21.2581 43.2774C20.1394 42.6242 18.8638 42.2803 17.5647 42.2816H17.4492V42.0186H17.5691C18.9157 42.0172 20.2381 42.3737 21.3978 43.0507C22.5576 43.7278 23.5122 44.7007 24.162 45.8676L23.9244 45.9948Z" fill="white"/>
<path opacity="0.7" d="M24.1583 46.0051L23.9404 45.8618C24.6716 44.7471 25.6581 43.8185 26.8199 43.1515C27.9816 42.4844 29.2859 42.0976 30.627 42.0225L30.6412 42.2855C29.3411 42.3575 28.0765 42.7319 26.95 43.3782C25.8236 44.0245 24.8672 44.9245 24.1583 46.0051Z" fill="white"/>
<path opacity="0.7" d="M30.7384 42.2273L30.5205 42.0764C31.2982 40.976 32.316 40.0626 33.4987 39.4038C34.6814 38.745 35.9987 38.3577 37.3531 38.2705L37.3716 38.5324C36.0567 38.617 34.7778 38.9929 33.6296 39.6325C32.4814 40.2721 31.4933 41.1589 30.7384 42.2273Z" fill="white"/>
<path opacity="0.7" d="M37.4716 38.4706L37.2461 38.3327C37.9427 37.2288 38.8948 36.3047 40.0237 35.6367C41.1527 34.9688 42.4261 34.5761 43.7387 34.4912L43.7562 34.7531C42.4858 34.8355 41.2533 35.2156 40.1606 35.862C39.0679 36.5084 38.1462 37.4025 37.4716 38.4706Z" fill="white"/>
<path opacity="0.7" d="M10.8538 16.0543C9.52473 15.9749 8.23354 15.5854 7.08578 14.9178C5.93802 14.2501 4.96628 13.3232 4.25 12.2129L4.47336 12.0728C5.16738 13.1479 6.10876 14.0453 7.22054 14.6916C8.33232 15.3379 9.58293 15.7148 10.8701 15.7913L10.8538 16.0543Z" fill="white"/>
</g>
<defs>
<linearGradient id="paint0_linear" x1="71.7505" y1="32.3109" x2="107.415" y2="99.8557" gradientUnits="userSpaceOnUse">
<stop stop-color="#3275EE"/>
<stop offset="1" stop-color="#5E97FF"/>
</linearGradient>
<linearGradient id="paint1_linear" x1="71.7505" y1="32.3109" x2="107.415" y2="99.8557" gradientUnits="userSpaceOnUse">
<stop stop-color="#3275EE"/>
<stop offset="1" stop-color="#5E97FF"/>
</linearGradient>
<linearGradient id="paint2_linear" x1="71.7505" y1="32.3109" x2="107.415" y2="99.8557" gradientUnits="userSpaceOnUse">
<stop stop-color="#3275EE"/>
<stop offset="1" stop-color="#5E97FF"/>
</linearGradient>
<linearGradient id="paint3_linear" x1="71.7505" y1="32.3109" x2="107.415" y2="99.8557" gradientUnits="userSpaceOnUse">
<stop stop-color="#3275EE"/>
<stop offset="1" stop-color="#5E97FF"/>
</linearGradient>
<linearGradient id="paint4_linear" x1="71.7505" y1="32.3109" x2="107.415" y2="99.8557" gradientUnits="userSpaceOnUse">
<stop stop-color="#3275EE"/>
<stop offset="1" stop-color="#5E97FF"/>
</linearGradient>
<linearGradient id="paint5_linear" x1="71.7505" y1="32.3109" x2="107.415" y2="99.8557" gradientUnits="userSpaceOnUse">
<stop stop-color="#3275EE"/>
<stop offset="1" stop-color="#5E97FF"/>
</linearGradient>
<linearGradient id="paint6_linear" x1="71.7505" y1="32.3109" x2="107.415" y2="99.8557" gradientUnits="userSpaceOnUse">
<stop stop-color="#3275EE"/>
<stop offset="1" stop-color="#5E97FF"/>
</linearGradient>
<linearGradient id="paint7_linear" x1="71.7505" y1="32.3109" x2="107.415" y2="99.8557" gradientUnits="userSpaceOnUse">
<stop stop-color="#3275EE"/>
<stop offset="1" stop-color="#5E97FF"/>
</linearGradient>
<linearGradient id="paint8_linear" x1="71.7505" y1="32.3109" x2="107.415" y2="99.8557" gradientUnits="userSpaceOnUse">
<stop stop-color="#3275EE"/>
<stop offset="1" stop-color="#5E97FF"/>
</linearGradient>
<linearGradient id="paint9_linear" x1="71.7505" y1="32.3109" x2="107.415" y2="99.8557" gradientUnits="userSpaceOnUse">
<stop stop-color="#3275EE"/>
<stop offset="1" stop-color="#5E97FF"/>
</linearGradient>
<linearGradient id="paint10_linear" x1="71.7505" y1="32.3109" x2="107.415" y2="99.8557" gradientUnits="userSpaceOnUse">
<stop stop-color="#3275EE"/>
<stop offset="1" stop-color="#5E97FF"/>
</linearGradient>
<linearGradient id="paint11_linear" x1="71.7505" y1="32.3109" x2="107.415" y2="99.8557" gradientUnits="userSpaceOnUse">
<stop stop-color="#3275EE"/>
<stop offset="1" stop-color="#5E97FF"/>
</linearGradient>
<linearGradient id="paint12_linear" x1="71.7505" y1="32.3109" x2="107.415" y2="99.8557" gradientUnits="userSpaceOnUse">
<stop stop-color="#3275EE"/>
<stop offset="1" stop-color="#5E97FF"/>
</linearGradient>
<linearGradient id="paint13_linear" x1="71.7505" y1="32.3109" x2="107.415" y2="99.8557" gradientUnits="userSpaceOnUse">
<stop stop-color="#3275EE"/>
<stop offset="1" stop-color="#5E97FF"/>
</linearGradient>
<linearGradient id="paint14_linear" x1="71.7505" y1="32.3109" x2="107.415" y2="99.8557" gradientUnits="userSpaceOnUse">
<stop stop-color="#3275EE"/>
<stop offset="1" stop-color="#5E97FF"/>
</linearGradient>
<linearGradient id="paint15_linear" x1="71.7505" y1="32.3109" x2="107.415" y2="99.8557" gradientUnits="userSpaceOnUse">
<stop stop-color="#3275EE"/>
<stop offset="1" stop-color="#5E97FF"/>
</linearGradient>
<linearGradient id="paint16_linear" x1="71.7505" y1="32.3109" x2="107.415" y2="99.8557" gradientUnits="userSpaceOnUse">
<stop stop-color="#3275EE"/>
<stop offset="1" stop-color="#5E97FF"/>
</linearGradient>
<linearGradient id="paint17_linear" x1="71.7505" y1="32.3109" x2="107.415" y2="99.8557" gradientUnits="userSpaceOnUse">
<stop stop-color="#3275EE"/>
<stop offset="1" stop-color="#5E97FF"/>
</linearGradient>
<linearGradient id="paint18_linear" x1="71.7505" y1="32.3109" x2="107.415" y2="99.8557" gradientUnits="userSpaceOnUse">
<stop stop-color="#3275EE"/>
<stop offset="1" stop-color="#5E97FF"/>
</linearGradient>
<linearGradient id="paint19_linear" x1="71.7505" y1="32.3109" x2="107.415" y2="99.8557" gradientUnits="userSpaceOnUse">
<stop stop-color="#3275EE"/>
<stop offset="1" stop-color="#5E97FF"/>
</linearGradient>
<linearGradient id="paint20_linear" x1="71.7505" y1="32.3109" x2="107.415" y2="99.8557" gradientUnits="userSpaceOnUse">
<stop stop-color="#3275EE"/>
<stop offset="1" stop-color="#5E97FF"/>
</linearGradient>
<linearGradient id="paint21_linear" x1="71.7505" y1="32.3109" x2="107.415" y2="99.8557" gradientUnits="userSpaceOnUse">
<stop stop-color="#3275EE"/>
<stop offset="1" stop-color="#5E97FF"/>
</linearGradient>
<linearGradient id="paint22_linear" x1="71.7505" y1="32.3109" x2="107.415" y2="99.8557" gradientUnits="userSpaceOnUse">
<stop stop-color="#3275EE"/>
<stop offset="1" stop-color="#5E97FF"/>
</linearGradient>
<linearGradient id="paint23_linear" x1="71.7505" y1="32.3109" x2="107.415" y2="99.8557" gradientUnits="userSpaceOnUse">
<stop stop-color="#3275EE"/>
<stop offset="1" stop-color="#5E97FF"/>
</linearGradient>
<linearGradient id="paint24_linear" x1="3.95314" y1="6.7619" x2="52.5659" y2="16.0186" gradientUnits="userSpaceOnUse">
<stop stop-color="#3275EE"/>
<stop offset="0.746702" stop-color="#5E97FF"/>
<stop offset="1" stop-color="#5E97FF"/>
</linearGradient>
</defs>
</svg>
