<svg width="72" height="72" viewBox="0 0 72 72" fill="none" xmlns="http://www.w3.org/2000/svg">
<path d="M11 8.67187C11 7.01502 12.3431 5.67188 14 5.67188H58C59.6569 5.67188 61 7.01502 61 8.67188V66.6719C61 68.3287 59.6569 69.6719 58 69.6719H14C12.3431 69.6719 11 68.3287 11 66.6719V8.67187Z" fill="white"/>
<path fill-rule="evenodd" clip-rule="evenodd" d="M14.1 8.77186V66.5719H57.9V8.77186H14.1ZM14 5.67188C12.3431 5.67188 11 7.01502 11 8.67187V66.6719C11 68.3287 12.3431 69.6719 14 69.6719H58C59.6569 69.6719 61 68.3287 61 66.6719V8.67188C61 7.01502 59.6569 5.67188 58 5.67188H14Z" fill="#3275EE"/>
<path fill-rule="evenodd" clip-rule="evenodd" d="M24 54.4494C24 53.5934 24.694 52.8994 25.55 52.8994H36.45C37.306 52.8994 38 53.5934 38 54.4494C38 55.3055 37.306 55.9994 36.45 55.9994H25.55C24.694 55.9994 24 55.3055 24 54.4494Z" fill="#3275EE"/>
<path fill-rule="evenodd" clip-rule="evenodd" d="M24 30.4494C24 29.5934 24.694 28.8994 25.55 28.8994H48.45C49.306 28.8994 50 29.5934 50 30.4494C50 31.3055 49.306 31.9994 48.45 31.9994H25.55C24.694 31.9994 24 31.3055 24 30.4494Z" fill="#3275EE"/>
<path fill-rule="evenodd" clip-rule="evenodd" d="M18.9004 30.4494C18.9004 29.5934 19.5944 28.8994 20.4504 28.8994H20.5504C21.4065 28.8994 22.1004 29.5934 22.1004 30.4494C22.1004 31.3055 21.4065 31.9994 20.5504 31.9994H20.4504C19.5944 31.9994 18.9004 31.3055 18.9004 30.4494Z" fill="#3275EE"/>
<path fill-rule="evenodd" clip-rule="evenodd" d="M18.9004 38.4494C18.9004 37.5934 19.5944 36.8994 20.4504 36.8994H20.5504C21.4065 36.8994 22.1004 37.5934 22.1004 38.4494C22.1004 39.3055 21.4065 39.9994 20.5504 39.9994H20.4504C19.5944 39.9994 18.9004 39.3055 18.9004 38.4494Z" fill="#3275EE"/>
<path fill-rule="evenodd" clip-rule="evenodd" d="M18.9004 46.4494C18.9004 45.5934 19.5944 44.8994 20.4504 44.8994H20.5504C21.4065 44.8994 22.1004 45.5934 22.1004 46.4494C22.1004 47.3055 21.4065 47.9994 20.5504 47.9994H20.4504C19.5944 47.9994 18.9004 47.3055 18.9004 46.4494Z" fill="#3275EE"/>
<path fill-rule="evenodd" clip-rule="evenodd" d="M18.9004 54.4494C18.9004 53.5934 19.5944 52.8994 20.4504 52.8994H20.5504C21.4065 52.8994 22.1004 53.5934 22.1004 54.4494C22.1004 55.3055 21.4065 55.9994 20.5504 55.9994H20.4504C19.5944 55.9994 18.9004 55.3055 18.9004 54.4494Z" fill="#3275EE"/>
<path fill-rule="evenodd" clip-rule="evenodd" d="M18.9004 22.4494C18.9004 21.5934 19.5944 20.8994 20.4504 20.8994H20.5504C21.4065 20.8994 22.1004 21.5934 22.1004 22.4494C22.1004 23.3055 21.4065 23.9994 20.5504 23.9994H20.4504C19.5944 23.9994 18.9004 23.3055 18.9004 22.4494Z" fill="#3275EE"/>
<path fill-rule="evenodd" clip-rule="evenodd" d="M24 38.4494C24 37.5934 24.694 36.8994 25.55 36.8994H48.45C49.306 36.8994 50 37.5934 50 38.4494C50 39.3055 49.306 39.9994 48.45 39.9994H25.55C24.694 39.9994 24 39.3055 24 38.4494Z" fill="#3275EE"/>
<path fill-rule="evenodd" clip-rule="evenodd" d="M24 46.4494C24 45.5934 24.694 44.8994 25.55 44.8994H48.45C49.306 44.8994 50 45.5934 50 46.4494C50 47.3055 49.306 47.9994 48.45 47.9994H25.55C24.694 47.9994 24 47.3055 24 46.4494Z" fill="#3275EE"/>
<path fill-rule="evenodd" clip-rule="evenodd" d="M24 22.4494C24 21.5934 24.694 20.8994 25.55 20.8994H48.45C49.306 20.8994 50 21.5934 50 22.4494C50 23.3055 49.306 23.9994 48.45 23.9994H25.55C24.694 23.9994 24 23.3055 24 22.4494Z" fill="#3275EE"/>
<path d="M24.2568 6.00099C24.2568 4.34413 25.6 3.00098 27.2568 3.00098H45.1205C46.7773 3.00098 48.1205 4.34413 48.1205 6.00099V10.6676C48.1205 12.3245 46.7773 13.6676 45.1205 13.6676H27.2568C25.6 13.6676 24.2568 12.3245 24.2568 10.6676V6.00099Z" fill="white"/>
<path fill-rule="evenodd" clip-rule="evenodd" d="M22.707 6.00117C22.707 3.48827 24.7441 1.45117 27.257 1.45117H45.1206C47.6335 1.45117 49.6706 3.48827 49.6706 6.00117V10.6679C49.6706 13.1808 47.6335 15.2179 45.1206 15.2179H27.257C24.7441 15.2179 22.707 13.1808 22.707 10.6679V6.00117ZM27.257 4.55117C26.4562 4.55117 25.807 5.20035 25.807 6.00117V10.6679C25.807 11.4687 26.4562 12.1179 27.257 12.1179H45.1206C45.9214 12.1179 46.5706 11.4687 46.5706 10.6679V6.00117C46.5706 5.20035 45.9214 4.55117 45.1206 4.55117H27.257Z" fill="#3275EE"/>
</svg>
