<svg width="72" height="72" viewBox="0 0 72 72" fill="none" xmlns="http://www.w3.org/2000/svg">
<g clip-path="url(#clip0)">
<path fill-rule="evenodd" clip-rule="evenodd" d="M43.9017 0.00195312H14.0272C11.9902 0.00195312 10.3389 1.73579 10.3389 3.87458V68.4184C10.3389 70.5572 11.9902 72.2911 14.0272 72.2911H58.2858C60.3227 72.2911 61.974 70.5572 61.974 68.4184V16.7834L43.9017 0.00195312ZM55.7528 15.2343L45.4508 5.66816V12.9108C45.4508 14.194 46.4911 15.2343 47.7744 15.2343H55.7528ZM42.3527 3.10006H14.0272C13.842 3.10006 13.437 3.30265 13.437 3.87458V68.4184C13.437 68.9904 13.842 69.193 14.0272 69.193H58.2858C58.471 69.193 58.8759 68.9904 58.8759 68.4184V18.3324H47.7744C44.78 18.3324 42.3527 15.9051 42.3527 12.9108V3.10006ZM18.6251 40.0192C18.6251 39.1636 19.3187 38.4701 20.1742 38.4701H50.9093C51.7649 38.4701 52.4584 39.1636 52.4584 40.0192C52.4584 40.8747 51.7649 41.5682 50.9093 41.5682H20.1742C19.3187 41.5682 18.6251 40.8747 18.6251 40.0192ZM18.6251 47.7644C18.6251 46.9089 19.3187 46.2154 20.1742 46.2154H36.1565C37.012 46.2154 37.7055 46.9089 37.7055 47.7644C37.7055 48.6199 37.012 49.3135 36.1565 49.3135H20.1742C19.3187 49.3135 18.6251 48.6199 18.6251 47.7644ZM20.0205 55.2515C20.876 55.2515 21.5696 55.945 21.5696 56.8005V61.7059H25.8295C26.685 61.7059 27.3785 62.3994 27.3785 63.2549C27.3785 64.1104 26.685 64.804 25.8295 64.804H21.3114C19.7429 64.804 18.4715 63.5325 18.4715 61.9641V56.8005C18.4715 55.945 19.165 55.2515 20.0205 55.2515ZM18.6251 32.2739C18.6251 31.4184 19.3187 30.7249 20.1742 30.7249H50.9093C51.7649 30.7249 52.4584 31.4184 52.4584 32.2739C52.4584 33.1294 51.7649 33.823 50.9093 33.823H20.1742C19.3187 33.823 18.6251 33.1294 18.6251 32.2739ZM18.6251 24.5286C18.6251 23.6731 19.3187 22.9796 20.1742 22.9796H50.9093C51.7649 22.9796 52.4584 23.6731 52.4584 24.5286C52.4584 25.3842 51.7649 26.0777 50.9093 26.0777H20.1742C19.3187 26.0777 18.6251 25.3842 18.6251 24.5286Z" fill="#3275EE"/>
<path d="M46.5693 66.3542C46.4316 66.3542 46.3146 66.306 46.2182 66.2097C46.1218 66.127 46.0736 66.01 46.0736 65.8585V64.4128C45.0822 64.3164 44.2285 64.0823 43.5125 63.7105C42.8103 63.325 42.2732 62.8568 41.9015 62.306C41.5435 61.7415 41.3507 61.1425 41.3232 60.5091C41.3232 60.3852 41.3645 60.282 41.4471 60.1993C41.5435 60.1167 41.6536 60.0754 41.7776 60.0754H43.6158C43.7672 60.0754 43.8843 60.1098 43.9669 60.1787C44.0633 60.2338 44.1528 60.3301 44.2354 60.4678C44.3868 60.936 44.7035 61.3284 45.1855 61.6451C45.6812 61.9618 46.3627 62.1202 47.2302 62.1202C48.1941 62.1202 48.9238 61.9618 49.4195 61.6451C49.9152 61.3147 50.1631 60.8603 50.1631 60.2819C50.1631 59.8964 50.0392 59.5797 49.7913 59.3319C49.5435 59.084 49.1648 58.8706 48.6553 58.6916C48.1459 58.4988 47.3954 58.2785 46.4041 58.0307C44.7793 57.6451 43.5882 57.1357 42.8309 56.5023C42.0874 55.8551 41.7156 54.9394 41.7156 53.7553C41.7156 52.6813 42.1011 51.7794 42.8722 51.0496C43.6571 50.3061 44.7242 49.8517 46.0736 49.6864V48.2613C46.0736 48.1098 46.1218 47.9928 46.2182 47.9102C46.3146 47.8138 46.4316 47.7656 46.5693 47.7656H47.8292C47.9669 47.7656 48.0839 47.8138 48.1803 47.9102C48.2767 48.0066 48.3249 48.1236 48.3249 48.2613V49.7277C49.2199 49.8517 49.9841 50.1202 50.6175 50.5333C51.2646 50.9326 51.7534 51.4007 52.0839 51.9377C52.4281 52.4747 52.614 52.998 52.6416 53.5074C52.6416 53.6314 52.6003 53.7346 52.5176 53.8172C52.435 53.8999 52.3318 53.9412 52.2078 53.9412H50.287C49.9841 53.9412 49.7775 53.8104 49.6674 53.5487C49.5985 53.1081 49.33 52.7432 48.8619 52.4541C48.3937 52.1512 47.8085 51.9997 47.1063 51.9997C46.349 51.9997 45.75 52.1443 45.3094 52.4334C44.8688 52.7226 44.6485 53.1425 44.6485 53.6933C44.6485 54.0789 44.7586 54.3956 44.9789 54.6434C45.1992 54.8913 45.5435 55.1116 46.0116 55.3043C46.4936 55.4971 47.182 55.7105 48.077 55.9446C49.2887 56.22 50.2526 56.5298 50.9686 56.874C51.6984 57.2183 52.2354 57.652 52.5796 58.1752C52.9238 58.6985 53.096 59.3663 53.096 60.1787C53.096 61.3628 52.6691 62.3336 51.8154 63.0909C50.9617 63.8344 49.7982 64.2819 48.3249 64.4334V65.8585C48.3249 65.9962 48.2767 66.1133 48.1803 66.2097C48.0839 66.306 47.9669 66.3542 47.8292 66.3542H46.5693Z" fill="#3275EE"/>
</g>
<defs>
<clipPath id="clip0">
<rect width="72" height="72" fill="white"/>
</clipPath>
</defs>
</svg>
