<svg xmlns="http://www.w3.org/2000/svg" viewBox="0 0 55.22 55.5"><defs><style>.cls-1{fill:none;stroke:#3275ee;stroke-width:2.4px;}.cls-2{fill:#3275ee;}.cls-3{fill:#fff;}</style></defs><title>Asset 10</title><g id="Layer_2" data-name="Layer 2"><g id="Layer_1-2" data-name="Layer 1"><circle class="cls-1" cx="24.06" cy="24.06" r="22.86"/><path class="cls-1" d="M33.56,24.06a42.06,42.06,0,0,1-3,16.53,14.92,14.92,0,0,1-3.13,4.77,4.89,4.89,0,0,1-3.34,1.56,4.87,4.87,0,0,1-3.33-1.56,14.76,14.76,0,0,1-3.13-4.77,41.88,41.88,0,0,1-3-16.53,41.83,41.83,0,0,1,3-16.52,14.93,14.93,0,0,1,3.13-4.78A4.87,4.87,0,0,1,24.06,1.2,4.89,4.89,0,0,1,27.4,2.76a15.1,15.1,0,0,1,3.13,4.78A42,42,0,0,1,33.56,24.06Z"/><line class="cls-1" y1="23.61" x2="48.13" y2="23.61"/><path class="cls-1" d="M4.25,37.19c6.2-2.43,22.73-5.83,39.26,0"/><path class="cls-1" d="M43.87,10.94c-6.2,2.43-22.72,5.83-39.25,0"/><path class="cls-2" d="M31,48.59a2.05,2.05,0,0,1-2.07-2c0-2.06,1.05-2.6,2-2.69h0a2.05,2.05,0,0,1-2-1.77L26.48,25.47l-3-.64a2,2,0,0,1-1.31-.91,2,2,0,0,1-.26-1.52l0-.17c.09-.54.31-2,2.53-2h.1l4.41.88c1.37.15,1.72,2.5,1.73,2.6L31.86,29H52.05a2.22,2.22,0,0,1,1.87.89,1.7,1.7,0,0,1,.17,1.62l-3.45,8.86a2,2,0,0,1-1.26,1.19,3.83,3.83,0,0,1,1.29,4,4.07,4.07,0,0,1-4,3Zm.12-4.73-.16,0H44.25l-1.7-1.46ZM33.21,39l14-1.57,1.28-3.77H32.41Z"/><path class="cls-3" d="M24.49,21.25l4.38.87c.43,0,.81,1.33.87,1.75L31.05,30h21c.75,0,1.37.48,1.11,1.15L49.71,40a1.07,1.07,0,0,1-.87.65L46.49,41l1.84,1.1a3,3,0,0,1-1.65,5.54H31a1,1,0,0,1-1.07-1C30,46,30,45,31,44.87H46.68c.12,0,.1-.36-.75-.87l-3.06-2.63L31,42.87H30.9a1.05,1.05,0,0,1-1.06-.9L27.38,24.64l-3.67-.79a1,1,0,0,1-.8-1.22c.12-.55,0-1.38,1.58-1.38m7.88,18.81,15.56-1.75,1.94-5.69H31.25l1.12,7.44M24.69,19.25h-.2A3.19,3.19,0,0,0,21,22.07s0,.08,0,.11a2.93,2.93,0,0,0,.38,2.27,3.14,3.14,0,0,0,1.95,1.36l2.3.49,2.27,16A2.94,2.94,0,0,0,28.71,44,4.08,4.08,0,0,0,28,46.57a3,3,0,0,0,3.07,3H46.68a5.06,5.06,0,0,0,5-3.71,4.86,4.86,0,0,0-.73-4.13,3,3,0,0,0,.66-1L55,31.88a2.72,2.72,0,0,0-.27-2.55A3.24,3.24,0,0,0,52.05,28H32.67l-1-4.49c-.1-.58-.63-3.15-2.57-3.37l-4.26-.85-.19,0Zm8.88,15.37h13.5l-.62,1.85L34.06,37.86l-.49-3.24Z"/><path class="cls-2" d="M33.36,55a3.37,3.37,0,1,1,3.49-3.37A3.44,3.44,0,0,1,33.36,55Zm0-3.69a.33.33,0,1,0,.35.32A.35.35,0,0,0,33.36,51.31Z"/><path class="cls-3" d="M33.36,48.77a2.87,2.87,0,1,1-3,2.86,2.93,2.93,0,0,1,3-2.86m0,3.69a.83.83,0,1,0-.86-.83.84.84,0,0,0,.86.83m0-4.69a3.87,3.87,0,1,0,4,3.86,3.93,3.93,0,0,0-4-3.86Z"/><path class="cls-2" d="M43.66,55a3.37,3.37,0,1,1,3.5-3.37A3.44,3.44,0,0,1,43.66,55Zm0-3.69a.33.33,0,1,0,0,.65.33.33,0,1,0,0-.65Z"/><path class="cls-3" d="M43.66,48.77a2.87,2.87,0,1,1-3,2.86,2.93,2.93,0,0,1,3-2.86m0,3.69a.83.83,0,1,0-.85-.83.84.84,0,0,0,.85.83m0-4.69a3.87,3.87,0,1,0,4,3.86,3.93,3.93,0,0,0-4-3.86Z"/><polygon class="cls-3" points="32.03 33.2 33.36 39.23 46.66 37.79 48.59 33.2 32.03 33.2"/></g></g></svg>