<svg width="64" height="64" viewBox="0 0 64 64" fill="none" xmlns="http://www.w3.org/2000/svg">
<circle cx="32" cy="32" r="32" fill="#F9F9F9"/>
<g clip-path="url(#clip0)">
<path d="M29.5574 45.1256C38.2456 45.1256 45.2887 38.118 45.2887 29.4737C45.2887 20.8294 38.2456 13.8218 29.5574 13.8218C20.8693 13.8218 13.8262 20.8294 13.8262 29.4737C13.8262 38.118 20.8693 45.1256 29.5574 45.1256Z" stroke="#3275EE" stroke-width="1.57"/>
<path d="M36.0946 29.4737C36.1784 33.346 35.4762 37.1954 34.0301 40.7915C33.53 42.0079 32.7986 43.1168 31.8762 44.0575C31.2794 44.6982 30.4546 45.0815 29.5777 45.1256C28.703 45.0812 27.8804 44.6978 27.2862 44.0575C26.3616 43.1185 25.6299 42.0092 25.1323 40.7915C23.6828 37.1964 22.9805 33.3463 23.0678 29.4737C22.9805 25.6033 23.6828 21.7554 25.1323 18.1627C25.6318 16.944 26.3631 15.8327 27.2862 14.8899C27.8754 14.2544 28.6896 13.8714 29.5571 13.8218C30.434 13.8659 31.2588 14.2492 31.8555 14.8899C32.7763 15.8345 33.5074 16.9453 34.0095 18.1627C35.4628 21.7549 36.1721 25.6021 36.0946 29.4737V29.4737Z" stroke="#3275EE" stroke-width="1.57"/>
<path d="M13 29.1655H46.121" stroke="#3275EE" stroke-width="1.57"/>
<path d="M15.9248 38.4635C20.1914 36.7997 31.5666 34.4718 42.9418 38.4635" stroke="#3275EE" stroke-width="1.57"/>
<path d="M43.1898 20.4907C38.9233 22.1545 27.5549 24.4824 16.1797 20.4907" stroke="#3275EE" stroke-width="1.57"/>
<path d="M34.3324 46.2687C33.9618 46.2724 33.6046 46.1309 33.338 45.8746C33.0715 45.6184 32.917 45.268 32.908 44.8994C32.908 43.4889 33.6305 43.1192 34.2843 43.0576C33.9472 43.0525 33.623 42.9275 33.3705 42.7052C33.1181 42.4829 32.954 42.178 32.908 41.8457L31.222 30.4388L29.1575 30.0006C28.9723 29.9639 28.7967 29.8896 28.6416 29.7824C28.4865 29.6752 28.3553 29.5374 28.256 29.3776C28.1585 29.2245 28.0924 29.0537 28.0617 28.875C28.031 28.6964 28.0362 28.5135 28.0771 28.3368V28.2204C28.139 27.8507 28.2904 26.8511 29.8181 26.8511H29.887L32.9217 27.4536C33.8645 27.5563 34.1054 29.1653 34.1122 29.2338L34.9243 32.8558H48.8181C49.0663 32.8456 49.3131 32.8958 49.5374 33.002C49.7616 33.1082 49.9564 33.2671 50.105 33.4651C50.2162 33.6255 50.2853 33.8111 50.3057 34.0049C50.3261 34.1987 50.2973 34.3945 50.222 34.5743L47.8478 40.6406C47.774 40.8324 47.6577 41.0053 47.5076 41.1463C47.3575 41.2874 47.1775 41.393 46.9808 41.4554C47.381 41.7761 47.6782 42.2062 47.8359 42.6928C47.9936 43.1794 48.005 43.7012 47.8685 44.1941C47.7047 44.7924 47.3451 45.3193 46.8466 45.6913C46.348 46.0633 45.739 46.2593 45.1159 46.2482L34.3324 46.2687ZM34.415 43.0302H34.3049H43.4505L42.2807 42.0305L34.415 43.0302ZM35.8533 39.7026L45.4875 38.6277L46.3683 36.0464H35.3027L35.8533 39.7026Z" fill="#3275EE"/>
<path d="M29.8529 27.5498L32.8671 28.1455C33.163 28.1455 33.4245 29.0561 33.4657 29.3437L34.3672 33.5408H48.8185C49.3346 33.5408 49.7613 33.8694 49.5824 34.3282L47.2082 40.3876C47.1574 40.5082 47.0751 40.6131 46.9699 40.6914C46.8646 40.7696 46.7402 40.8184 46.6095 40.8327L44.9924 41.0723L46.2586 41.8255C46.6406 42.0642 46.9335 42.4208 47.0925 42.8408C47.2515 43.2608 47.2679 43.7211 47.1391 44.1512C47.0104 44.5814 46.7436 44.9577 46.3795 45.2227C46.0154 45.4877 45.5741 45.6268 45.1231 45.6186H34.3328C34.2385 45.6252 34.1438 45.6124 34.0547 45.5809C33.9655 45.5495 33.8839 45.5001 33.8148 45.4359C33.7457 45.3716 33.6906 45.2939 33.6531 45.2075C33.6155 45.1212 33.5963 45.028 33.5965 44.9339C33.6447 44.4958 33.6447 43.8111 34.3328 43.7221H45.1231C45.2057 43.7221 45.1919 43.4756 44.607 43.1264L42.5012 41.3257L34.3328 42.3527H34.264C34.0878 42.3562 33.9164 42.2954 33.7821 42.1819C33.6477 42.0684 33.5597 41.91 33.5346 41.7365L31.8417 29.8709L29.3162 29.33C29.2235 29.3139 29.1351 29.279 29.0565 29.2276C28.9778 29.1762 28.9107 29.1092 28.8591 29.031C28.8075 28.9527 28.7726 28.8647 28.7565 28.7724C28.7404 28.6802 28.7435 28.5857 28.7656 28.4947C28.8482 28.1181 28.7656 27.5498 29.8529 27.5498ZM35.2756 40.4287L45.9833 39.2305L47.3183 35.3347H34.5049L35.2756 40.4287ZM29.9906 26.1804H29.8529C29.2777 26.1228 28.7029 26.2932 28.2532 26.6547C27.8036 27.0162 27.5154 27.5396 27.4513 28.1112C27.4513 28.1112 27.4513 28.166 27.4513 28.1866C27.3871 28.4498 27.3773 28.7232 27.4222 28.9903C27.4671 29.2574 27.566 29.5127 27.7128 29.7408C28.0201 30.2142 28.502 30.5486 29.0547 30.672L30.6374 31.0075L32.1995 41.9624C32.2521 42.4007 32.4479 42.8097 32.7569 43.1264C32.4006 43.6419 32.2286 44.2616 32.2684 44.886C32.2683 45.1598 32.3232 45.4309 32.43 45.6833C32.5367 45.9357 32.6931 46.1643 32.89 46.3557C33.0868 46.547 33.3201 46.6973 33.5762 46.7977C33.8322 46.8981 34.1059 46.9465 34.381 46.9401H45.1231C45.8992 46.9589 46.6593 46.7191 47.2827 46.2588C47.9061 45.7986 48.357 45.1443 48.5639 44.3999C48.6977 43.9211 48.722 43.4187 48.6351 42.9293C48.5481 42.44 48.3522 41.9763 48.0615 41.5721C48.2577 41.3766 48.4121 41.1438 48.5157 40.8875L50.8486 34.828C50.9643 34.5442 51.0079 34.2364 50.9754 33.9319C50.943 33.6273 50.8356 33.3354 50.6628 33.0821C50.4516 32.794 50.1737 32.5608 49.8526 32.4023C49.5316 32.2437 49.1769 32.1646 48.8185 32.1714H35.482L34.7939 29.0972C34.7251 28.7001 34.3604 26.9404 33.0253 26.7898L30.0938 26.2078H29.963L29.9906 26.1804ZM36.1014 36.704H45.3915L44.9648 37.9707L36.4386 38.9224L36.1014 36.704Z" fill="#F9F9F9"/>
<path d="M35.9572 50.6577C35.5024 50.6416 35.0624 50.4927 34.6921 50.2296C34.3217 49.9664 34.0374 49.6007 33.8744 49.1779C33.7115 48.7551 33.6772 48.294 33.7758 47.8519C33.8744 47.4099 34.1015 47.0065 34.4289 46.692C34.7563 46.3774 35.1694 46.1657 35.6169 46.0831C36.0643 46.0006 36.5263 46.0508 36.9453 46.2276C37.3643 46.4044 37.7217 46.6999 37.9731 47.0774C38.2244 47.4549 38.3586 47.8976 38.3589 48.3504C38.3462 48.9727 38.0865 49.5647 37.6365 49.997C37.1865 50.4294 36.5827 50.6669 35.9572 50.6577ZM35.9572 48.1313C35.9127 48.134 35.87 48.1497 35.8344 48.1764C35.7987 48.2031 35.7718 48.2396 35.757 48.2815C35.7421 48.3233 35.7399 48.3686 35.7508 48.4116C35.7616 48.4547 35.7849 48.4936 35.8178 48.5235C35.8507 48.5535 35.8918 48.5731 35.9359 48.58C35.9799 48.5869 36.025 48.5807 36.0656 48.5622C36.1061 48.5438 36.1403 48.5138 36.1639 48.4761C36.1875 48.4385 36.1993 48.3947 36.1981 48.3504C36.1929 48.2904 36.1652 48.2346 36.1206 48.194C36.076 48.1534 36.0177 48.131 35.9572 48.1313Z" fill="#3275EE"/>
<path d="M35.9565 46.3922C36.3431 46.4096 36.7161 46.5397 37.029 46.7662C37.342 46.9928 37.5811 47.3058 37.7168 47.6664C37.8524 48.0271 37.8786 48.4194 37.792 48.7947C37.7054 49.17 37.51 49.5118 37.2298 49.7775C36.9497 50.0432 36.5973 50.2211 36.2164 50.2892C35.8355 50.3573 35.4428 50.3126 35.0873 50.1606C34.7317 50.0085 34.4289 49.7559 34.2164 49.4341C34.0039 49.1123 33.8911 48.7354 33.892 48.3503C33.8983 48.0869 33.9567 47.8272 34.0638 47.5862C34.171 47.3452 34.3248 47.1275 34.5165 46.9457C34.7082 46.7638 34.9341 46.6213 35.1812 46.5264C35.4282 46.4314 35.6917 46.3858 35.9565 46.3922ZM35.9565 48.9186C36.0685 48.9146 36.1768 48.8779 36.268 48.813C36.3592 48.7482 36.4292 48.6581 36.4693 48.554C36.5093 48.4498 36.5177 48.3363 36.4934 48.2274C36.4691 48.1186 36.4132 48.0192 36.3325 47.9418C36.2519 47.8644 36.1501 47.8123 36.0399 47.7919C35.9297 47.7716 35.816 47.784 35.7128 47.8276C35.6096 47.8711 35.5216 47.9439 35.4597 48.0369C35.3978 48.1298 35.3648 48.2388 35.3647 48.3503C35.3656 48.4265 35.3817 48.5016 35.412 48.5715C35.4423 48.6414 35.4862 48.7046 35.5413 48.7575C35.5963 48.8104 35.6614 48.8518 35.7327 48.8795C35.8039 48.9071 35.88 48.9205 35.9565 48.9186ZM35.9565 45.7075C35.4337 45.725 34.9276 45.8953 34.5014 46.1971C34.0752 46.499 33.7479 46.9191 33.5602 47.4049C33.3724 47.8908 33.3327 48.4209 33.4459 48.9291C33.5591 49.4372 33.8202 49.901 34.1967 50.2624C34.5731 50.6238 35.0482 50.867 35.5627 50.9614C36.0771 51.0559 36.6082 50.9975 37.0895 50.7936C37.5708 50.5896 37.9811 50.2491 38.2691 49.8146C38.5572 49.3801 38.7102 48.8709 38.7091 48.3503C38.7029 47.997 38.6267 47.6483 38.485 47.3242C38.3432 47.0001 38.1387 46.707 37.8831 46.4616C37.6275 46.2161 37.3258 46.0232 36.9952 45.8938C36.6646 45.7644 36.3117 45.7011 35.9565 45.7075Z" fill="#F9F9F9"/>
<path d="M43.0451 50.658C42.5906 50.6405 42.1513 50.4905 41.7819 50.2266C41.4125 49.9627 41.1292 49.5965 40.9673 49.1737C40.8054 48.7508 40.7721 48.2899 40.8714 47.8483C40.9708 47.4068 41.1984 47.004 41.526 46.6902C41.8536 46.3763 42.2667 46.1652 42.714 46.0832C43.1612 46.0011 43.6229 46.0517 44.0414 46.2287C44.46 46.4056 44.817 46.7011 45.0681 47.0784C45.3192 47.4557 45.4533 47.8981 45.4536 48.3506C45.4409 48.9741 45.1803 49.5671 44.7288 49.9997C44.2772 50.4322 43.6717 50.669 43.0451 50.658ZM43.0451 48.1315C43.0124 48.1258 42.9789 48.1272 42.9469 48.1358C42.9148 48.1443 42.8851 48.1597 42.8597 48.1809C42.8343 48.2022 42.8139 48.2286 42.7999 48.2585C42.7858 48.2884 42.7786 48.321 42.7786 48.354C42.7786 48.387 42.7858 48.4196 42.7999 48.4495C42.8139 48.4794 42.8343 48.5059 42.8597 48.5271C42.8851 48.5483 42.9148 48.5637 42.9469 48.5723C42.9789 48.5808 43.0124 48.5823 43.0451 48.5765C43.0777 48.5823 43.1112 48.5808 43.1433 48.5723C43.1753 48.5637 43.205 48.5483 43.2304 48.5271C43.2558 48.5059 43.2762 48.4794 43.2903 48.4495C43.3043 48.4196 43.3115 48.387 43.3115 48.354C43.3115 48.321 43.3043 48.2884 43.2903 48.2585C43.2762 48.2286 43.2558 48.2022 43.2304 48.1809C43.205 48.1597 43.1753 48.1443 43.1433 48.1358C43.1112 48.1272 43.0777 48.1258 43.0451 48.1315Z" fill="#3275EE"/>
<path d="M43.0454 46.3922C43.432 46.4096 43.8049 46.5397 44.1179 46.7662C44.4308 46.9928 44.67 47.3058 44.8056 47.6664C44.9413 48.0271 44.9675 48.4194 44.8809 48.7947C44.7943 49.17 44.5988 49.5118 44.3187 49.7775C44.0386 50.0432 43.6862 50.2211 43.3053 50.2892C42.9244 50.3573 42.5317 50.3126 42.1761 50.1606C41.8206 50.0085 41.5177 49.7559 41.3052 49.4341C41.0927 49.1123 40.98 48.7354 40.9809 48.3503C40.9872 48.0869 41.0455 47.8272 41.1527 47.5862C41.2598 47.3452 41.4137 47.1275 41.6054 46.9457C41.7971 46.7638 42.0229 46.6213 42.27 46.5264C42.5171 46.4314 42.7806 46.3858 43.0454 46.3922ZM43.0454 48.9186C43.1577 48.9159 43.2668 48.8803 43.3589 48.8163C43.451 48.7522 43.522 48.6626 43.5632 48.5585C43.6043 48.4545 43.6137 48.3406 43.5901 48.2313C43.5665 48.122 43.5111 48.022 43.4307 47.9439C43.3503 47.8658 43.2485 47.813 43.1381 47.7922C43.0277 47.7713 42.9135 47.7834 42.81 47.8268C42.7064 47.8701 42.618 47.943 42.5558 48.0361C42.4937 48.1292 42.4605 48.2385 42.4604 48.3503C42.4613 48.4259 42.4772 48.5005 42.5071 48.5699C42.537 48.6394 42.5803 48.7023 42.6346 48.755C42.6889 48.8078 42.7532 48.8494 42.8236 48.8775C42.8941 48.9056 42.9695 48.9195 43.0454 48.9186ZM43.0454 45.7075C42.5225 45.725 42.0164 45.8953 41.5903 46.1971C41.1641 46.499 40.8367 46.9191 40.649 47.4049C40.4613 47.8908 40.4216 48.4209 40.5348 48.9291C40.648 49.4372 40.9091 49.901 41.2855 50.2624C41.662 50.6238 42.1371 50.867 42.6515 50.9614C43.166 51.0559 43.697 50.9975 44.1783 50.7936C44.6597 50.5896 45.0699 50.2491 45.358 49.8146C45.646 49.3801 45.7991 48.8709 45.798 48.3503C45.7917 47.997 45.7156 47.6483 45.5738 47.3242C45.4321 47.0001 45.2276 46.707 44.972 46.4616C44.7163 46.2161 44.4146 46.0232 44.0841 45.8938C43.7535 45.7644 43.4006 45.7011 43.0454 45.7075Z" fill="#F9F9F9"/>
<path d="M35.042 35.7314L35.9572 39.8601L45.1097 38.8741L46.4379 35.7314H35.042Z" fill="#F9F9F9"/>
</g>
<defs>
<clipPath id="clip0">
<rect width="38" height="38" fill="white" transform="translate(13 13)"/>
</clipPath>
</defs>
</svg>
