<svg width="56" height="56" viewBox="0 0 56 56" fill="none" xmlns="http://www.w3.org/2000/svg">
<g clip-path="url(#clip0)">
<path d="M26.0339 50.1689H2.01855V55.0002H26.0339V50.1689Z" stroke="#3275EE" stroke-width="2.4" stroke-linecap="round" stroke-linejoin="round"/>
<path d="M21.9292 44.9814H6.19141V49.8127H21.9292V44.9814Z" stroke="#3275EE" stroke-width="2.4" stroke-linecap="round" stroke-linejoin="round"/>
<path d="M8.84987 40.81L3.67285 35.8112L10.8324 34.7779L14.0269 28.3643L17.2214 34.7779L24.3809 35.8112L19.2039 40.81" stroke="#3275EE" stroke-width="2.4" stroke-linecap="round" stroke-linejoin="round"/>
<path d="M35.2989 18.9507L52.9816 36.4697L48.9978 40.4259L31.3151 22.8976L28.7219 25.4668L21.4121 18.2246L31.2212 8.50635L38.5498 15.7764L35.2989 18.9507Z" stroke="#3275EE" stroke-width="2.4" stroke-linecap="round" stroke-linejoin="round"/>
<path d="M19.1904 16.0248L14.666 20.5073L25.8275 31.5655L30.3519 27.083L19.1904 16.0248Z" stroke="#3275EE" stroke-width="2.4" stroke-linecap="round" stroke-linejoin="round"/>
<path d="M33.6836 1.99992L29.1592 6.48242L40.3207 17.5406L44.8451 13.0581L33.6836 1.99992Z" stroke="#3275EE" stroke-width="2.4" stroke-linecap="round" stroke-linejoin="round"/>
</g>
<defs>
<clipPath id="clip0">
<rect width="56" height="56" fill="white"/>
</clipPath>
</defs>
</svg>
