<svg width="56" height="56" viewBox="0 0 56 56" fill="none" xmlns="http://www.w3.org/2000/svg">
<path d="M10.8571 1.2H33.5288L46.8 13.5233V53C46.8 54.05 46.0036 54.8 45.1429 54.8H10.8571C9.99643 54.8 9.2 54.05 9.2 53V3C9.2 1.95004 9.99643 1.2 10.8571 1.2Z" stroke="#3275EE" stroke-width="2.4" stroke-linecap="round"/>
<path d="M36.064 51.4C35.9573 51.4 35.8667 51.3627 35.792 51.288C35.7173 51.224 35.68 51.1333 35.68 51.016V49.896C34.912 49.8213 34.2507 49.64 33.696 49.352C33.152 49.0533 32.736 48.6907 32.448 48.264C32.1707 47.8267 32.0213 47.3627 32 46.872C32 46.776 32.032 46.696 32.096 46.632C32.1707 46.568 32.256 46.536 32.352 46.536H33.776C33.8933 46.536 33.984 46.5627 34.048 46.616C34.1227 46.6587 34.192 46.7333 34.256 46.84C34.3733 47.2027 34.6187 47.5067 34.992 47.752C35.376 47.9973 35.904 48.12 36.576 48.12C37.3227 48.12 37.888 47.9973 38.272 47.752C38.656 47.496 38.848 47.144 38.848 46.696C38.848 46.3973 38.752 46.152 38.56 45.96C38.368 45.768 38.0747 45.6027 37.68 45.464C37.2853 45.3147 36.704 45.144 35.936 44.952C34.6773 44.6533 33.7547 44.2587 33.168 43.768C32.592 43.2667 32.304 42.5573 32.304 41.64C32.304 40.808 32.6027 40.1093 33.2 39.544C33.808 38.968 34.6347 38.616 35.68 38.488V37.384C35.68 37.2667 35.7173 37.176 35.792 37.112C35.8667 37.0373 35.9573 37 36.064 37H37.04C37.1467 37 37.2373 37.0373 37.312 37.112C37.3867 37.1867 37.424 37.2773 37.424 37.384V38.52C38.1173 38.616 38.7093 38.824 39.2 39.144C39.7013 39.4533 40.08 39.816 40.336 40.232C40.6027 40.648 40.7467 41.0533 40.768 41.448C40.768 41.544 40.736 41.624 40.672 41.688C40.608 41.752 40.528 41.784 40.432 41.784H38.944C38.7093 41.784 38.5493 41.6827 38.464 41.48C38.4107 41.1387 38.2027 40.856 37.84 40.632C37.4773 40.3973 37.024 40.28 36.48 40.28C35.8933 40.28 35.4293 40.392 35.088 40.616C34.7467 40.84 34.576 41.1653 34.576 41.592C34.576 41.8907 34.6613 42.136 34.832 42.328C35.0027 42.52 35.2693 42.6907 35.632 42.84C36.0053 42.9893 36.5387 43.1547 37.232 43.336C38.1707 43.5493 38.9173 43.7893 39.472 44.056C40.0373 44.3227 40.4533 44.6587 40.72 45.064C40.9867 45.4693 41.12 45.9867 41.12 46.616C41.12 47.5333 40.7893 48.2853 40.128 48.872C39.4667 49.448 38.5653 49.7947 37.424 49.912V51.016C37.424 51.1227 37.3867 51.2133 37.312 51.288C37.2373 51.3627 37.1467 51.4 37.04 51.4H36.064Z" fill="#3275EE"/>
</svg>
