<svg width="44" height="56" viewBox="0 0 44 56" fill="none" xmlns="http://www.w3.org/2000/svg">
<path d="M40.4185 20.915H3.82157C2.81554 20.915 2 21.7257 2 22.7256V26.4839C2 27.4839 2.81554 28.2945 3.82157 28.2945H40.4185C41.4245 28.2945 42.2401 27.4839 42.2401 26.4839V22.7256C42.2401 21.7257 41.4245 20.915 40.4185 20.915Z" stroke="#3275EE" stroke-width="2.4" stroke-miterlimit="10"/>
<path d="M7.64994 21.3356C6.82071 19.103 6.54482 16.7047 6.84564 14.3437C7.14646 11.9828 8.01512 9.72856 9.3781 7.77196C10.7411 5.81536 12.5583 4.21396 14.6758 3.1033C16.7934 1.99265 19.149 1.40544 21.5432 1.39137C23.9374 1.37731 26.2998 1.93681 28.4305 3.02251C30.5611 4.10822 32.3972 5.68816 33.7833 7.62861C35.1695 9.56907 36.0649 11.8129 36.3937 14.1702C36.7226 16.5275 36.4752 18.9288 35.6726 21.171" stroke="#3275EE" stroke-width="2.4" stroke-miterlimit="10"/>
<path d="M7.10449 28.9533L16.5435 41.9932C16.9128 42.5052 17.1122 43.1189 17.1139 43.7489V51.613C17.1139 52.4134 17.4338 53.1809 18.0031 53.7468C18.5725 54.3128 19.3447 54.6307 20.1498 54.6307H22.9098C23.3085 54.6307 23.7033 54.5526 24.0716 54.401C24.4399 54.2493 24.7746 54.0271 25.0565 53.7468C25.3384 53.4666 25.5621 53.134 25.7146 52.7678C25.8672 52.4017 25.9457 52.0093 25.9457 51.613V43.566C25.9411 42.9082 26.1509 42.2666 26.5437 41.7371L36.1575 28.9351" stroke="#3275EE" stroke-width="2.4" stroke-miterlimit="10"/>
<path d="M23.457 20.0005C23.4594 19.8 23.4063 19.6032 23.3046 19.4351C23.2028 19.267 23.0569 19.1351 22.8854 19.0561C22.3171 18.858 21.7298 18.7292 21.1347 18.6722C20.3646 18.5411 19.6032 18.3565 18.8554 18.1194C18.2578 17.9243 17.7182 17.5643 17.2905 17.0752C16.8175 16.4877 16.5788 15.7237 16.626 14.9484C16.615 14.2098 16.8337 13.4883 17.2476 12.8985C17.7137 12.2567 18.341 11.7718 19.0554 11.5011C19.9577 11.1516 20.9118 10.9824 21.8707 11.002C22.7688 11.0152 23.6637 11.1206 24.5431 11.3168C24.882 11.3943 25.2161 11.4943 25.5435 11.6162C25.6717 11.668 25.7885 11.7477 25.8867 11.8503C25.9848 11.953 26.0621 12.0763 26.1138 12.2126C26.1655 12.3488 26.1904 12.4951 26.1869 12.6422C26.1834 12.7893 26.1517 12.9341 26.0937 13.0674L25.8364 13.6509C25.7248 13.8963 25.5309 14.0873 25.2937 14.1855C25.0565 14.2838 24.7935 14.282 24.5574 14.1807C23.6945 13.8517 22.7863 13.6804 21.8707 13.6739C21.1021 13.6493 20.3348 13.7582 19.5985 13.9964C19.4478 14.0644 19.3181 14.177 19.2245 14.3211C19.1309 14.4651 19.0772 14.6347 19.0697 14.8102C19.0728 14.988 19.1306 15.1598 19.234 15.2986C19.3374 15.4375 19.4806 15.5357 19.6414 15.578C20.4694 15.7709 21.3066 15.9145 22.1494 16.008C22.9164 16.1367 23.6752 16.3162 24.4216 16.5454C25.014 16.7303 25.5478 17.0861 25.9651 17.5743C26.4275 18.2621 26.657 19.0993 26.6153 19.9467" fill="#3275EE"/>
<path d="M22.6201 10.2068C22.6201 9.54059 22.1724 9.00049 21.6201 9.00049C21.0678 9.00049 20.6201 9.54059 20.6201 10.2068V11.7941C20.6201 12.4604 21.0678 13.0005 21.6201 13.0005C22.1724 13.0005 22.6201 12.4604 22.6201 11.7941V10.2068Z" fill="#3275EE"/>
</svg>
