<svg width="40" height="56" viewBox="0 0 40 56" fill="none" xmlns="http://www.w3.org/2000/svg">
<path fill-rule="evenodd" clip-rule="evenodd" d="M26 0H2.85714C1.27919 0 0 1.34314 0 3V53C0 54.6569 1.27919 56 2.85714 56H37.1429C38.7208 56 40 54.6569 40 53V13L26 0ZM35.1806 11.8L27.2 4.38943V10C27.2 10.9941 28.0059 11.8 29 11.8H35.1806ZM24.8 2.4H2.85714C2.71367 2.4 2.4 2.55694 2.4 3V53C2.4 53.4431 2.71367 53.6 2.85714 53.6H37.1429C37.2863 53.6 37.6 53.4431 37.6 53V14.2H29C26.6804 14.2 24.8 12.3196 24.8 10V2.4ZM6.41905 31C6.41905 30.3373 6.95631 29.8 7.61905 29.8H31.4286C32.0913 29.8 32.6286 30.3373 32.6286 31C32.6286 31.6627 32.0913 32.2 31.4286 32.2H7.61905C6.95631 32.2 6.41905 31.6627 6.41905 31ZM6.41905 37C6.41905 36.3373 6.95631 35.8 7.61905 35.8H20C20.6627 35.8 21.2 36.3373 21.2 37C21.2 37.6627 20.6627 38.2 20 38.2H7.61905C6.95631 38.2 6.41905 37.6627 6.41905 37ZM7.5 42.8C8.16274 42.8 8.7 43.3373 8.7 44V47.8H12C12.6627 47.8 13.2 48.3373 13.2 49C13.2 49.6627 12.6627 50.2 12 50.2H8.5C7.28497 50.2 6.3 49.215 6.3 48V44C6.3 43.3373 6.83726 42.8 7.5 42.8ZM6.41905 25C6.41905 24.3373 6.95631 23.8 7.61905 23.8H31.4286C32.0913 23.8 32.6286 24.3373 32.6286 25C32.6286 25.6627 32.0913 26.2 31.4286 26.2H7.61905C6.95631 26.2 6.41905 25.6627 6.41905 25ZM6.41905 19C6.41905 18.3373 6.95631 17.8 7.61905 17.8H31.4286C32.0913 17.8 32.6286 18.3373 32.6286 19C32.6286 19.6627 32.0913 20.2 31.4286 20.2H7.61905C6.95631 20.2 6.41905 19.6627 6.41905 19Z" fill="#3275EE"/>
<path d="M28.064 51.4C27.9573 51.4 27.8667 51.3627 27.792 51.288C27.7173 51.224 27.68 51.1333 27.68 51.016V49.896C26.912 49.8213 26.2507 49.64 25.696 49.352C25.152 49.0533 24.736 48.6907 24.448 48.264C24.1707 47.8267 24.0213 47.3627 24 46.872C24 46.776 24.032 46.696 24.096 46.632C24.1707 46.568 24.256 46.536 24.352 46.536H25.776C25.8933 46.536 25.984 46.5627 26.048 46.616C26.1227 46.6587 26.192 46.7333 26.256 46.84C26.3733 47.2027 26.6187 47.5067 26.992 47.752C27.376 47.9973 27.904 48.12 28.576 48.12C29.3227 48.12 29.888 47.9973 30.272 47.752C30.656 47.496 30.848 47.144 30.848 46.696C30.848 46.3973 30.752 46.152 30.56 45.96C30.368 45.768 30.0747 45.6027 29.68 45.464C29.2853 45.3147 28.704 45.144 27.936 44.952C26.6773 44.6533 25.7547 44.2587 25.168 43.768C24.592 43.2667 24.304 42.5573 24.304 41.64C24.304 40.808 24.6027 40.1093 25.2 39.544C25.808 38.968 26.6347 38.616 27.68 38.488V37.384C27.68 37.2667 27.7173 37.176 27.792 37.112C27.8667 37.0373 27.9573 37 28.064 37H29.04C29.1467 37 29.2373 37.0373 29.312 37.112C29.3867 37.1867 29.424 37.2773 29.424 37.384V38.52C30.1173 38.616 30.7093 38.824 31.2 39.144C31.7013 39.4533 32.08 39.816 32.336 40.232C32.6027 40.648 32.7467 41.0533 32.768 41.448C32.768 41.544 32.736 41.624 32.672 41.688C32.608 41.752 32.528 41.784 32.432 41.784H30.944C30.7093 41.784 30.5493 41.6827 30.464 41.48C30.4107 41.1387 30.2027 40.856 29.84 40.632C29.4773 40.3973 29.024 40.28 28.48 40.28C27.8933 40.28 27.4293 40.392 27.088 40.616C26.7467 40.84 26.576 41.1653 26.576 41.592C26.576 41.8907 26.6613 42.136 26.832 42.328C27.0027 42.52 27.2693 42.6907 27.632 42.84C28.0053 42.9893 28.5387 43.1547 29.232 43.336C30.1707 43.5493 30.9173 43.7893 31.472 44.056C32.0373 44.3227 32.4533 44.6587 32.72 45.064C32.9867 45.4693 33.12 45.9867 33.12 46.616C33.12 47.5333 32.7893 48.2853 32.128 48.872C31.4667 49.448 30.5653 49.7947 29.424 49.912V51.016C29.424 51.1227 29.3867 51.2133 29.312 51.288C29.2373 51.3627 29.1467 51.4 29.04 51.4H28.064Z" fill="#3275EE"/>
</svg>
