<svg width="64" height="64" viewBox="0 0 64 64" fill="none" xmlns="http://www.w3.org/2000/svg">
<circle cx="32" cy="32" r="32" fill="#F9F9F9"/>
<g clip-path="url(#clip0)">
<path fill-rule="evenodd" clip-rule="evenodd" d="M35.921 13.7148H20.8073C19.7768 13.7148 18.9414 14.592 18.9414 15.674V48.3271C18.9414 49.4091 19.7768 50.2863 20.8073 50.2863H43.198C44.2285 50.2863 45.0639 49.4091 45.0639 48.3271V22.2046L35.921 13.7148ZM41.9165 21.421L36.7047 16.5814V20.2455C36.7047 20.8947 37.231 21.421 37.8802 21.421H41.9165ZM35.1373 15.2822H20.8073C20.7136 15.2822 20.5088 15.3847 20.5088 15.674V48.3271C20.5088 48.6164 20.7136 48.7189 20.8073 48.7189H43.198C43.2917 48.7189 43.4965 48.6164 43.4965 48.3271V22.9883H37.8802C36.3653 22.9883 35.1373 21.7603 35.1373 20.2455V15.2822ZM23.1334 33.9597C23.1334 33.5269 23.4843 33.1761 23.9171 33.1761H39.4662C39.899 33.1761 40.2499 33.5269 40.2499 33.9597C40.2499 34.3926 39.899 34.7434 39.4662 34.7434H23.9171C23.4843 34.7434 23.1334 34.3926 23.1334 33.9597ZM23.1334 37.8781C23.1334 37.4453 23.4843 37.0944 23.9171 37.0944H32.0026C32.4354 37.0944 32.7863 37.4453 32.7863 37.8781C32.7863 38.3109 32.4354 38.6618 32.0026 38.6618H23.9171C23.4843 38.6618 23.1334 38.3109 23.1334 37.8781ZM23.8394 41.6659C24.2722 41.6659 24.623 42.0167 24.623 42.4495V44.9312H26.7781C27.211 44.9312 27.5618 45.282 27.5618 45.7148C27.5618 46.1477 27.211 46.4985 26.7781 46.4985H24.4924C23.6989 46.4985 23.0557 45.8553 23.0557 45.0618V42.4495C23.0557 42.0167 23.4066 41.6659 23.8394 41.6659ZM23.1334 30.0414C23.1334 29.6086 23.4843 29.2577 23.9171 29.2577H39.4662C39.899 29.2577 40.2499 29.6086 40.2499 30.0414C40.2499 30.4742 39.899 30.8251 39.4662 30.8251H23.9171C23.4843 30.8251 23.1334 30.4742 23.1334 30.0414ZM23.1334 26.123C23.1334 25.6902 23.4843 25.3393 23.9171 25.3393H39.4662C39.899 25.3393 40.2499 25.6902 40.2499 26.123C40.2499 26.5558 39.899 26.9067 39.4662 26.9067H23.9171C23.4843 26.9067 23.1334 26.5558 23.1334 26.123Z" fill="#3275EE"/>
<path d="M37.2712 47.283C37.2016 47.283 37.1424 47.2586 37.0936 47.2098C37.0448 47.1681 37.0205 47.1088 37.0205 47.0322V46.3008C36.5189 46.252 36.087 46.1336 35.7248 45.9455C35.3695 45.7505 35.0978 45.5136 34.9098 45.235C34.7286 44.9494 34.6311 44.6464 34.6172 44.3259C34.6172 44.2632 34.6381 44.211 34.6799 44.1692C34.7286 44.1274 34.7844 44.1065 34.8471 44.1065H35.777C35.8537 44.1065 35.9129 44.1239 35.9547 44.1587C36.0034 44.1866 36.0487 44.2354 36.0905 44.305C36.1671 44.5419 36.3273 44.7404 36.5711 44.9006C36.8219 45.0608 37.1667 45.1409 37.6056 45.1409C38.0932 45.1409 38.4624 45.0608 38.7132 44.9006C38.964 44.7334 39.0894 44.5036 39.0894 44.211C39.0894 44.0159 39.0267 43.8557 38.9013 43.7303C38.7759 43.6049 38.5843 43.497 38.3266 43.4064C38.0688 43.3089 37.6892 43.1974 37.1876 43.0721C36.3657 42.877 35.7631 42.6193 35.38 42.2988C35.0038 41.9714 34.8157 41.5082 34.8157 40.9091C34.8157 40.3658 35.0108 39.9095 35.4009 39.5403C35.7979 39.1641 36.3378 38.9343 37.0205 38.8507V38.1297C37.0205 38.0531 37.0448 37.9938 37.0936 37.952C37.1424 37.9033 37.2016 37.8789 37.2712 37.8789H37.9086C37.9783 37.8789 38.0375 37.9033 38.0862 37.952C38.135 38.0008 38.1594 38.06 38.1594 38.1297V38.8716C38.6122 38.9343 38.9988 39.0701 39.3192 39.2791C39.6466 39.4811 39.8939 39.7179 40.0611 39.9896C40.2353 40.2613 40.3293 40.526 40.3432 40.7837C40.3432 40.8464 40.3223 40.8987 40.2805 40.9405C40.2387 40.9823 40.1865 41.0032 40.1238 41.0032H39.152C38.9988 41.0032 38.8943 40.937 38.8386 40.8046C38.8037 40.5817 38.6679 40.3971 38.4311 40.2508C38.1942 40.0976 37.8982 40.0209 37.5429 40.0209C37.1598 40.0209 36.8568 40.0941 36.6338 40.2404C36.4109 40.3867 36.2995 40.5991 36.2995 40.8778C36.2995 41.0728 36.3552 41.233 36.4667 41.3584C36.5781 41.4838 36.7523 41.5953 36.9891 41.6928C37.2329 41.7903 37.5812 41.8983 38.034 42.0167C38.647 42.156 39.1346 42.3128 39.4969 42.4869C39.8661 42.6611 40.1377 42.8805 40.3119 43.1452C40.486 43.4099 40.5731 43.7478 40.5731 44.1587C40.5731 44.7578 40.3572 45.2489 39.9253 45.6321C39.4934 46.0082 38.9048 46.2346 38.1594 46.3112V47.0322C38.1594 47.1019 38.135 47.1611 38.0862 47.2098C38.0375 47.2586 37.9783 47.283 37.9086 47.283H37.2712Z" fill="#3275EE"/>
</g>
<defs>
<clipPath id="clip0">
<rect width="36.5714" height="36.5714" fill="white" transform="translate(13.7109 13.7148)"/>
</clipPath>
</defs>
</svg>
