<svg width="294" height="452" viewBox="0 0 294 452" fill="none" xmlns="http://www.w3.org/2000/svg">
<rect width="294" height="452" rx="8" fill="#FCF29C"/>
<path d="M97.2728 250.465C97.0972 250.465 96.9479 250.403 96.825 250.28C96.7021 250.158 96.6406 250.008 96.6406 249.833V232.684C96.6406 232.491 96.6933 232.333 96.7986 232.21C96.9216 232.087 97.0796 232.026 97.2728 232.026H109.337C109.531 232.026 109.68 232.087 109.785 232.21C109.908 232.333 109.97 232.491 109.97 232.684V234.528C109.97 234.704 109.908 234.853 109.785 234.976C109.68 235.099 109.531 235.16 109.337 235.16H100.302V239.375H104.754C106.738 239.375 108.292 239.867 109.416 240.85C110.54 241.834 111.102 243.168 111.102 244.854C111.102 245.855 110.856 246.786 110.365 247.646C109.891 248.489 109.171 249.174 108.205 249.701C107.256 250.21 106.106 250.465 104.754 250.465H97.2728ZM104.385 247.673C105.281 247.673 105.992 247.4 106.519 246.856C107.063 246.294 107.335 245.609 107.335 244.801C107.335 243.994 107.081 243.344 106.571 242.852C106.062 242.36 105.333 242.115 104.385 242.115H100.302V247.673H104.385ZM117.383 250.728C116.487 250.728 115.662 250.553 114.907 250.201C114.169 249.833 113.581 249.341 113.142 248.726C112.721 248.112 112.51 247.436 112.51 246.698C112.51 245.504 112.993 244.538 113.959 243.8C114.925 243.063 116.25 242.562 117.936 242.299L121.545 241.772V241.219C121.545 240.446 121.352 239.867 120.966 239.48C120.579 239.094 119.956 238.901 119.095 238.901C118.516 238.901 118.042 239.015 117.673 239.243C117.322 239.454 117.041 239.665 116.83 239.875C116.619 240.104 116.479 240.253 116.408 240.323C116.338 240.534 116.206 240.639 116.013 240.639H113.985C113.827 240.639 113.686 240.587 113.564 240.481C113.458 240.376 113.405 240.235 113.405 240.06C113.423 239.621 113.634 239.12 114.038 238.558C114.459 237.996 115.1 237.513 115.961 237.11C116.821 236.706 117.875 236.504 119.122 236.504C121.194 236.504 122.704 236.969 123.652 237.9C124.601 238.831 125.075 240.051 125.075 241.561V249.833C125.075 250.008 125.013 250.158 124.891 250.28C124.785 250.403 124.636 250.465 124.443 250.465H122.309C122.133 250.465 121.984 250.403 121.861 250.28C121.738 250.158 121.677 250.008 121.677 249.833V248.805C121.29 249.367 120.737 249.833 120.017 250.201C119.315 250.553 118.437 250.728 117.383 250.728ZM118.279 248.226C119.245 248.226 120.035 247.91 120.649 247.277C121.264 246.645 121.571 245.723 121.571 244.512V243.958L118.937 244.38C117.919 244.538 117.146 244.793 116.619 245.144C116.11 245.495 115.855 245.925 115.855 246.435C115.855 246.997 116.092 247.436 116.567 247.752C117.041 248.068 117.611 248.226 118.279 248.226ZM129.086 250.465C128.911 250.465 128.762 250.403 128.639 250.28C128.516 250.158 128.454 250.008 128.454 249.833V237.399C128.454 237.224 128.516 237.074 128.639 236.952C128.762 236.829 128.911 236.767 129.086 236.767H131.273C131.466 236.767 131.615 236.829 131.721 236.952C131.844 237.057 131.905 237.206 131.905 237.399V242.115H137.858V237.399C137.858 237.206 137.92 237.057 138.043 236.952C138.166 236.829 138.315 236.767 138.49 236.767H140.677C140.87 236.767 141.019 236.829 141.125 236.952C141.248 237.057 141.309 237.206 141.309 237.399V249.833C141.309 250.008 141.248 250.158 141.125 250.28C141.019 250.403 140.87 250.465 140.677 250.465H138.49C138.315 250.465 138.166 250.403 138.043 250.28C137.92 250.158 137.858 250.008 137.858 249.833V244.88H131.905V249.833C131.905 250.008 131.844 250.158 131.721 250.28C131.615 250.403 131.466 250.465 131.273 250.465H129.086ZM145.499 250.465C145.323 250.465 145.174 250.403 145.051 250.28C144.928 250.158 144.866 250.008 144.866 249.833V237.399C144.866 237.224 144.928 237.074 145.051 236.952C145.174 236.829 145.323 236.767 145.499 236.767H147.685C147.878 236.767 148.027 236.829 148.133 236.952C148.256 237.057 148.317 237.206 148.317 237.399V242.115H154.27V237.399C154.27 237.206 154.332 237.057 154.455 236.952C154.578 236.829 154.727 236.767 154.903 236.767H157.089C157.282 236.767 157.431 236.829 157.537 236.952C157.66 237.057 157.721 237.206 157.721 237.399V249.833C157.721 250.008 157.66 250.158 157.537 250.28C157.431 250.403 157.282 250.465 157.089 250.465H154.903C154.727 250.465 154.578 250.403 154.455 250.28C154.332 250.158 154.27 250.008 154.27 249.833V244.88H148.317V249.833C148.317 250.008 148.256 250.158 148.133 250.28C148.027 250.403 147.878 250.465 147.685 250.465H145.499ZM167.179 250.728C165.23 250.728 163.676 250.166 162.517 249.042C161.375 247.901 160.769 246.303 160.699 244.248L160.673 243.59L160.699 242.931C160.787 240.929 161.402 239.357 162.543 238.216C163.702 237.074 165.247 236.504 167.179 236.504C169.251 236.504 170.849 237.136 171.973 238.4C173.115 239.665 173.686 241.351 173.686 243.458V244.011C173.686 244.187 173.624 244.336 173.501 244.459C173.378 244.582 173.22 244.643 173.027 244.643H164.282V244.854C164.317 245.82 164.58 246.637 165.072 247.304C165.581 247.954 166.275 248.278 167.153 248.278C168.189 248.278 169.023 247.875 169.655 247.067C169.813 246.874 169.936 246.751 170.024 246.698C170.129 246.645 170.279 246.619 170.472 246.619H172.737C172.895 246.619 173.027 246.672 173.132 246.777C173.255 246.865 173.317 246.979 173.317 247.119C173.317 247.541 173.062 248.041 172.553 248.621C172.061 249.183 171.35 249.675 170.419 250.096C169.488 250.518 168.408 250.728 167.179 250.728ZM170.103 242.431V242.352C170.103 241.315 169.84 240.481 169.313 239.849C168.804 239.217 168.092 238.901 167.179 238.901C166.266 238.901 165.555 239.217 165.045 239.849C164.536 240.481 164.282 241.315 164.282 242.352V242.431H170.103ZM177.14 255.47C176.965 255.47 176.815 255.408 176.692 255.285C176.569 255.18 176.508 255.031 176.508 254.838V237.399C176.508 237.206 176.569 237.057 176.692 236.952C176.815 236.829 176.965 236.767 177.14 236.767H179.221C179.414 236.767 179.564 236.829 179.669 236.952C179.792 237.057 179.853 237.206 179.853 237.399V238.453C180.837 237.153 182.242 236.504 184.068 236.504C185.842 236.504 187.203 237.066 188.151 238.19C189.099 239.296 189.609 240.797 189.679 242.694C189.696 242.905 189.705 243.212 189.705 243.616C189.705 244.037 189.696 244.354 189.679 244.564C189.609 246.408 189.099 247.901 188.151 249.042C187.203 250.166 185.842 250.728 184.068 250.728C182.294 250.728 180.942 250.105 180.011 248.858V254.838C180.011 255.031 179.95 255.18 179.827 255.285C179.722 255.408 179.572 255.47 179.379 255.47H177.14ZM183.093 247.91C184.99 247.91 186 246.742 186.123 244.406C186.14 244.231 186.149 243.967 186.149 243.616C186.149 243.265 186.14 243.001 186.123 242.826C186 240.49 184.99 239.322 183.093 239.322C182.075 239.322 181.32 239.647 180.828 240.297C180.336 240.947 180.064 241.746 180.011 242.694L179.985 243.695L180.011 244.722C180.047 245.6 180.319 246.356 180.828 246.988C181.355 247.602 182.11 247.91 183.093 247.91Z" fill="#001D3A"/>
<path d="M66.7099 209C66.6025 209 66.5113 208.962 66.4362 208.887C66.3611 208.812 66.3235 208.721 66.3235 208.614V199.744H62.8303V201.772C62.8303 203.543 62.7069 204.943 62.4601 205.974C62.224 206.993 61.8161 207.744 61.2366 208.227C60.6571 208.7 59.8522 208.952 58.822 208.984C58.7146 208.995 58.6181 208.962 58.5322 208.887C58.4571 208.812 58.4195 208.716 58.4195 208.598V207.39C58.4195 207.283 58.4517 207.197 58.5161 207.133C58.5805 207.068 58.6717 207.025 58.7898 207.004C59.4229 206.897 59.8898 206.398 60.1903 205.507C60.5015 204.605 60.6571 203.264 60.6571 201.482V198.118C60.6571 198 60.6947 197.909 60.7698 197.844C60.8449 197.769 60.9361 197.732 61.0435 197.732H68.1587C68.2767 197.732 68.3733 197.769 68.4484 197.844C68.5235 197.919 68.5611 198.016 68.5611 198.134V208.614C68.5611 208.732 68.5235 208.828 68.4484 208.903C68.3733 208.968 68.2767 209 68.1587 209H66.7099ZM78.3063 200.629C78.3921 200.629 78.4673 200.661 78.5316 200.726C78.6068 200.79 78.6443 200.865 78.6443 200.951C78.6443 201.026 78.6229 201.112 78.5799 201.209L75.5214 208.517C75.1887 209.311 74.8882 209.944 74.6199 210.417C74.3516 210.889 74.0189 211.281 73.6218 211.592C73.2248 211.903 72.7472 212.059 72.1891 212.059H71.4808C71.3735 212.059 71.2823 212.021 71.2072 211.946C71.132 211.881 71.0945 211.79 71.0945 211.672V210.755C71.0945 210.647 71.132 210.556 71.2072 210.481C71.2823 210.406 71.3735 210.368 71.4808 210.368H71.9799C72.3018 210.368 72.5433 210.277 72.7043 210.095C72.8652 209.912 73.0584 209.547 73.2838 209L73.4609 208.565L70.2896 201.209C70.2467 201.112 70.2252 201.037 70.2252 200.983C70.2359 200.887 70.2735 200.806 70.3379 200.742C70.4023 200.667 70.4828 200.629 70.5794 200.629H71.8672C72.0604 200.629 72.1999 200.731 72.2857 200.935L74.4267 206.231L76.6321 200.935C76.7072 200.731 76.8575 200.629 77.0828 200.629H78.3063ZM85.3621 209C85.2548 209 85.1636 208.962 85.0885 208.887C85.0133 208.812 84.9758 208.721 84.9758 208.614V205.877C84.4499 206.339 83.6772 206.569 82.6577 206.569C81.6489 206.569 80.8869 206.333 80.3718 205.861C79.8567 205.378 79.5991 204.627 79.5991 203.607V201.016C79.5991 200.897 79.6367 200.806 79.7118 200.742C79.7869 200.667 79.8782 200.629 79.9855 200.629H81.3699C81.4772 200.629 81.5684 200.667 81.6435 200.742C81.7187 200.817 81.7562 200.908 81.7562 201.016V203.495C81.7562 203.924 81.8689 204.235 82.0943 204.428C82.3304 204.611 82.706 204.702 83.2211 204.702C84.3909 204.702 84.9758 204.385 84.9758 203.752V201.016C84.9758 200.897 85.0133 200.806 85.0885 200.742C85.1636 200.667 85.2548 200.629 85.3621 200.629H86.8109C86.9182 200.629 87.0095 200.667 87.0846 200.742C87.1597 200.817 87.1973 200.908 87.1973 201.016V208.614C87.1973 208.721 87.1597 208.812 87.0846 208.887C87.0095 208.962 86.9182 209 86.8109 209H85.3621ZM89.7588 209C89.6515 209 89.5603 208.962 89.4852 208.887C89.41 208.812 89.3725 208.721 89.3725 208.614V201.016C89.3725 200.908 89.41 200.817 89.4852 200.742C89.5603 200.667 89.6515 200.629 89.7588 200.629H91.0305C91.1486 200.629 91.2398 200.667 91.3042 200.742C91.3793 200.806 91.4169 200.897 91.4169 201.016V207.294H93.8316V201.016C93.8316 200.897 93.8691 200.806 93.9442 200.742C94.0194 200.667 94.1106 200.629 94.2179 200.629H95.3769C95.495 200.629 95.5862 200.667 95.6506 200.742C95.7257 200.806 95.7633 200.897 95.7633 201.016V207.294H98.1779V201.016C98.1779 200.897 98.2155 200.806 98.2906 200.742C98.3658 200.667 98.457 200.629 98.5643 200.629H99.836C99.9433 200.629 100.035 200.667 100.11 200.742C100.185 200.817 100.222 200.908 100.222 201.016V208.614C100.222 208.721 100.185 208.812 100.11 208.887C100.035 208.962 99.9433 209 99.836 209H89.7588ZM105.995 209.161C104.804 209.161 103.854 208.818 103.146 208.131C102.448 207.433 102.078 206.457 102.035 205.201L102.019 204.798L102.035 204.396C102.089 203.173 102.464 202.212 103.162 201.515C103.87 200.817 104.814 200.468 105.995 200.468C107.261 200.468 108.238 200.855 108.925 201.627C109.622 202.4 109.971 203.43 109.971 204.718V205.056C109.971 205.163 109.933 205.255 109.858 205.33C109.783 205.405 109.687 205.442 109.569 205.442H104.224V205.571C104.246 206.161 104.407 206.66 104.707 207.068C105.018 207.465 105.442 207.664 105.979 207.664C106.612 207.664 107.122 207.417 107.508 206.923C107.605 206.805 107.68 206.73 107.733 206.698C107.798 206.666 107.889 206.65 108.007 206.65H109.392C109.488 206.65 109.569 206.682 109.633 206.746C109.708 206.8 109.746 206.87 109.746 206.956C109.746 207.213 109.59 207.519 109.279 207.873C108.978 208.217 108.544 208.517 107.975 208.775C107.406 209.032 106.746 209.161 105.995 209.161ZM107.782 204.09V204.042C107.782 203.409 107.621 202.899 107.299 202.513C106.988 202.126 106.553 201.933 105.995 201.933C105.437 201.933 105.002 202.126 104.691 202.513C104.38 202.899 104.224 203.409 104.224 204.042V204.09H107.782ZM115.286 209.161C114.094 209.161 113.145 208.818 112.436 208.131C111.739 207.433 111.369 206.457 111.326 205.201L111.31 204.798L111.326 204.396C111.379 203.173 111.755 202.212 112.453 201.515C113.161 200.817 114.105 200.468 115.286 200.468C116.552 200.468 117.529 200.855 118.215 201.627C118.913 202.4 119.262 203.43 119.262 204.718V205.056C119.262 205.163 119.224 205.255 119.149 205.33C119.074 205.405 118.977 205.442 118.859 205.442H113.515V205.571C113.536 206.161 113.697 206.66 113.998 207.068C114.309 207.465 114.733 207.664 115.27 207.664C115.903 207.664 116.413 207.417 116.799 206.923C116.895 206.805 116.971 206.73 117.024 206.698C117.089 206.666 117.18 206.65 117.298 206.65H118.682C118.779 206.65 118.859 206.682 118.924 206.746C118.999 206.8 119.036 206.87 119.036 206.956C119.036 207.213 118.881 207.519 118.57 207.873C118.269 208.217 117.835 208.517 117.266 208.775C116.697 209.032 116.037 209.161 115.286 209.161ZM117.073 204.09V204.042C117.073 203.409 116.912 202.899 116.59 202.513C116.278 202.126 115.844 201.933 115.286 201.933C114.728 201.933 114.293 202.126 113.982 202.513C113.671 202.899 113.515 203.409 113.515 204.042V204.09H117.073ZM125.036 209C124.928 209 124.837 208.962 124.762 208.887C124.687 208.812 124.649 208.721 124.649 208.614V201.016C124.649 200.908 124.687 200.817 124.762 200.742C124.837 200.667 124.928 200.629 125.036 200.629H131.925C132.043 200.629 132.135 200.667 132.199 200.742C132.274 200.806 132.312 200.897 132.312 201.016V208.614C132.312 208.721 132.274 208.812 132.199 208.887C132.135 208.962 132.043 209 131.925 209H130.589C130.482 209 130.391 208.962 130.316 208.887C130.24 208.812 130.203 208.721 130.203 208.614V202.336H126.758V208.614C126.758 208.721 126.72 208.812 126.645 208.887C126.581 208.962 126.49 209 126.372 209H125.036ZM134.893 212.059C134.785 212.059 134.694 212.021 134.619 211.946C134.544 211.881 134.506 211.79 134.506 211.672V201.016C134.506 200.897 134.544 200.806 134.619 200.742C134.694 200.667 134.785 200.629 134.893 200.629H136.164C136.282 200.629 136.374 200.667 136.438 200.742C136.513 200.806 136.551 200.897 136.551 201.016V201.659C137.152 200.865 138.01 200.468 139.126 200.468C140.21 200.468 141.042 200.812 141.622 201.498C142.201 202.175 142.512 203.092 142.555 204.251C142.566 204.38 142.571 204.568 142.571 204.815C142.571 205.072 142.566 205.265 142.555 205.394C142.512 206.521 142.201 207.433 141.622 208.131C141.042 208.818 140.21 209.161 139.126 209.161C138.042 209.161 137.216 208.78 136.647 208.018V211.672C136.647 211.79 136.61 211.881 136.535 211.946C136.47 212.021 136.379 212.059 136.261 212.059H134.893ZM138.531 207.439C139.69 207.439 140.307 206.725 140.382 205.298C140.393 205.19 140.398 205.029 140.398 204.815C140.398 204.6 140.393 204.439 140.382 204.332C140.307 202.904 139.69 202.191 138.531 202.191C137.908 202.191 137.447 202.389 137.146 202.786C136.846 203.183 136.679 203.672 136.647 204.251L136.631 204.863L136.647 205.491C136.669 206.027 136.835 206.489 137.146 206.875C137.468 207.251 137.93 207.439 138.531 207.439ZM147.984 209.161C146.793 209.161 145.843 208.818 145.135 208.131C144.437 207.433 144.067 206.457 144.024 205.201L144.008 204.798L144.024 204.396C144.078 203.173 144.453 202.212 145.151 201.515C145.859 200.817 146.804 200.468 147.984 200.468C149.251 200.468 150.227 200.855 150.914 201.627C151.612 202.4 151.96 203.43 151.96 204.718V205.056C151.96 205.163 151.923 205.255 151.848 205.33C151.773 205.405 151.676 205.442 151.558 205.442H146.214V205.571C146.235 206.161 146.396 206.66 146.696 207.068C147.008 207.465 147.432 207.664 147.968 207.664C148.601 207.664 149.111 207.417 149.497 206.923C149.594 206.805 149.669 206.73 149.723 206.698C149.787 206.666 149.878 206.65 149.996 206.65H151.381C151.477 206.65 151.558 206.682 151.622 206.746C151.697 206.8 151.735 206.87 151.735 206.956C151.735 207.213 151.579 207.519 151.268 207.873C150.968 208.217 150.533 208.517 149.964 208.775C149.396 209.032 148.735 209.161 147.984 209.161ZM149.771 204.09V204.042C149.771 203.409 149.61 202.899 149.288 202.513C148.977 202.126 148.542 201.933 147.984 201.933C147.426 201.933 146.992 202.126 146.68 202.513C146.369 202.899 146.214 203.409 146.214 204.042V204.09H149.771ZM153.347 210.771C153.24 210.771 153.149 210.733 153.074 210.658C152.998 210.594 152.961 210.502 152.961 210.384V207.68C152.961 207.573 152.998 207.481 153.074 207.406C153.149 207.331 153.24 207.294 153.347 207.294H153.476C153.895 207.294 154.2 206.961 154.394 206.296C154.587 205.63 154.683 204.595 154.683 203.189V201.016C154.683 200.897 154.721 200.806 154.796 200.742C154.871 200.667 154.962 200.629 155.07 200.629H160.8C160.919 200.629 161.01 200.667 161.074 200.742C161.149 200.806 161.187 200.897 161.187 201.016V207.278H161.911C162.029 207.278 162.12 207.315 162.185 207.39C162.26 207.455 162.298 207.546 162.298 207.664V210.384C162.298 210.502 162.26 210.594 162.185 210.658C162.12 210.733 162.029 210.771 161.911 210.771H160.591C160.473 210.771 160.377 210.733 160.301 210.658C160.226 210.583 160.189 210.492 160.189 210.384V209H155.07V210.384C155.07 210.502 155.032 210.594 154.957 210.658C154.893 210.733 154.801 210.771 154.683 210.771H153.347ZM159.094 207.278V202.336H156.712V203.414C156.712 205.26 156.459 206.553 155.955 207.294L159.094 207.278ZM163.52 209C163.413 209 163.316 208.962 163.23 208.887C163.155 208.801 163.117 208.705 163.117 208.598V207.599C163.117 207.492 163.15 207.406 163.214 207.342C163.278 207.267 163.37 207.224 163.488 207.213C163.96 207.192 164.298 206.87 164.502 206.247C164.716 205.614 164.824 204.595 164.824 203.189V201.016C164.824 200.897 164.861 200.806 164.936 200.742C165.012 200.667 165.103 200.629 165.21 200.629H170.925C171.032 200.629 171.123 200.667 171.198 200.742C171.274 200.817 171.311 200.908 171.311 201.016V208.614C171.311 208.721 171.274 208.812 171.198 208.887C171.123 208.962 171.032 209 170.925 209H169.589C169.481 209 169.39 208.962 169.315 208.887C169.24 208.812 169.202 208.721 169.202 208.614V202.336H166.836V203.414C166.836 204.809 166.729 205.909 166.514 206.714C166.31 207.519 165.967 208.104 165.484 208.469C165.012 208.823 164.357 209 163.52 209ZM177.179 209.161C175.924 209.161 174.953 208.839 174.266 208.195C173.579 207.54 173.209 206.65 173.155 205.523L173.139 204.815L173.155 204.106C173.209 202.99 173.584 202.105 174.282 201.45C174.979 200.796 175.945 200.468 177.179 200.468C178.414 200.468 179.379 200.796 180.077 201.45C180.775 202.105 181.15 202.99 181.204 204.106C181.215 204.235 181.22 204.471 181.22 204.815C181.22 205.158 181.215 205.394 181.204 205.523C181.15 206.65 180.78 207.54 180.093 208.195C179.406 208.839 178.435 209.161 177.179 209.161ZM177.179 207.567C177.748 207.567 178.188 207.39 178.499 207.036C178.811 206.671 178.982 206.14 179.015 205.442C179.025 205.335 179.031 205.126 179.031 204.815C179.031 204.503 179.025 204.294 179.015 204.187C178.982 203.489 178.811 202.963 178.499 202.609C178.188 202.244 177.748 202.062 177.179 202.062C176.611 202.062 176.171 202.244 175.859 202.609C175.548 202.963 175.376 203.489 175.344 204.187L175.328 204.815L175.344 205.442C175.376 206.14 175.548 206.671 175.859 207.036C176.171 207.39 176.611 207.567 177.179 207.567ZM195.318 208.501C195.361 208.555 195.383 208.624 195.383 208.71C195.383 208.796 195.351 208.866 195.286 208.92C195.232 208.973 195.152 209 195.045 209H193.435C193.242 209 193.091 208.92 192.984 208.759L190.875 205.587H189.877V208.614C189.877 208.721 189.84 208.812 189.765 208.887C189.7 208.962 189.609 209 189.491 209H188.187C188.08 209 187.988 208.962 187.913 208.887C187.838 208.812 187.801 208.721 187.801 208.614V205.587H186.803L184.694 208.759C184.565 208.92 184.415 209 184.243 209H182.617C182.521 209 182.44 208.973 182.376 208.92C182.311 208.866 182.279 208.796 182.279 208.71C182.279 208.646 182.306 208.576 182.36 208.501L185.016 204.654L182.698 201.128C182.655 201.075 182.633 201.005 182.633 200.919C182.633 200.833 182.66 200.763 182.714 200.71C182.778 200.656 182.864 200.629 182.971 200.629H184.404C184.511 200.629 184.597 200.651 184.662 200.694C184.726 200.736 184.79 200.801 184.855 200.887L186.787 203.897H187.801V201.016C187.801 200.897 187.838 200.806 187.913 200.742C187.988 200.667 188.08 200.629 188.187 200.629H189.491C189.609 200.629 189.7 200.667 189.765 200.742C189.84 200.806 189.877 200.897 189.877 201.016V203.897H190.859L192.823 200.887C192.93 200.715 193.075 200.629 193.258 200.629H194.707C194.803 200.629 194.884 200.656 194.948 200.71C195.012 200.763 195.045 200.833 195.045 200.919C195.045 200.983 195.018 201.053 194.964 201.128L192.646 204.654L195.318 208.501ZM200.396 209.161C199.205 209.161 198.255 208.818 197.547 208.131C196.849 207.433 196.479 206.457 196.436 205.201L196.42 204.798L196.436 204.396C196.49 203.173 196.866 202.212 197.563 201.515C198.271 200.817 199.216 200.468 200.396 200.468C201.663 200.468 202.639 200.855 203.326 201.627C204.024 202.4 204.372 203.43 204.372 204.718V205.056C204.372 205.163 204.335 205.255 204.26 205.33C204.185 205.405 204.088 205.442 203.97 205.442H198.626V205.571C198.647 206.161 198.808 206.66 199.108 207.068C199.42 207.465 199.844 207.664 200.38 207.664C201.013 207.664 201.523 207.417 201.909 206.923C202.006 206.805 202.081 206.73 202.135 206.698C202.199 206.666 202.29 206.65 202.409 206.65H203.793C203.889 206.65 203.97 206.682 204.034 206.746C204.109 206.8 204.147 206.87 204.147 206.956C204.147 207.213 203.991 207.519 203.68 207.873C203.38 208.217 202.945 208.517 202.376 208.775C201.808 209.032 201.148 209.161 200.396 209.161ZM202.183 204.09V204.042C202.183 203.409 202.022 202.899 201.7 202.513C201.389 202.126 200.954 201.933 200.396 201.933C199.838 201.933 199.404 202.126 199.092 202.513C198.781 202.899 198.626 203.409 198.626 204.042V204.09H202.183ZM206.468 209C206.36 209 206.269 208.962 206.194 208.887C206.119 208.812 206.081 208.721 206.081 208.614V201.016C206.081 200.908 206.119 200.817 206.194 200.742C206.269 200.667 206.36 200.629 206.468 200.629H207.804C207.922 200.629 208.013 200.667 208.077 200.742C208.152 200.806 208.19 200.897 208.19 201.016V203.897H211.828V201.016C211.828 200.897 211.866 200.806 211.941 200.742C212.016 200.667 212.107 200.629 212.214 200.629H213.551C213.669 200.629 213.76 200.667 213.824 200.742C213.899 200.806 213.937 200.897 213.937 201.016V208.614C213.937 208.721 213.899 208.812 213.824 208.887C213.76 208.962 213.669 209 213.551 209H212.214C212.107 209 212.016 208.962 211.941 208.887C211.866 208.812 211.828 208.721 211.828 208.614V205.587H208.19V208.614C208.19 208.721 208.152 208.812 208.077 208.887C208.013 208.962 207.922 209 207.804 209H206.468ZM223.741 200.629C223.838 200.629 223.924 200.667 223.999 200.742C224.074 200.806 224.111 200.887 224.111 200.983V208.614C224.111 208.721 224.074 208.812 223.999 208.887C223.924 208.962 223.832 209 223.725 209H222.389C222.282 209 222.19 208.962 222.115 208.887C222.04 208.812 222.003 208.721 222.003 208.614V203.446L218.139 208.742C218.043 208.914 217.898 209 217.704 209H216.481C216.384 209 216.299 208.968 216.224 208.903C216.148 208.828 216.111 208.737 216.111 208.63V201.016C216.111 200.908 216.148 200.817 216.224 200.742C216.299 200.667 216.39 200.629 216.497 200.629H217.833C217.951 200.629 218.043 200.667 218.107 200.742C218.182 200.806 218.22 200.897 218.22 201.016V206.199L222.083 200.887C222.201 200.715 222.346 200.629 222.518 200.629H223.741ZM229.746 209.161C228.555 209.161 227.605 208.818 226.897 208.131C226.2 207.433 225.829 206.457 225.786 205.201L225.77 204.798L225.786 204.396C225.84 203.173 226.216 202.212 226.913 201.515C227.621 200.817 228.566 200.468 229.746 200.468C231.013 200.468 231.989 200.855 232.676 201.627C233.374 202.4 233.723 203.43 233.723 204.718V205.056C233.723 205.163 233.685 205.255 233.61 205.33C233.535 205.405 233.438 205.442 233.32 205.442H227.976V205.571C227.997 206.161 228.158 206.66 228.459 207.068C228.77 207.465 229.194 207.664 229.73 207.664C230.363 207.664 230.873 207.417 231.26 206.923C231.356 206.805 231.431 206.73 231.485 206.698C231.549 206.666 231.641 206.65 231.759 206.65H233.143C233.24 206.65 233.32 206.682 233.384 206.746C233.46 206.8 233.497 206.87 233.497 206.956C233.497 207.213 233.342 207.519 233.03 207.873C232.73 208.217 232.295 208.517 231.726 208.775C231.158 209.032 230.498 209.161 229.746 209.161ZM231.533 204.09V204.042C231.533 203.409 231.372 202.899 231.05 202.513C230.739 202.126 230.304 201.933 229.746 201.933C229.188 201.933 228.754 202.126 228.442 202.513C228.131 202.899 227.976 203.409 227.976 204.042V204.09H231.533Z" fill="#001D3A"/>
</svg>
