<svg width="16" height="16" viewBox="0 0 16 16" fill="none" xmlns="http://www.w3.org/2000/svg">
<path fill-rule="evenodd" clip-rule="evenodd" d="M2.07052 13.0591C1.59161 13.0591 1.2 13.4507 1.2 13.9297C1.2 14.4085 1.59149 14.8001 2.07052 14.8001C2.54956 14.8001 2.94105 14.4085 2.94105 13.9297C2.94105 13.4508 2.54933 13.0591 2.07052 13.0591ZM0 13.9297C0 12.788 0.928861 11.8591 2.07052 11.8591C3.21202 11.8591 4.14105 12.788 4.14105 13.9297C4.14105 15.0713 3.21219 16.0001 2.07052 16.0001C0.928861 16.0001 0 15.0713 0 13.9297Z" fill="#3275EE"/>
<path fill-rule="evenodd" clip-rule="evenodd" d="M0.344556 5.96152C0.255274 5.9594 0.169924 5.99167 0.10587 6.05359C0.0419802 6.11535 0.00610352 6.20038 0.00610352 6.28917V8.94587C0.00610352 9.12083 0.143876 9.26499 0.318836 9.27319C3.81378 9.43258 6.56956 12.1884 6.72896 15.6834C6.73699 15.8582 6.88115 15.9959 7.05627 15.9959H9.71311C9.8019 15.9959 9.88709 15.9599 9.94868 15.8963C10.0103 15.8328 10.0434 15.7463 10.0408 15.6577C9.95606 13.1106 8.91236 10.7107 7.10214 8.90033C5.2916 7.08993 2.8918 6.04638 0.344556 5.96152ZM6.25357 9.74881C6.2536 9.74884 6.25362 9.74886 6.25365 9.74889C7.63374 11.1292 8.50627 12.8945 8.7653 14.7959H7.84672C7.33138 11.3558 4.64623 8.67068 1.2061 8.1554V7.237C3.10779 7.49607 4.87317 8.36856 6.25357 9.74881Z" fill="#3275EE"/>
<path fill-rule="evenodd" clip-rule="evenodd" d="M12.6893 15.6752C12.5226 9.02447 6.97609 3.47779 0.324821 3.31069C0.147076 3.3061 0.00537109 3.16079 0.00537109 2.98305V0.32782C0.00537109 0.239848 0.0409201 0.155643 0.103827 0.0938822C0.166406 0.0321213 0.251265 -0.00391955 0.339728 0.000339816C4.4775 0.0855272 8.37397 1.75061 11.3119 4.68827C14.2491 7.62527 15.9141 11.5219 15.9996 15.6599C16.0016 15.7481 15.9677 15.8331 15.9063 15.896C15.8445 15.9591 15.76 15.9944 15.672 15.9944H13.0168C12.8391 15.9944 12.6934 15.8529 12.6893 15.6752ZM10.4634 5.53684C12.9706 8.0439 14.4739 11.3017 14.755 14.7944ZM14.755 14.7944H13.8407C13.2544 8.17083 7.82944 2.74581 1.20537 2.15934V1.24497C4.69781 1.52583 7.95543 3.0291 10.4634 5.53682M13.889 15.6475L13.8889 15.6451Z" fill="#3275EE"/>
</svg>
