<svg width="144" height="144" viewBox="0 0 144 144" fill="none" xmlns="http://www.w3.org/2000/svg">
<rect width="107.027" height="108.356" rx="2" transform="matrix(0.964991 -0.262281 0.255396 0.966837 0 28.0713)" fill="#3275EE"/>
<rect width="91.1708" height="70.2308" rx="2" transform="matrix(0.964991 -0.262281 0.255396 0.966837 9.70117 33.7568)" fill="white"/>
<rect x="-1.31364" y="-2.51786" width="111.062" height="112.321" rx="4" transform="matrix(0.952761 0.303722 -0.295941 0.955206 37.1899 4.29987)" fill="#3275EE" stroke="white" stroke-width="4"/>
<rect width="91.2009" height="70.2082" rx="2" transform="matrix(0.952761 0.303722 -0.295941 0.955206 43.1807 14.085)" fill="white"/>
<path d="M102.237 90.4969L41.6292 70.7828L53.0167 59.2143L58.6556 66.4948L72.9682 56.0583L79.4273 67.395L99.8859 52.199L102.237 90.4969Z" fill="#3275EE"/>
<ellipse rx="5.94789" ry="6.01784" transform="matrix(0.952761 0.303722 -0.295941 0.955206 62.3918 39.1632)" fill="#3275EE"/>
</svg>
