<svg width="56" height="54" viewBox="0 0 56 54" fill="none" xmlns="http://www.w3.org/2000/svg">
<path d="M24.643 3.24656C25.6997 0.0219785 30.3 0.0219785 31.3567 3.24656L35.5276 15.9771C36.0002 17.4192 37.3551 18.3955 38.884 18.3955H52.3823C55.8012 18.3955 57.2229 22.734 54.4569 24.7269L43.5365 32.5949C42.2994 33.486 41.782 35.0659 42.2546 36.5079L46.4257 49.2384C47.482 52.463 43.7606 55.1447 40.9943 53.1518L30.0744 45.2838C28.8374 44.3927 27.1623 44.3923 25.9253 45.2838L15.0051 53.1518C12.2391 55.1447 8.51736 52.463 9.57389 49.2384L13.7451 36.5079C14.2175 35.0659 13.6999 33.4864 12.4629 32.5949L1.54272 24.7269C-1.22337 22.734 0.198211 18.3955 3.61723 18.3955H17.1154C18.6444 18.3955 19.9994 17.4192 20.472 15.9771L24.643 3.24656Z" fill="#FFD94B"/>
</svg>
