<svg width="64" height="64" viewBox="0 0 64 64" fill="none" xmlns="http://www.w3.org/2000/svg">
<circle cx="32" cy="32" r="32" fill="#F9F9F9"/>
<g clip-path="url(#clip0)">
<path d="M44.0301 27.3745H20.13C19.473 27.3745 18.9404 27.9039 18.9404 28.5569V31.0113C18.9404 31.6644 19.473 32.1938 20.13 32.1938H44.0301C44.687 32.1938 45.2196 31.6644 45.2196 31.0113V28.5569C45.2196 27.9039 44.687 27.3745 44.0301 27.3745Z" stroke="#3275EE" stroke-width="1.56735" stroke-miterlimit="10"/>
<path d="M22.6288 27.6495C22.0872 26.1915 21.907 24.6252 22.1035 23.0834C22.2999 21.5415 22.8672 20.0694 23.7573 18.7916C24.6475 17.5138 25.8342 16.468 27.2171 15.7427C28.6 15.0174 30.1383 14.6339 31.7019 14.6247C33.2655 14.6155 34.8083 14.9809 36.1997 15.6899C37.5911 16.3989 38.7902 17.4307 39.6954 18.698C40.6007 19.9652 41.1854 21.4306 41.4002 22.97C41.615 24.5095 41.4534 26.0777 40.9293 27.542" stroke="#3275EE" stroke-width="1.56735" stroke-miterlimit="10"/>
<path d="M22.2764 32.6247L28.4406 41.1406C28.6818 41.4749 28.812 41.8757 28.8131 42.2871V47.4229C28.8131 47.9456 29.022 48.4468 29.3938 48.8164C29.7657 49.186 30.2699 49.3936 30.7958 49.3936H32.5982C32.8586 49.3936 33.1164 49.3426 33.3569 49.2436C33.5975 49.1446 33.816 48.9994 34.0001 48.8164C34.1843 48.6334 34.3303 48.4162 34.4299 48.1771C34.5296 47.938 34.5809 47.6817 34.5809 47.4229V42.1677C34.5778 41.7381 34.7148 41.3191 34.9714 40.9733L41.2498 32.6128" stroke="#3275EE" stroke-width="1.56735" stroke-miterlimit="10"/>
<path d="M32.9561 26.7755C32.9577 26.6445 32.923 26.516 32.8566 26.4063C32.7901 26.2965 32.6948 26.2103 32.5828 26.1588C32.2117 26.0294 31.8282 25.9453 31.4395 25.9081C30.9366 25.8224 30.4394 25.7019 29.951 25.547C29.5607 25.4196 29.2083 25.1845 28.929 24.8651C28.6201 24.4814 28.4642 23.9825 28.495 23.4762C28.4878 22.9938 28.6307 22.5227 28.901 22.1374C29.2054 21.7183 29.615 21.4016 30.0816 21.2249C30.6708 20.9966 31.294 20.8861 31.9202 20.8989C32.5067 20.9076 33.0911 20.9764 33.6654 21.1045C33.8867 21.1551 34.1049 21.2204 34.3187 21.3001C34.4024 21.3339 34.4787 21.3859 34.5428 21.453C34.6069 21.52 34.6574 21.6005 34.6912 21.6895C34.7249 21.7785 34.7412 21.874 34.7389 21.9701C34.7366 22.0662 34.7159 22.1607 34.678 22.2477L34.51 22.6288C34.4371 22.7891 34.3105 22.9138 34.1556 22.978C34.0007 23.0421 33.8289 23.041 33.6747 22.9748C33.1112 22.7599 32.5181 22.6481 31.9202 22.6439C31.4182 22.6278 30.9171 22.6989 30.4363 22.8545C30.3378 22.8989 30.2531 22.9724 30.192 23.0665C30.1309 23.1606 30.0959 23.2713 30.091 23.386C30.093 23.5021 30.1307 23.6142 30.1982 23.7049C30.2658 23.7956 30.3593 23.8597 30.4643 23.8874C31.005 24.0133 31.5518 24.1071 32.1022 24.1682C32.6031 24.2522 33.0986 24.3695 33.5861 24.5191C33.9729 24.6399 34.3215 24.8722 34.594 25.191C34.8961 25.6402 35.0459 26.187 35.0187 26.7404" fill="#3275EE"/>
<path d="M32.4077 20.3811C32.4077 19.946 32.1153 19.5933 31.7546 19.5933C31.3939 19.5933 31.1016 19.946 31.1016 20.3811V21.4177C31.1016 21.8528 31.3939 22.2055 31.7546 22.2055C32.1153 22.2055 32.4077 21.8528 32.4077 21.4177V20.3811Z" fill="#3275EE"/>
</g>
<defs>
<clipPath id="clip0">
<rect width="36.5714" height="36.5714" fill="white" transform="translate(13.7139 13.7144)"/>
</clipPath>
</defs>
</svg>
