<svg width="56" height="56" viewBox="0 0 56 56" fill="none" xmlns="http://www.w3.org/2000/svg">
<circle cx="24.0625" cy="24.0625" r="22.8625" stroke="#3275EE" stroke-width="2.4"/>
<path d="M33.5571 24.0625C33.5571 30.5795 32.3806 36.4218 30.5281 40.5899C29.6012 42.6755 28.5286 44.2889 27.3981 45.3648C26.2738 46.4347 25.1487 46.925 24.0626 46.925C22.9765 46.925 21.8514 46.4347 20.7271 45.3648C19.5966 44.2889 18.524 42.6755 17.5971 40.5899C15.7446 36.4218 14.5682 30.5795 14.5682 24.0625C14.5682 17.5455 15.7446 11.7032 17.5971 7.53511C18.524 5.44954 19.5966 3.83606 20.7271 2.76022C21.8514 1.69027 22.9765 1.2 24.0626 1.2C25.1487 1.2 26.2738 1.69027 27.3981 2.76022C28.5286 3.83606 29.6012 5.44954 30.5281 7.53511C32.3806 11.7032 33.5571 17.5455 33.5571 24.0625Z" stroke="#3275EE" stroke-width="2.4"/>
<line y1="23.6145" x2="48.125" y2="23.6145" stroke="#3275EE" stroke-width="2.4"/>
<path d="M4.25195 37.1887C10.4499 34.7581 26.9776 31.3553 43.5054 37.1887" stroke="#3275EE" stroke-width="2.4"/>
<path d="M43.873 10.9363C37.6751 13.3669 21.1474 16.7697 4.61957 10.9363" stroke="#3275EE" stroke-width="2.4"/>
<g clip-path="url(#clip0)">
<path d="M28.7432 43.7579C28.8368 44.4538 29.1537 45.0447 29.6036 45.4885C29.3814 45.7637 29.2292 46.053 29.1255 46.3181C28.8494 47.0243 28.8532 47.7607 28.8546 48.026C28.8547 48.0424 28.8548 48.057 28.8548 48.0697C28.8548 49.8204 30.3117 51.0921 31.9228 51.0921H47.566C50.0822 51.0921 51.9014 49.4636 52.491 47.487C52.9065 46.0939 52.7111 44.5154 51.8032 43.247C52.0809 42.9636 52.3062 42.6221 52.458 42.2327L55.9084 33.3793C56.3502 32.2459 56.0172 31.1078 55.246 30.3757C54.5776 29.7412 53.7006 29.5 52.9397 29.5H33.5565L32.5944 25.0103C32.5305 24.6246 32.382 24.0747 32.1836 23.5874C32.0781 23.3281 31.9126 22.9704 31.6675 22.6422C31.5187 22.443 30.9841 21.7622 30.0397 21.6429L25.7694 20.7888L25.5751 20.75L25.3769 20.75C24.2721 20.7502 23.0818 21.0501 22.3679 22.1348C22.0692 22.5886 21.9603 23.0374 21.9094 23.2941C21.8874 23.4051 21.87 23.5163 21.8601 23.5791C21.8588 23.5876 21.8576 23.5951 21.8566 23.6017C21.8475 23.6594 21.8439 23.6779 21.8438 23.6789C21.4443 25.3914 22.5863 26.9661 24.1794 27.3086C24.1794 27.3086 24.1795 27.3086 24.1795 27.3086L26.4785 27.803L28.7432 43.7579ZM34.9441 39.3597L34.4587 36.1251H47.9596L47.3333 37.9669L34.9441 39.3597Z" fill="#3275EE" stroke="white" stroke-width="4"/>
<path d="M34.2418 49.7681C32.3352 49.7681 30.7471 51.2576 30.7471 53.1348C30.7471 55.0119 32.3352 56.5015 34.2418 56.5015C36.1484 56.5015 37.7365 55.0119 37.7365 53.1348C37.7365 51.2576 36.1484 49.7681 34.2418 49.7681ZM34.2418 53.4568C34.0236 53.4568 33.8831 53.2915 33.8831 53.1349C33.8831 52.9781 34.0236 52.8129 34.2418 52.8129C34.4599 52.8129 34.6005 52.9781 34.6005 53.1349C34.6005 53.2915 34.4599 53.4568 34.2418 53.4568Z" fill="#3275EE" stroke="white"/>
<path d="M44.5504 49.7681C42.6437 49.7681 41.0557 51.2576 41.0557 53.1348C41.0557 55.0119 42.6438 56.5015 44.5504 56.5015C46.457 56.5015 48.0451 55.0119 48.0451 53.1348C48.0451 51.2576 46.457 49.7681 44.5504 49.7681ZM44.5504 53.4568C44.3322 53.4568 44.1917 53.2915 44.1917 53.1349C44.1917 52.9781 44.3322 52.8129 44.5504 52.8129C44.7685 52.8129 44.909 52.9781 44.909 53.1349C44.909 53.2915 44.7686 53.4568 44.5504 53.4568Z" fill="#3275EE" stroke="white"/>
<rect x="34.125" y="34.125" width="14.875" height="5.25" fill="white"/>
</g>
<defs>
<clipPath id="clip0">
<rect width="34.125" height="36.75" fill="white" transform="translate(21.875 19.25)"/>
</clipPath>
</defs>
</svg>
